<svg width="15" height="14" viewBox="0 0 15 14" fill="none" xmlns="http://www.w3.org/2000/svg">
<path d="M7.44173 0.431224L7.57795 0.421875C7.82 0.421885 8.05385 0.509542 8.23627 0.668634C8.41868 0.827726 8.53732 1.04749 8.57024 1.28729L8.57959 1.42351V6.0978H13.2539C13.4959 6.09781 13.7298 6.18547 13.9122 6.34456C14.0946 6.50365 14.2133 6.72342 14.2462 6.96322L14.2555 7.09944C14.2555 7.34148 14.1679 7.57534 14.0088 7.75775C13.8497 7.94017 13.6299 8.05881 13.3901 8.09172L13.2539 8.10107H8.57959V12.7754C8.57958 13.0174 8.49192 13.2513 8.33283 13.4337C8.17374 13.6161 7.95397 13.7347 7.71418 13.7677L7.57795 13.777C7.33591 13.777 7.10205 13.6893 6.91964 13.5302C6.73722 13.3712 6.61859 13.1514 6.58567 12.9116L6.57632 12.7754V8.10107H1.90203C1.65998 8.10106 1.42613 8.01341 1.24371 7.85431C1.06129 7.69522 0.942657 7.47546 0.909739 7.23566L0.900391 7.09944C0.900401 6.85739 0.988057 6.62354 1.14715 6.44112C1.30624 6.25871 1.52601 6.14007 1.7658 6.10715L1.90203 6.0978H6.57632V1.42351C6.57633 1.18146 6.66399 0.94761 6.82308 0.765194C6.98217 0.582779 7.20193 0.464142 7.44173 0.431224L7.57795 0.421875L7.44173 0.431224Z" fill="white"/>
</svg>
