<svg width="11" height="19" viewBox="0 0 11 19" fill="none" xmlns="http://www.w3.org/2000/svg">
<path d="M9.97967 0.977394C9.86948 0.866928 9.73859 0.779286 9.59448 0.719487C9.45037 0.659687 9.29587 0.628906 9.13985 0.628906C8.98382 0.628906 8.82933 0.659687 8.68522 0.719487C8.54111 0.779286 8.41021 0.866928 8.30002 0.977394L0.414234 8.86318C0.326263 8.95098 0.25647 9.05525 0.20885 9.17005C0.16123 9.28485 0.136719 9.40791 0.136719 9.5322C0.136719 9.65648 0.16123 9.77954 0.20885 9.89434C0.25647 10.0091 0.326263 10.1134 0.414234 10.2012L8.30002 18.087C8.76501 18.552 9.51468 18.552 9.97967 18.087C10.4447 17.622 10.4447 16.8723 9.97967 16.4074L3.10926 9.52745L9.98916 2.64755C10.4447 2.19205 10.4447 1.43289 9.97967 0.977394Z" fill="#474747"/>
</svg>
