<svg width="16" height="16" viewBox="0 0 16 16" fill="none" xmlns="http://www.w3.org/2000/svg">
<path d="M7.875 8.875C8.35825 8.875 8.75 8.48325 8.75 8C8.75 7.51675 8.35825 7.125 7.875 7.125C7.39175 7.125 7 7.51675 7 8C7 8.48325 7.39175 8.875 7.875 8.875Z" fill="#4C5BD4" stroke="#4C5BD4" stroke-width="2" stroke-linecap="round" stroke-linejoin="round"/>
<path d="M7.875 2.75C8.35825 2.75 8.75 2.35825 8.75 1.875C8.75 1.39175 8.35825 1 7.875 1C7.39175 1 7 1.39175 7 1.875C7 2.35825 7.39175 2.75 7.875 2.75Z" fill="#4C5BD4" stroke="#4C5BD4" stroke-width="2" stroke-linecap="round" stroke-linejoin="round"/>
<path d="M7.875 15C8.35825 15 8.75 14.6082 8.75 14.125C8.75 13.6418 8.35825 13.25 7.875 13.25C7.39175 13.25 7 13.6418 7 14.125C7 14.6082 7.39175 15 7.875 15Z" fill="#4C5BD4" stroke="#4C5BD4" stroke-width="2" stroke-linecap="round" stroke-linejoin="round"/>
</svg>
