<svg width="26" height="26" viewBox="0 0 26 26" fill="none" xmlns="http://www.w3.org/2000/svg">
<path d="M26 13C26 5.83179 20.1682 0 13 0C5.83179 0 0 5.83179 0 13C0 20.1682 5.83179 26 13 26C20.1682 26 26 20.1682 26 13ZM15.0267 20.1584H14.3492V22.375H11.6508V20.1584H8.01108V17.46H15.0267C15.9162 17.46 16.6398 16.7364 16.6398 15.8469C16.6398 14.9575 15.9162 14.2339 15.0267 14.2339H11.771C9.45723 14.2339 7.57485 12.3515 7.57485 10.0377C7.57485 7.76418 9.39256 5.90861 11.6508 5.84457V3.62489H14.3492V5.84151H17.2678V8.53987H11.771C10.9451 8.53987 10.2732 9.21176 10.2732 10.0377C10.2732 10.8636 10.9451 11.5355 11.771 11.5355H15.0267C17.4041 11.5355 19.3382 13.4696 19.3382 15.8469C19.3381 18.2243 17.404 20.1584 15.0267 20.1584Z" fill="white"/>
</svg>
