<svg width="25" height="26" viewBox="0 0 25 26" fill="none" xmlns="http://www.w3.org/2000/svg">
<path d="M21.3559 0H2.78555C2.04678 0 1.33826 0.293477 0.815871 0.81587C0.293478 1.33826 1.22821e-06 2.04678 1.22821e-06 2.78555V25.07C-0.000285941 25.2466 0.0497897 25.4196 0.144354 25.5687C0.238919 25.7178 0.37405 25.8369 0.533898 25.912C0.693746 25.987 0.871681 26.0149 1.04683 25.9924C1.22198 25.9699 1.38708 25.8979 1.52277 25.7849L6.49962 21.6345L10.9287 25.2928C11.2623 25.5708 11.6829 25.723 12.1172 25.723C12.5514 25.723 12.972 25.5708 13.3057 25.2928L17.6418 21.6345L22.6187 25.7849C22.7857 25.9234 22.996 25.9989 23.2129 25.9985C23.3475 25.9992 23.4805 25.9707 23.6029 25.9149C23.7641 25.8403 23.9005 25.7211 23.9959 25.5713C24.0914 25.4216 24.1419 25.2476 24.1415 25.07V2.78555C24.1415 2.04678 23.848 1.33826 23.3256 0.81587C22.8032 0.293477 22.0947 0 21.3559 0ZM18.5704 15.7848H5.57111C5.32485 15.7848 5.08868 15.687 4.91455 15.5128C4.74041 15.3387 4.64259 15.1025 4.64259 14.8563C4.64259 14.61 4.74041 14.3738 4.91455 14.1997C5.08868 14.0256 5.32485 13.9278 5.57111 13.9278H18.5704C18.8166 13.9278 19.0528 14.0256 19.2269 14.1997C19.401 14.3738 19.4989 14.61 19.4989 14.8563C19.4989 15.1025 19.401 15.3387 19.2269 15.5128C19.0528 15.687 18.8166 15.7848 18.5704 15.7848ZM18.5704 11.1422H5.57111C5.32485 11.1422 5.08868 11.0444 4.91455 10.8703C4.74041 10.6961 4.64259 10.46 4.64259 10.2137C4.64259 9.96743 4.74041 9.73126 4.91455 9.55713C5.08868 9.383 5.32485 9.28517 5.57111 9.28517H18.5704C18.8166 9.28517 19.0528 9.383 19.2269 9.55713C19.401 9.73126 19.4989 9.96743 19.4989 10.2137C19.4989 10.46 19.401 10.6961 19.2269 10.8703C19.0528 11.0444 18.8166 11.1422 18.5704 11.1422ZM18.5704 6.49962H5.57111C5.32485 6.49962 5.08868 6.4018 4.91455 6.22767C4.74041 6.05353 4.64259 5.81736 4.64259 5.57111C4.64259 5.32485 4.74041 5.08867 4.91455 4.91454C5.08868 4.74041 5.32485 4.64259 5.57111 4.64259H18.5704C18.8166 4.64259 19.0528 4.74041 19.2269 4.91454C19.401 5.08867 19.4989 5.32485 19.4989 5.57111C19.4989 5.81736 19.401 6.05353 19.2269 6.22767C19.0528 6.4018 18.8166 6.49962 18.5704 6.49962Z" fill="white"/>
</svg>
