<svg width="26" height="25" viewBox="0 0 26 25" fill="none" xmlns="http://www.w3.org/2000/svg">
<path d="M9.16344 24.9336C10.3351 24.9336 11.2849 23.9838 11.2849 22.8122C11.2849 21.6405 10.3351 20.6907 9.16344 20.6907C7.9918 20.6907 7.04199 21.6405 7.04199 22.8122C7.04199 23.9838 7.9918 24.9336 9.16344 24.9336Z" fill="white"/>
<path d="M20.1952 24.9336C21.3668 24.9336 22.3166 23.9838 22.3166 22.8122C22.3166 21.6405 21.3668 20.6907 20.1952 20.6907C19.0235 20.6907 18.0737 21.6405 18.0737 22.8122C18.0737 23.9838 19.0235 24.9336 20.1952 24.9336Z" fill="white"/>
<path d="M25.7962 3.20279C25.7171 3.1001 25.6156 3.01688 25.4994 2.95951C25.3832 2.90215 25.2554 2.87216 25.1258 2.87185H5.52365L5.14179 1.65838C5.09985 1.52809 5.02701 1.40988 4.92948 1.31383C4.83196 1.21779 4.71265 1.14676 4.58173 1.1068L1.10256 0.037595C0.995582 0.00472107 0.883176 -0.0067599 0.771759 0.00380784C0.660343 0.0143756 0.552099 0.0467849 0.453208 0.0991855C0.253488 0.205013 0.103988 0.385845 0.037596 0.6019C-0.0287958 0.817954 -0.0066409 1.05153 0.0991867 1.25125C0.205014 1.45097 0.385846 1.60047 0.601901 1.66687L3.6483 2.6003L7.53479 14.8792L6.1516 16.0163L6.04129 16.1266C5.69922 16.5227 5.50542 17.0254 5.49304 17.5486C5.48066 18.0718 5.65046 18.583 5.9734 18.9948C6.20469 19.2761 6.49859 19.4993 6.8316 19.6467C7.16461 19.794 7.52748 19.8614 7.89119 19.8434H22.054C22.279 19.8434 22.4949 19.754 22.654 19.5949C22.8131 19.4357 22.9025 19.2199 22.9025 18.9948C22.9025 18.7698 22.8131 18.5539 22.654 18.3948C22.4949 18.2357 22.279 18.1463 22.054 18.1463H7.75542C7.6577 18.1429 7.56249 18.1144 7.479 18.0636C7.3955 18.0127 7.32654 17.9411 7.27876 17.8558C7.23099 17.7705 7.20603 17.6743 7.20628 17.5766C7.20653 17.4788 7.232 17.3827 7.28021 17.2977L9.32528 15.6005H22.4188C22.6127 15.6062 22.8026 15.5453 22.957 15.4279C23.1114 15.3106 23.221 15.1439 23.2674 14.9556L25.9829 3.92408C26.0087 3.79758 26.0053 3.66685 25.9729 3.54185C25.9406 3.41686 25.8801 3.30089 25.7962 3.20279Z" fill="white"/>
</svg>
