<svg width="26" height="26" viewBox="0 0 26 26" fill="none" xmlns="http://www.w3.org/2000/svg">
<path d="M22.75 6.0723H2.4375V5.2598L20.3125 3.8298V5.2598H22.75V2.8223C22.75 1.0348 21.3021 -0.219696 19.5341 0.0321794L3.2175 2.36243C1.44788 2.61593 0 4.2848 0 6.0723V22.3223C0 23.1843 0.34241 24.0109 0.951903 24.6204C1.5614 25.2299 2.38805 25.5723 3.25 25.5723H22.75C23.612 25.5723 24.4386 25.2299 25.0481 24.6204C25.6576 24.0109 26 23.1843 26 22.3223V9.3223C26 8.46035 25.6576 7.6337 25.0481 7.02421C24.4386 6.41471 23.612 6.0723 22.75 6.0723ZM20.3125 17.4571C19.9923 17.4569 19.6752 17.3938 19.3795 17.2711C19.0837 17.1485 18.8149 16.9688 18.5886 16.7423C18.3622 16.5158 18.1827 16.247 18.0603 15.9511C17.9379 15.6552 17.8749 15.3381 17.875 15.0179C17.8751 14.6977 17.9383 14.3807 18.0609 14.0849C18.1836 13.7891 18.3632 13.5204 18.5897 13.294C18.8162 13.0677 19.0851 12.8882 19.381 12.7657C19.6768 12.6433 19.9939 12.5803 20.3141 12.5804C20.9608 12.5806 21.5809 12.8377 22.038 13.2952C22.4952 13.7526 22.7518 14.3729 22.7516 15.0196C22.7514 15.6662 22.4943 16.2863 22.0369 16.7435C21.5795 17.2006 20.9592 17.4573 20.3125 17.4571Z" fill="white"/>
</svg>
