<svg width="24" height="24" viewBox="0 0 24 24" fill="none" xmlns="http://www.w3.org/2000/svg">
<path d="M4.99295 12.9842C4.77572 12.984 4.56433 13.0545 4.39075 13.1851C4.21716 13.3157 4.09082 13.4993 4.03083 13.708C3.97084 13.9168 3.98047 14.1395 4.05825 14.3423C4.13603 14.5451 4.27774 14.7171 4.46195 14.8322L7.14995 17.5202C7.24286 17.613 7.35315 17.6867 7.47451 17.7369C7.59588 17.7871 7.72595 17.813 7.8573 17.8129C7.98865 17.8129 8.1187 17.7869 8.24004 17.7366C8.36137 17.6863 8.4716 17.6126 8.56445 17.5197C8.65729 17.4268 8.73093 17.3165 8.78115 17.1951C8.83137 17.0738 8.8572 16.9437 8.85715 16.8124C8.8571 16.681 8.83119 16.5509 8.78088 16.4296C8.73057 16.3083 8.65686 16.198 8.56395 16.1052L7.44295 14.9852H14.9929C15.2582 14.9852 15.5125 14.8798 15.7001 14.6923C15.8876 14.5048 15.9929 14.2504 15.9929 13.9852C15.9929 13.72 15.8876 13.4656 15.7001 13.2781C15.5125 13.0906 15.2582 12.9852 14.9929 12.9852H4.99295V12.9842ZM19.0069 11.0162C19.2242 11.0164 19.4356 10.9459 19.6091 10.8153C19.7827 10.6847 19.9091 10.5011 19.9691 10.2924C20.0291 10.0836 20.0194 9.86096 19.9416 9.65813C19.8639 9.45531 19.7222 9.28333 19.5379 9.1682L16.8499 6.4802C16.6623 6.29269 16.4079 6.18741 16.1426 6.1875C15.8773 6.18759 15.623 6.29306 15.4354 6.4807C15.2479 6.66834 15.1427 6.92279 15.1427 7.18806C15.1428 7.45333 15.2483 7.70769 15.4359 7.8952L16.5569 9.0152H9.00695C8.74173 9.0152 8.48738 9.12056 8.29984 9.3081C8.11231 9.49563 8.00695 9.74999 8.00695 10.0152C8.00695 10.2804 8.11231 10.5348 8.29984 10.7223C8.48738 10.9098 8.74173 11.0152 9.00695 11.0152H19.0069V11.0162Z" fill="#474747"/>
</svg>
