<svg width="27" height="26" viewBox="0 0 27 26" fill="none" xmlns="http://www.w3.org/2000/svg">
<path d="M8.96599 17.5293L6.52611 9.02258L2.2182 10.5769C-0.64223 11.6481 -0.13273 15.4148 0.464533 16.6471C1.80647 19.4196 4.26414 19.2586 5.32523 18.8315L8.96599 17.5293Z" fill="white"/>
<path d="M10.3574 17.1102L7.89844 8.51948C10.7348 7.51128 14.8496 3.08641 16.5524 1L21.2797 17.8873C17.1929 16.3918 12.2953 16.7461 10.3574 17.1102Z" fill="white"/>
<path d="M9.38527 18.9171L5.36328 20.3453L8.18439 24.7772C8.71812 25.567 9.41069 25.5544 9.69026 25.4493L12.6639 24.4201C13.5967 24.0421 13.1875 23.4119 12.5876 23.0129C11.7667 22.4668 11.2902 21.8996 11.0055 21.4796L9.38527 18.9171Z" fill="white"/>
<path d="M20.1172 4.94744C21.4451 5.68258 23.7427 8.19048 22.3093 12.3409M21.5277 1.94385C23.866 3.33012 27.8409 7.66117 25.0351 13.8952" stroke="white" stroke-width="2" stroke-linecap="round"/>
</svg>
