<svg width="23" height="26" viewBox="0 0 23 26" fill="none" xmlns="http://www.w3.org/2000/svg">
<path fill-rule="evenodd" clip-rule="evenodd" d="M0 2.6C0 1.91044 0.273928 1.24912 0.761522 0.761522C1.24912 0.273928 1.91044 0 2.6 0L15.997 0C16.5275 0 17.0362 0.210714 17.4113 0.585786L21.9475 5.12208C22.3226 5.49715 22.5333 6.00586 22.5333 6.53629V23.4C22.5333 24.0896 22.2594 24.7509 21.7718 25.2385C21.2842 25.7261 20.6229 26 19.9333 26H2.6C1.91044 26 1.24912 25.7261 0.761522 25.2385C0.273928 24.7509 0 24.0896 0 23.4V2.6ZM10.4 6.93333H5.2V8.66667H10.4V6.93333ZM17.3333 12.1333H5.2V13.8667H17.3333V12.1333ZM9.19533 18.9072C8.49507 19.0944 7.94733 19.63 7.75667 20.2072L6.11 19.6595C6.49653 18.5033 7.5088 17.5656 8.74467 17.2328C9.97013 16.9035 11.3689 17.1808 12.5788 18.2919C12.9428 18.1861 13.3016 18.1255 13.6569 18.1064C14.5929 18.0561 15.4301 18.2919 16.1495 18.5917C16.6781 18.8119 17.1895 19.0892 17.6228 19.3232C17.758 19.3995 17.888 19.4688 18.0076 19.5312C18.5675 19.8259 18.8743 19.9333 19.0667 19.9333V21.6667C18.3907 21.6667 17.7251 21.3408 17.2016 21.0669C17.0438 20.9837 16.8867 20.8993 16.7301 20.8139C16.3253 20.5848 15.9087 20.3771 15.4821 20.1916C14.9032 19.9489 14.3329 19.8068 13.7505 19.838C13.6635 19.8422 13.5768 19.8503 13.4905 19.8623L13.4923 19.8865C13.5391 20.4481 13.3068 20.9109 13.0069 21.2437C12.4557 21.8573 11.5561 22.1797 10.8801 22.3011C10.5299 22.3713 10.1707 22.3859 9.81587 22.3444C9.61462 22.3186 9.42032 22.2539 9.24387 22.1537C9.10666 22.0748 8.9885 21.9666 8.89774 21.8369C8.80698 21.7072 8.74585 21.5591 8.71867 21.4032C8.67603 21.1115 8.74472 20.8145 8.91107 20.5712C9.03694 20.3863 9.19005 20.2215 9.3652 20.0824C9.69453 19.8103 10.1712 19.5156 10.8108 19.1932L10.8576 19.1585C10.6118 19.0059 10.3375 18.9049 10.0514 18.8617C9.76538 18.8185 9.47524 18.834 9.19533 18.9072Z" fill="white"/>
</svg>
