<svg width="30" height="33" viewBox="0 0 30 33" fill="none" xmlns="http://www.w3.org/2000/svg">
<path d="M9.08669 13.7358C9.39954 15.647 10.9709 18.0795 13.552 18.9348C14.6114 19.2823 15.7704 19.289 16.8298 18.9282C19.3682 18.0661 20.9893 15.6404 21.3093 13.7358C21.6506 13.7091 22.0985 13.2614 22.582 11.6509C23.2433 9.45233 22.5394 9.12489 21.9421 9.17835C22.0559 8.87763 22.1412 8.57024 22.1981 8.2762C23.2078 2.576 20.2214 2.38221 20.2214 2.38221C20.2214 2.38221 19.7237 1.48675 18.4225 0.811813C17.5479 0.323987 16.3321 -0.0502344 14.7323 0.0767337C14.2132 0.0967813 13.7226 0.197019 13.2604 0.337353C12.6703 0.524464 12.1299 0.798448 11.6393 1.11921C11.042 1.47338 10.4732 1.91443 9.97548 2.41562C9.18623 3.17743 8.48231 4.15976 8.17657 5.38267C7.9206 6.29817 7.97748 7.25378 8.19079 8.28289C8.24767 8.5836 8.33299 8.88432 8.44676 9.18503C7.84949 9.13157 7.14557 9.45901 7.80683 11.6576C8.29744 13.2614 8.74539 13.7091 9.08669 13.7358Z" fill="white"/>
<path d="M26.9262 21.2136C23.2928 20.3449 20.3421 18.3936 20.3421 18.3936L18.0383 25.2432L17.6046 26.5329L17.5975 26.5128L17.2206 27.6088L16.0048 24.3677C18.9911 20.4518 15.4004 20.4919 15.2013 20.4986C15.0022 20.4919 11.4115 20.4518 14.3978 24.3677L13.182 27.6088L12.8051 26.5128L12.798 26.5329L12.3643 25.2432L10.0534 18.3936C10.0534 18.3936 7.10267 20.3449 3.46931 21.2136C0.76028 21.8618 0.632294 24.8021 0.738949 26.2522C0.738949 26.2522 0.895376 28.2236 1.0518 29.0923C1.0518 29.0923 6.34187 32.32 15.2013 32.3266C24.0607 32.3266 29.3508 29.0923 29.3508 29.0923C29.5072 28.2236 29.6637 26.2522 29.6637 26.2522C29.7632 24.8021 29.6352 21.8618 26.9262 21.2136Z" fill="white"/>
</svg>
