<svg width="23" height="25" viewBox="0 0 23 25" fill="none" xmlns="http://www.w3.org/2000/svg">
<path d="M21.9179 4.16665H19.8346H16.7096V1.04165C16.7096 0.46665 16.244 0 15.6679 0H7.33462C6.75859 0 6.29297 0.46665 6.29297 1.04165V4.16665H3.16797H1.08462C0.508594 4.16665 0.0429688 4.6333 0.0429688 5.2083C0.0429688 5.7833 0.508545 6.25 1.08462 6.25H2.12627V21.875C2.12627 23.5979 3.52837 25 5.25127 25H17.7513C19.4742 25 20.8763 23.5979 20.8763 21.875V6.25H21.9179C22.4939 6.25 22.9596 5.78335 22.9596 5.20835C22.9596 4.63335 22.494 4.16665 21.9179 4.16665ZM8.37627 2.08335H14.6263V4.1667H8.37627V2.08335ZM18.7929 21.875C18.7929 22.449 18.3263 22.9167 17.7513 22.9167H5.25127C4.67627 22.9167 4.20962 22.4489 4.20962 21.875V6.25H7.33462H15.668H18.793V21.875H18.7929Z" fill="#474747"/>
<path d="M8.37368 8.33398C7.79766 8.33398 7.33203 8.80063 7.33203 9.37563V18.7506C7.33203 19.3256 7.79766 19.7923 8.37368 19.7923C8.94971 19.7923 9.41533 19.3256 9.41533 18.7506V9.37563C9.41533 8.80063 8.94971 8.33398 8.37368 8.33398Z" fill="#474747"/>
<path d="M14.6237 8.33398C14.0477 8.33398 13.582 8.80063 13.582 9.37563V18.7506C13.582 19.3256 14.0477 19.7923 14.6237 19.7923C15.1997 19.7923 15.6653 19.3256 15.6653 18.7506V9.37563C15.6653 8.80063 15.1997 8.33398 14.6237 8.33398Z" fill="#474747"/>
</svg>
