<svg width="15" height="14" viewBox="0 0 15 14" fill="none" xmlns="http://www.w3.org/2000/svg">
<path d="M9.20153 2.54102L1.84559 9.89748C1.80859 9.93459 1.78186 9.98146 1.76914 10.0318L0.953805 13.3044C0.929416 13.4029 0.958365 13.5077 1.03026 13.5796C1.08466 13.634 1.15878 13.6641 1.2346 13.6641C1.25782 13.6641 1.28157 13.6612 1.30469 13.6554L4.57727 12.84C4.62827 12.8272 4.67461 12.8006 4.71162 12.7636L12.0682 5.40768L9.20153 2.54102Z" fill="white"/>
<path d="M13.8906 1.53817L13.0717 0.719334C12.5245 0.172066 11.5707 0.172596 11.024 0.719334L10.021 1.72236L12.8876 4.58891L13.8906 3.58589C14.1639 3.31263 14.3145 2.94891 14.3145 2.56208C14.3145 2.17525 14.1639 1.81154 13.8906 1.53817Z" fill="white"/>
</svg>
