<svg width="53" height="60" viewBox="0 0 53 60" fill="none" xmlns="http://www.w3.org/2000/svg">
<path d="M0 15.0509L4.74482 19.8967C16.2132 0.109776 33.4156 6.20064 40.5834 11.7194L45.2272 7.07557C22.2906 -8.83472 5.5188 5.76317 0 15.0509Z" fill="#A2C11B"/>
<path d="M39.5737 12.729C21.7251 0.776074 9.65781 13.402 5.85522 21.2091C16.6775 12.2444 23.4212 13.503 25.4402 15.2528C25.3595 33.1014 16.5227 43.7554 12.1143 46.8513C28.0246 59.5311 41.3572 46.683 46.0348 38.6741C36.0202 46.9119 28.8726 46.0773 26.5507 44.6303C26.3084 27.9932 35.1318 16.4306 39.5737 12.729Z" fill="url(#paint0_linear_778_624)"/>
<path d="M6.96582 52.8076L11.6097 48.2647C29.5391 61.3482 42.9726 47.5916 47.4482 39.0779L52.193 43.9237C36.0405 67.9102 15.3113 59.8407 6.96582 52.8076Z" fill="#478C05"/>
<defs>
<linearGradient id="paint0_linear_778_624" x1="25.945" y1="7.81287" x2="25.945" y2="52.1909" gradientUnits="userSpaceOnUse">
<stop stop-color="#21B8F7"/>
<stop offset="1" stop-color="#0396D3"/>
</linearGradient>
</defs>
</svg>
