<svg width="98" height="98" viewBox="0 0 98 98" fill="none" xmlns="http://www.w3.org/2000/svg">
<path d="M49 98C76.062 98 98 76.062 98 49C98 21.938 76.062 0 49 0C21.938 0 0 21.938 0 49C0 76.062 21.938 98 49 98Z" fill="#E24C4B"/>
<path d="M71.356 71.3563C69.5186 73.1937 66.4559 73.1937 64.6185 71.3563L48.9999 55.7376L33.3812 71.3563C31.5438 73.1937 28.4811 73.1937 26.6437 71.3563C24.8063 69.5188 24.8063 66.4562 26.6437 64.6187L42.2623 49.0001L26.6437 33.3814C24.8063 31.544 24.8063 28.4814 26.6437 26.6439C28.4811 24.8065 31.5438 24.8065 33.3812 26.6439L48.9999 42.2626L64.6185 26.6439C66.4559 24.8065 69.5186 24.8065 71.356 26.6439C73.1934 28.4814 73.1934 31.544 71.356 33.3814L55.7374 49.0001L71.356 64.6187C73.1934 66.4562 73.1934 69.5186 71.356 71.3563Z" fill="white"/>
</svg>
