<svg width="587" height="295" viewBox="0 0 587 295" fill="none" xmlns="http://www.w3.org/2000/svg">
<mask id="mask0_3073_29984" style="mask-type:alpha" maskUnits="userSpaceOnUse" x="0" y="0" width="587" height="295">
<rect width="586.596" height="295" fill="#D9D9D9"/>
</mask>
<g mask="url(#mask0_3073_29984)">
<path d="M303.967 92.6909H295.436V94.7625H303.967V92.6909Z" fill="#E0E0E0"/>
<path d="M407.901 48.2329H366.115V137.665H407.901V48.2329Z" fill="#F5F5F5"/>
<path d="M460.971 143.921H409.631V230.328H460.971V143.921Z" fill="#F5F5F5"/>
<path d="M467.213 46.693H515.964V-32.6403H517.694V46.693H562.819V-34.3984H467.213V46.693Z" fill="#F5F5F5"/>
<path d="M407.901 143.921H366.115V230.328H407.901V143.921Z" fill="#F5F5F5"/>
<path d="M562.806 143.921H517.695V230.328H562.806V143.921Z" fill="#F5F5F5"/>
<path d="M460.971 48.2329H409.631V137.665H460.971V48.2329Z" fill="#F5F5F5"/>
<path d="M562.806 48.2329H517.695V137.665H562.806V48.2329Z" fill="#F5F5F5"/>
<path d="M407.901 231.881H366.115V309.743H407.901V231.881Z" fill="#F5F5F5"/>
<path d="M407.888 46.693V-32.6403H409.632V46.693H460.972V-34.3984H366.115V46.693H407.888Z" fill="#F5F5F5"/>
<path d="M460.971 231.881H409.631V309.743H460.971V231.881Z" fill="#F5F5F5"/>
<path d="M562.806 231.881H517.695V309.743H562.806V231.881Z" fill="#F5F5F5"/>
<path d="M515.964 48.2329H467.213V137.665H515.964V48.2329Z" fill="#F5F5F5"/>
<path d="M515.964 231.881H467.213V309.743H515.964V231.881Z" fill="#F5F5F5"/>
<path d="M515.964 143.921H467.213V230.328H515.964V143.921Z" fill="#F5F5F5"/>
<path d="M84.6795 48.2329H42.8936V137.665H84.6795V48.2329Z" fill="#F5F5F5"/>
<path d="M137.75 143.921H86.4102V230.328H137.75V143.921Z" fill="#F5F5F5"/>
<path d="M143.992 46.693H192.742V-32.6403H194.487V46.693H239.598V-34.3984H143.992V46.693Z" fill="#F5F5F5"/>
<path d="M84.6795 143.921H42.8936V230.328H84.6795V143.921Z" fill="#F5F5F5"/>
<path d="M239.598 143.921H194.486V230.328H239.598V143.921Z" fill="#F5F5F5"/>
<path d="M137.75 48.2329H86.4102V137.665H137.75V48.2329Z" fill="#F5F5F5"/>
<path d="M239.598 48.2329H194.486V137.665H239.598V48.2329Z" fill="#F5F5F5"/>
<path d="M84.6795 231.881H42.8936V309.743H84.6795V231.881Z" fill="#F5F5F5"/>
<path d="M84.6795 46.693V-32.6403H86.4104V46.693H137.75V-34.3984H42.8936V46.693H84.6795Z" fill="#F5F5F5"/>
<path d="M137.75 231.881H86.4102V309.743H137.75V231.881Z" fill="#F5F5F5"/>
<path d="M239.598 231.881H194.486V309.743H239.598V231.881Z" fill="#F5F5F5"/>
<path d="M192.742 48.2329H143.992V137.665H192.742V48.2329Z" fill="#F5F5F5"/>
<path d="M192.742 231.881H143.992V309.743H192.742V231.881Z" fill="#F5F5F5"/>
<path d="M192.742 143.921H143.992V230.328H192.742V143.921Z" fill="#F5F5F5"/>
<path d="M430.116 266.73C428.42 265.477 426.33 264.877 424.228 265.04C424.228 263.895 424.228 263.2 424.228 263.2H392.064C392.064 263.2 391.056 284.42 407.301 285.17C414.579 285.511 418.736 282.253 421.121 278.151C422.318 278.435 423.543 278.586 424.773 278.601C426.569 278.68 428.342 278.178 429.829 277.17C430.649 276.528 431.298 275.696 431.721 274.746C432.144 273.795 432.327 272.756 432.255 271.718C432.3 270.779 432.131 269.842 431.76 268.978C431.39 268.113 430.827 267.345 430.116 266.73ZM427.908 274.621C426.545 275.643 424.078 275.493 422.456 275.207C423.266 272.95 423.792 270.602 424.024 268.216C425.432 268.053 426.854 268.385 428.044 269.156C428.393 269.479 428.663 269.879 428.833 270.323C429.003 270.767 429.069 271.245 429.025 271.718C429.089 272.256 429.02 272.802 428.825 273.308C428.631 273.814 428.316 274.264 427.908 274.621Z" fill="#9FA8ED"/>
<path d="M414.783 261.265C414.943 261.026 415.037 260.749 415.055 260.461C415.006 260.051 414.856 259.659 414.618 259.322C414.38 258.984 414.062 258.71 413.692 258.526C413.15 258.263 412.578 258.066 411.989 257.94C411.246 257.778 410.545 257.462 409.931 257.013C409.591 256.717 409.321 256.35 409.14 255.938C408.959 255.525 408.87 255.078 408.881 254.628C408.883 253.636 409.162 252.664 409.685 251.821C410.789 250.035 412.779 248.904 414.183 247.132C414.889 246.163 415.361 245.043 415.562 243.861C415.763 242.679 415.687 241.466 415.341 240.318C415.003 239.07 414.351 237.93 413.447 237.006C412.423 236.104 411.264 235.369 410.013 234.825C408.615 234.25 407.369 233.359 406.374 232.222C405.898 231.585 405.572 230.849 405.42 230.069C405.238 229.248 405.348 228.39 405.733 227.643C405.947 227.258 406.251 226.931 406.619 226.689L406.987 227.302C405.819 228.029 404.898 229.093 404.346 230.353C403.794 231.613 403.636 233.01 403.893 234.362C404.115 235.645 404.746 236.821 405.692 237.715C406.756 238.529 407.697 239.493 408.486 240.577C408.82 241.185 408.98 241.873 408.949 242.567C408.929 243.253 408.747 243.926 408.418 244.529C407.817 245.598 406.966 246.505 405.937 247.173C403.961 248.427 401.931 249.054 400.418 250.199C399.734 250.686 399.164 251.317 398.748 252.046C398.331 252.776 398.078 253.587 398.006 254.424C397.877 255.699 398.099 256.985 398.646 258.144C399.146 259.121 399.858 259.973 400.731 260.638L400.527 260.543C400.341 260.438 400.164 260.32 399.995 260.189C399.329 259.673 398.784 259.017 398.401 258.267C397.785 257.07 397.516 255.725 397.624 254.383C397.683 253.538 397.91 252.713 398.292 251.957C398.735 251.114 399.359 250.378 400.118 249.803C401.685 248.577 403.771 247.895 405.57 246.696C406.504 246.065 407.279 245.225 407.832 244.243C408.116 243.745 408.266 243.181 408.266 242.607C408.266 242.034 408.116 241.47 407.832 240.972C407.05 239.945 406.133 239.028 405.106 238.246C404.05 237.251 403.355 235.932 403.13 234.498C402.847 233.004 403.024 231.459 403.637 230.067C404.251 228.676 405.271 227.503 406.564 226.703L406.919 227.316C406.651 227.495 406.428 227.733 406.265 228.011C406.015 228.645 405.939 229.334 406.044 230.007C406.149 230.68 406.433 231.313 406.864 231.841C407.798 232.883 408.953 233.702 410.244 234.239C411.56 234.814 412.774 235.596 413.842 236.556C414.823 237.564 415.527 238.808 415.887 240.168C416.24 241.412 416.3 242.722 416.064 243.994C415.828 245.266 415.3 246.466 414.524 247.5C412.984 249.367 411.021 250.458 409.999 252.079C408.977 253.701 408.881 255.746 410.067 256.713C411.253 257.681 412.793 257.654 413.72 258.281C414.117 258.494 414.452 258.807 414.691 259.19C414.93 259.572 415.065 260.01 415.082 260.461C415.07 260.693 414.989 260.915 414.851 261.102C414.851 261.224 414.796 261.265 414.783 261.265Z" fill="#263238"/>
<path d="M214.288 93.0039H57.4617C55.0305 93.0039 53.0596 94.9748 53.0596 97.406V135.035C53.0596 137.466 55.0305 139.437 57.4617 139.437H214.288C216.72 139.437 218.691 137.466 218.691 135.035V97.406C218.691 94.9748 216.72 93.0039 214.288 93.0039Z" fill="#9FA8ED"/>
<path d="M87.9767 123.968C86.7275 125.522 85.0455 126.671 83.1434 127.27C81.2413 127.869 79.2044 127.89 77.2901 127.331C75.3759 126.773 73.6702 125.659 72.3887 124.131C71.1071 122.603 70.3073 120.73 70.0902 118.748C69.8731 116.765 70.2486 114.763 71.1691 112.994C72.0896 111.225 73.5138 109.769 75.2618 108.809C77.0097 107.85 79.003 107.43 80.9896 107.602C82.9762 107.775 84.867 108.533 86.423 109.78C87.4573 110.609 88.3181 111.634 88.9561 112.796C89.594 113.958 89.9967 115.234 90.141 116.552C90.2853 117.87 90.1684 119.203 89.797 120.475C89.4257 121.748 88.8071 122.935 87.9767 123.968Z" fill="white"/>
<path d="M85.7824 114.223C84.1378 116.318 82.3137 118.265 80.3308 120.043C79.8674 120.479 79.4177 120.901 78.9679 121.324L78.7226 121.569L78.4773 121.324C76.9653 119.942 75.5956 118.413 74.3887 116.758C76.0433 117.965 77.5729 119.335 78.9543 120.847H78.4637L79.8266 119.484C81.6538 117.559 83.6467 115.799 85.7824 114.223Z" fill="#9FA8ED"/>
<path d="M202.541 112.82C202.541 113.01 181.484 113.174 155.508 113.174C129.531 113.174 108.488 113.01 108.488 112.82C108.488 112.629 129.531 112.465 155.508 112.465C181.484 112.465 202.541 112.615 202.541 112.82Z" fill="white"/>
<path d="M163.957 122.005C163.957 122.196 151.786 122.36 136.781 122.36C121.776 122.36 109.523 122.196 109.523 122.005C109.523 121.814 121.694 121.651 136.781 121.651C151.868 121.651 163.957 121.869 163.957 122.005Z" fill="white"/>
<path d="M214.288 146.116H57.4617C55.0305 146.116 53.0596 148.087 53.0596 150.518V188.147C53.0596 190.578 55.0305 192.549 57.4617 192.549H214.288C216.72 192.549 218.691 190.578 218.691 188.147V150.518C218.691 148.087 216.72 146.116 214.288 146.116Z" fill="#9FA8ED"/>
<path d="M87.9767 177.08C86.7275 178.634 85.0455 179.783 83.1434 180.382C81.2413 180.98 79.2044 181.002 77.2901 180.443C75.3759 179.884 73.6702 178.771 72.3887 177.243C71.1071 175.715 70.3073 173.842 70.0902 171.859C69.8731 169.877 70.2486 167.875 71.1691 166.106C72.0896 164.337 73.5138 162.881 75.2618 161.921C77.0097 160.961 79.003 160.541 80.9896 160.714C82.9762 160.887 84.867 161.645 86.423 162.892C88.5089 164.568 89.8441 167.004 90.1354 169.664C90.4267 172.324 89.6503 174.991 87.9767 177.08Z" fill="white"/>
<path d="M85.7824 167.349C84.1395 169.441 82.3152 171.384 80.3308 173.155L78.9679 174.518L78.7226 174.75L78.4773 174.504C76.9653 173.123 75.5956 171.593 74.3887 169.939C76.0405 171.149 77.5696 172.519 78.9543 174.027H78.4637L79.8266 172.664C81.647 170.716 83.6404 168.937 85.7824 167.349Z" fill="#9FA8ED"/>
<path d="M202.541 165.931C202.541 166.136 181.484 166.286 155.508 166.286C129.531 166.286 108.488 166.136 108.488 165.931C108.488 165.727 129.531 165.577 155.508 165.577C181.484 165.577 202.541 165.741 202.541 165.931Z" fill="white"/>
<path d="M163.957 175.117C163.957 175.321 151.786 175.471 136.781 175.471C121.776 175.471 109.523 175.321 109.523 175.117C109.523 174.913 121.694 174.763 136.781 174.763C151.868 174.763 163.957 174.926 163.957 175.117Z" fill="white"/>
<path d="M214.288 199.24H57.4617C55.0305 199.24 53.0596 201.211 53.0596 203.642V241.271C53.0596 243.703 55.0305 245.674 57.4617 245.674H214.288C216.72 245.674 218.691 243.703 218.691 241.271V203.642C218.691 201.211 216.72 199.24 214.288 199.24Z" fill="#9FA8ED"/>
<path d="M87.9767 230.205C86.7275 231.759 85.0455 232.908 83.1434 233.507C81.2413 234.105 79.2044 234.127 77.2901 233.568C75.3759 233.009 73.6702 231.896 72.3887 230.368C71.1071 228.84 70.3073 226.967 70.0902 224.984C69.8731 223.002 70.2486 221 71.1691 219.231C72.0896 217.462 73.5138 216.006 75.2618 215.046C77.0097 214.086 79.003 213.666 80.9896 213.839C82.9762 214.012 84.867 214.77 86.423 216.017C87.4573 216.846 88.3181 217.871 88.9561 219.033C89.594 220.195 89.9967 221.471 90.141 222.789C90.2853 224.106 90.1684 225.44 89.797 226.712C89.4257 227.985 88.8071 229.171 87.9767 230.205Z" fill="white"/>
<path d="M85.7824 220.46C84.1459 222.562 82.3212 224.509 80.3308 226.279L78.9679 227.561L78.7226 227.806L78.4773 227.561C76.9653 226.179 75.5956 224.65 74.3887 222.995C76.0433 224.202 77.5729 225.572 78.9543 227.084H78.4637L79.8266 225.721C81.6538 223.796 83.6467 222.036 85.7824 220.46Z" fill="#9FA8ED"/>
<path d="M202.541 219.056C202.541 219.247 181.484 219.411 155.508 219.411C129.531 219.411 108.488 219.247 108.488 219.056C108.488 218.866 129.531 218.702 155.508 218.702C181.484 218.702 202.541 218.866 202.541 219.056Z" fill="white"/>
<path d="M163.957 228.242C163.957 228.433 151.786 228.596 136.781 228.596C121.776 228.596 109.523 228.433 109.523 228.242C109.523 228.051 121.694 227.888 136.781 227.888C151.868 227.888 163.957 228.051 163.957 228.242Z" fill="white"/>
<path d="M361.876 251.261C361.876 251.261 392.486 249.517 389.433 284.938C386.381 320.359 384.622 356.285 373.242 368.551C361.862 380.817 247.271 381.239 237.649 371.181C228.027 361.123 256.021 361.559 261.268 361.559C266.515 361.559 298.884 364.612 309.378 337.028C319.872 309.443 317.255 249.517 361.876 251.261Z" fill="#263238"/>
<path d="M363.838 251.344C363.838 251.344 387.238 256.141 385.058 280.632C382.877 305.123 376.744 347.999 365.364 358.93C353.984 369.86 309.486 372.245 285.322 370.746C257.329 368.988 239.666 363.659 239.666 363.659C239.666 363.659 234.555 366.943 236.095 369.11C237.635 371.277 251.291 379.741 317.459 378.323C383.627 376.906 379.034 367.148 381.773 356.517C384.513 345.887 390.291 289 389.487 276.503C388.683 264.005 382.387 253.47 363.838 251.344Z" fill="#455A64"/>
<path d="M298.093 147.396C301.775 146.126 305.774 146.106 309.469 147.338C313.165 148.57 316.351 150.985 318.536 154.21C321.493 158.79 322.188 164.541 325.2 169.079C327.34 172.282 330.502 174.64 333.119 177.475C335.735 180.31 337.875 184.057 337.207 187.86C336.58 191.417 333.568 194.579 334.168 198.15C334.74 201.489 338.257 203.669 339.006 206.995C339.81 210.906 336.049 214.559 332.096 215.172C328.144 215.785 324.219 214.259 320.498 212.787C316.778 211.315 312.825 209.843 308.887 210.552C304.321 211.383 300.818 214.968 296.825 217.366C292.615 219.772 287.795 220.9 282.955 220.612C278.114 220.324 273.463 218.632 269.567 215.744C266.569 213.441 263.939 209.87 264.675 206.204C265.356 202.743 268.763 200.344 269.663 196.95C271.108 191.908 266.937 186.756 267.55 181.536C268.395 174.531 277.091 171.328 280.198 165.004C281.711 161.965 281.847 158.422 283.169 155.301C284.491 152.18 287.98 149.399 291.087 150.735" fill="#263238"/>
<path d="M295.149 211.152C295.599 208.658 294.795 198.164 294.795 198.164C294.795 198.164 285.5 196.992 285.091 187.493C284.682 177.994 285.636 156.147 285.636 156.147L302.768 147.969L317.759 165.005L318.046 211.057L295.149 211.152Z" fill="#FFBE9D"/>
<path d="M286.895 174.004C286.897 174.236 286.968 174.463 287.099 174.656C287.23 174.848 287.414 174.998 287.63 175.086C287.845 175.175 288.082 175.198 288.31 175.153C288.538 175.108 288.748 174.996 288.914 174.833C289.079 174.669 289.193 174.46 289.241 174.233C289.288 174.005 289.268 173.768 289.182 173.552C289.096 173.335 288.948 173.149 288.757 173.016C288.566 172.883 288.34 172.81 288.107 172.804C287.788 172.804 287.482 172.93 287.255 173.155C287.027 173.379 286.898 173.684 286.895 174.004Z" fill="#263238"/>
<path d="M286.085 170.77C286.235 170.933 287.135 170.184 288.402 170.129C289.67 170.075 290.624 170.729 290.76 170.552C290.896 170.375 290.678 170.184 290.256 169.884C289.703 169.499 289.038 169.307 288.365 169.339C287.692 169.371 287.049 169.625 286.535 170.061C286.14 170.388 286.017 170.702 286.085 170.77Z" fill="#263238"/>
<path d="M301.069 174.117C301.051 174.282 301.069 174.45 301.12 174.608C301.171 174.766 301.255 174.912 301.366 175.036C301.477 175.16 301.613 175.259 301.765 175.327C301.917 175.394 302.082 175.429 302.248 175.429C302.415 175.429 302.579 175.394 302.731 175.327C302.883 175.259 303.019 175.16 303.13 175.036C303.242 174.912 303.325 174.766 303.377 174.608C303.428 174.45 303.445 174.282 303.427 174.117C303.445 173.951 303.428 173.784 303.377 173.626C303.325 173.467 303.242 173.321 303.13 173.198C303.019 173.074 302.883 172.975 302.731 172.907C302.579 172.839 302.415 172.804 302.248 172.804C302.082 172.804 301.917 172.839 301.765 172.907C301.613 172.975 301.477 173.074 301.366 173.198C301.255 173.321 301.171 173.467 301.12 173.626C301.069 173.784 301.051 173.951 301.069 174.117Z" fill="#263238"/>
<path d="M300.205 171.015C300.355 171.179 301.255 170.429 302.522 170.375C303.79 170.32 304.744 170.974 304.88 170.797C305.016 170.62 304.798 170.429 304.376 170.129C303.826 169.746 303.165 169.554 302.495 169.584C301.821 169.616 301.176 169.865 300.655 170.293C300.273 170.633 300.137 170.933 300.205 171.015Z" fill="#263238"/>
<path d="M295.421 181.973C294.748 181.773 294.051 181.667 293.349 181.659C293.022 181.659 292.709 181.577 292.654 181.346C292.624 180.984 292.694 180.62 292.858 180.296C293.145 179.451 293.458 178.552 293.772 177.571C294.626 175.279 295.314 172.929 295.83 170.538C294.798 172.741 293.937 175.019 293.254 177.352C292.954 178.307 292.654 179.206 292.368 180.078C292.178 180.506 292.13 180.984 292.231 181.441C292.275 181.561 292.347 181.669 292.443 181.755C292.538 181.84 292.652 181.901 292.777 181.932C292.957 181.957 293.141 181.957 293.322 181.932C294.016 182.046 294.723 182.06 295.421 181.973Z" fill="#263238"/>
<path d="M294.795 198.19C299.194 198.047 303.456 196.626 307.061 194.102C307.061 194.102 304.172 201.025 294.904 200.466L294.795 198.19Z" fill="#EB996E"/>
<path d="M295.371 189.192C295.506 188.806 295.733 188.459 296.032 188.181C296.332 187.902 296.695 187.702 297.09 187.596C297.363 187.516 297.65 187.496 297.931 187.537C298.213 187.577 298.482 187.678 298.722 187.832C298.95 187.99 299.125 188.214 299.223 188.474C299.321 188.735 299.337 189.019 299.268 189.288C299.147 189.592 298.936 189.852 298.664 190.034C298.392 190.215 298.071 190.311 297.744 190.307C297.104 190.299 296.473 190.161 295.888 189.901C295.721 189.849 295.564 189.766 295.428 189.655C295.361 189.598 295.313 189.523 295.288 189.438C295.264 189.354 295.265 189.264 295.29 189.181" fill="#EB996E"/>
<path d="M299.477 187.247C299.548 187.288 299.503 187.658 299.155 188.165C298.67 188.832 297.958 189.3 297.153 189.481C296.354 189.662 295.517 189.543 294.8 189.146C294.261 188.827 294.04 188.505 294.105 188.449C294.17 188.392 295.424 189.136 296.996 188.785C298.567 188.434 299.309 187.131 299.477 187.247Z" fill="#263238"/>
<path d="M284.859 155.069C285.2 157.82 286.533 160.353 288.608 162.192C290.683 164.031 293.357 165.05 296.13 165.059L293.554 159.389C295.844 162.047 298.215 164.841 301.363 166.367C304.512 167.894 308.614 168.139 311.285 165.849C312.157 168.18 312.144 170.756 312.948 173.1C313.752 175.444 315.674 185.148 318.072 184.766C320.471 184.384 321.929 174.667 322.502 172.5C323.19 169.419 323.145 166.219 322.371 163.159C321.597 160.098 320.115 157.262 318.045 154.878C315.605 152.033 312.538 149.794 309.085 148.337C305.632 146.88 301.887 146.245 298.147 146.483C294.812 146.63 291.596 147.763 288.907 149.74C286.609 151.573 285.008 154.136 284.368 157.004" fill="#263238"/>
<path d="M272.13 197.863C271.905 197.849 271.684 197.798 271.476 197.713C270.87 197.53 270.285 197.283 269.731 196.977C267.649 195.866 265.927 194.183 264.77 192.126C263.874 190.607 263.33 188.906 263.179 187.148C263.028 185.391 263.274 183.622 263.898 181.972C264.637 180.022 265.828 178.275 267.373 176.875C269.031 175.368 271.065 174.336 273.261 173.89C274.28 173.746 275.231 173.294 275.987 172.596C276.623 171.825 276.991 170.868 277.036 169.87C277.2 167.866 276.409 165.917 276.191 163.955C275.953 162.066 276.341 160.151 277.295 158.503C278.133 157.076 279.357 155.914 280.825 155.151C282.188 154.456 283.401 154.006 284.45 153.542C285.37 153.185 286.247 152.728 287.067 152.18C287.738 151.681 288.339 151.094 288.852 150.435C288.777 150.645 288.671 150.842 288.539 151.021C288.167 151.551 287.706 152.012 287.176 152.384C286.364 152.986 285.486 153.494 284.559 153.897C283.51 154.387 282.27 154.878 281.016 155.573C279.649 156.318 278.52 157.432 277.759 158.79C276.876 160.333 276.531 162.126 276.777 163.887C276.995 165.754 277.827 167.703 277.677 169.938C277.631 171.099 277.2 172.212 276.45 173.1C275.597 173.907 274.518 174.435 273.357 174.613C271.35 175.035 269.482 175.954 267.923 177.285C266.363 178.616 265.162 180.316 264.43 182.231C263.827 183.796 263.577 185.474 263.697 187.147C263.817 188.819 264.305 190.445 265.125 191.908C266.213 193.919 267.823 195.599 269.786 196.773C271.23 197.563 272.13 197.795 272.13 197.863Z" fill="#263238"/>
<path d="M333.828 210.348C333.828 210.348 334.632 209.802 336.036 208.794C338.068 207.448 339.683 205.559 340.697 203.342C341.317 201.803 341.412 200.103 340.969 198.504C340.723 197.639 340.253 196.854 339.606 196.228C338.87 195.583 338.055 195.033 337.18 194.593C336.174 194.052 335.326 193.259 334.719 192.291C334.112 191.323 333.767 190.214 333.719 189.073C333.623 186.606 335.15 184.562 335.695 182.368C336.16 180.162 335.796 177.862 334.673 175.908C333.635 174.046 332.246 172.403 330.584 171.069C327.463 168.453 324.206 166.531 321.957 164.255C320.104 162.561 318.723 160.415 317.95 158.027C317.764 157.374 317.654 156.701 317.623 156.023C317.588 155.788 317.588 155.549 317.623 155.314C317.736 156.204 317.918 157.084 318.168 157.945C319.021 160.236 320.425 162.282 322.257 163.901C324.492 166.04 327.708 167.88 330.952 170.538C332.673 171.917 334.113 173.615 335.191 175.54C336.411 177.643 336.805 180.126 336.294 182.504C335.668 184.889 334.209 186.852 334.318 189.019C334.352 190.077 334.67 191.108 335.238 192.002C335.806 192.896 336.604 193.622 337.548 194.102C338.467 194.575 339.323 195.161 340.097 195.847C340.8 196.56 341.307 197.442 341.569 198.409C342.016 200.128 341.892 201.946 341.214 203.588C340.64 204.912 339.801 206.104 338.748 207.09C337.956 207.834 337.098 208.505 336.185 209.094C335.449 209.571 334.823 209.911 334.455 210.116C334.257 210.22 334.046 210.298 333.828 210.348Z" fill="#263238"/>
<path d="M284.546 166.435C285.863 165.341 286.791 163.849 287.19 162.183C287.578 160.525 287.784 158.83 287.803 157.127C287.803 156.636 287.803 155.996 287.285 155.873C286.767 155.75 286.44 156.214 286.222 156.636C284.556 159.791 283.967 163.405 284.546 166.926L284.845 166.64" fill="#263238"/>
<path d="M356.629 254.968L351.749 230.437C348.206 210.457 320.131 209.094 320.131 209.094L298.025 208.726C298.025 208.726 281.67 206.532 271.598 217.898C261.172 229.66 248.348 243.575 248.348 243.575L258.133 268.202L281.302 249.122C279.365 252.521 278.297 256.346 278.195 260.256C278.195 266.785 285.009 269.797 285.009 269.797L287.122 289.599L280.307 321.668L352.281 318.779C351.066 308.022 347.427 297.682 341.637 288.536L343 254.968H356.629Z" fill="#9FA8ED"/>
<path d="M325.787 227.534C325.98 228.038 326.108 228.565 326.168 229.101C326.4 230.26 326.673 231.691 327.013 233.395C327.749 237.183 328.703 242.117 329.739 247.569C330.775 253.02 331.702 258.145 332.274 261.797C332.574 263.623 332.778 265.109 332.901 266.131C332.999 266.661 333.031 267.201 332.997 267.739C332.816 267.232 332.693 266.706 332.629 266.172C332.397 265.013 332.111 263.582 331.784 261.879C331.048 258.09 330.094 253.156 329.058 247.705C328.022 242.253 327.095 237.142 326.523 233.476C326.223 231.65 326.019 230.178 325.896 229.142C325.807 228.611 325.771 228.073 325.787 227.534Z" fill="#263238"/>
<path d="M357.051 253.688C352.628 254.067 348.187 254.203 343.749 254.097C339.313 254.228 334.872 254.123 330.447 253.783C334.871 253.413 339.311 253.281 343.749 253.388C348.185 253.257 352.625 253.357 357.051 253.688Z" fill="#263238"/>
<path d="M359.791 275.875C358.428 264.127 356.479 254.069 356.479 254.069H330.993C330.993 254.069 334.155 269.061 333.46 272.468C332.833 275.48 283.456 277.47 270.59 277.674C269.813 277.102 268.709 278.07 267.714 277.197C266.836 276.418 266.094 275.496 265.52 274.472C264.761 273.229 264.17 271.89 263.762 270.492C263.714 270.23 263.59 269.988 263.406 269.796C263.222 269.604 262.985 269.47 262.726 269.41C262.467 269.351 262.195 269.369 261.946 269.462C261.697 269.555 261.48 269.719 261.322 269.933C260.805 271.037 261.391 274.703 263.83 278.247C266.27 281.79 259.864 279.95 257.52 279.324C255.176 278.697 247.816 277.102 247.067 277.688C245.949 278.547 246.644 279.923 249.002 280.496C251.36 281.068 258.324 283.221 257.943 284.584C257.561 285.947 245.677 282.445 245.677 282.445C245.677 282.445 243.251 281.313 242.76 282.744C241.888 285.334 254.794 287.951 256.035 288.196C256.893 288.359 256.525 289.736 255.612 289.559C254.699 289.382 243.809 285.92 242.896 288.55C242.188 290.567 253.5 290.813 255.367 292.802C257.234 294.792 246.808 291.726 246.208 293.675C245.99 294.411 250.297 294.738 256.566 295.624C262.975 296.235 269.415 296.463 275.851 296.305C290.311 297.095 341.446 298.159 352.363 297.382C365.065 296.414 360.281 279.964 359.791 275.875Z" fill="#FFBE9D"/>
<path d="M278.809 255.663C279.007 254.541 279.299 253.438 279.681 252.365C279.981 251.343 280.349 250.143 280.812 248.821C281.044 248.167 281.303 247.458 281.589 246.763C281.752 246.382 281.957 246.055 282.052 245.741C282.16 245.398 282.206 245.038 282.189 244.678C282.122 243.918 282.008 243.162 281.848 242.416C281.712 241.68 281.575 240.971 281.439 240.276C281.221 238.913 281.003 237.741 280.812 236.624C280.559 235.509 280.422 234.372 280.403 233.23C280.821 234.294 281.123 235.4 281.303 236.528C281.548 237.632 281.807 238.845 282.08 240.14L282.529 242.293C282.715 243.072 282.838 243.866 282.897 244.665C282.92 245.103 282.86 245.543 282.72 245.959C282.577 246.327 282.414 246.687 282.229 247.036C281.943 247.717 281.671 248.399 281.425 249.053C280.976 250.293 280.539 251.452 280.158 252.515C279.841 253.616 279.387 254.674 278.809 255.663Z" fill="#263238"/>
<path d="M308.518 162.756C310.481 165.291 312.607 168.208 312.185 171.383C311.844 174.109 309.622 176.63 309.99 179.411C310.426 182.614 314.079 184.712 314.324 187.942C314.474 190.668 312.171 192.685 310.549 194.757C309.359 196.289 308.483 198.04 307.971 199.911C307.458 201.782 307.32 203.735 307.564 205.66C307.833 207.574 308.533 209.401 309.612 211.005C310.691 212.608 312.121 213.945 313.793 214.914C315.488 215.852 317.397 216.334 319.334 216.315C321.271 216.296 323.17 215.776 324.846 214.805C327.8 212.743 329.953 209.725 330.938 206.26C332.464 201.871 332.873 196.719 330.27 192.849C329.207 191.295 327.667 189.959 327.326 188.106C326.89 185.762 328.553 183.554 328.812 181.183C329.166 178.007 326.972 175.104 324.546 173.005C322.12 170.906 319.258 169.244 317.445 166.613" fill="#263238"/>
<g opacity="0.3">
<path d="M326.645 234.171C327.53 247.8 328.007 260.406 328.334 274.076C330.154 273.997 331.921 273.443 333.459 272.468C334.154 266.635 329.738 248.876 326.645 234.171Z" fill="black"/>
</g>
<path d="M293.418 227.888C293.22 226.848 293.328 225.773 293.731 224.794C294.194 223.132 294.917 221.919 295.094 222C295.035 223.026 294.804 224.035 294.413 224.985C294.236 225.999 293.9 226.979 293.418 227.888Z" fill="#FAFAFA"/>
<path d="M278.944 227.847C278.835 228.01 277.867 227.533 276.927 226.634C275.986 225.734 275.441 224.794 275.564 224.685C275.687 224.576 276.477 225.271 277.377 226.116C278.276 226.961 279.039 227.683 278.944 227.847Z" fill="#FAFAFA"/>
<path d="M265.111 239.159C265.111 239.159 264.989 239.037 264.907 238.792H265.22C265.433 239.904 265.433 241.046 265.22 242.158C265.139 243.43 264.663 244.645 263.857 245.633C264.018 244.419 264.259 243.217 264.58 242.035C264.825 240.672 264.88 239.391 264.961 238.805H265.275C265.193 239.078 265.166 239.146 265.111 239.159Z" fill="#FAFAFA"/>
<path d="M264.498 253.305C263.457 253.262 262.438 252.993 261.513 252.515C259.932 251.902 258.705 251.261 258.787 251.07C259.832 251.111 260.856 251.381 261.785 251.861C263.339 252.474 264.566 253.115 264.498 253.305Z" fill="#FAFAFA"/>
<path d="M276.218 245.469C276.028 245.469 276.055 244.243 276.505 242.839C276.954 241.435 277.581 240.427 277.758 240.509C277.936 240.59 277.595 241.694 277.172 243.044C276.75 244.393 276.355 245.497 276.218 245.469Z" fill="#FAFAFA"/>
<path d="M288.485 214.45C288.485 214.641 287.462 214.845 286.181 214.913C284.9 214.981 283.864 214.913 283.851 214.668C283.837 214.423 284.873 214.259 286.154 214.205C287.435 214.15 288.485 214.245 288.485 214.45Z" fill="#FAFAFA"/>
<path d="M290.978 241.067C290.856 241.203 289.752 240.386 289.016 238.886C288.465 238.031 288.27 236.994 288.471 235.997C288.675 235.997 288.961 237.21 289.643 238.573C290.324 239.936 291.128 240.917 290.978 241.067Z" fill="#FAFAFA"/>
<path d="M315.183 235.356C315.319 235.493 314.461 236.583 313.166 237.7C311.871 238.818 310.658 239.499 310.549 239.336C310.44 239.172 311.435 238.246 312.703 237.155C313.97 236.065 315.047 235.22 315.183 235.356Z" fill="#FAFAFA"/>
<path d="M303.217 231.595C303.326 231.758 302.577 232.508 301.527 233.285C300.478 234.062 299.524 234.579 299.415 234.416C299.306 234.252 300.055 233.503 301.105 232.726C302.154 231.949 303.095 231.445 303.217 231.595Z" fill="#FAFAFA"/>
<path d="M309.091 221.81C307.983 221.578 306.972 221.017 306.188 220.202C304.825 218.989 303.994 217.68 304.157 217.571C304.321 217.462 305.302 218.512 306.651 219.656C308 220.801 309.186 221.633 309.091 221.81Z" fill="#FAFAFA"/>
<path d="M322.871 217.993C322.98 218.143 322.216 218.934 321.14 219.738C320.063 220.542 319.095 221.101 318.973 220.937C318.85 220.774 319.627 219.997 320.704 219.179C321.78 218.361 322.748 217.83 322.871 217.993Z" fill="#FAFAFA"/>
<path d="M334.373 223.445C334.355 222.46 334.502 221.478 334.809 220.542C335.122 218.975 335.326 217.68 335.531 217.693C335.833 218.665 335.833 219.706 335.531 220.678C335.19 222.314 334.55 223.513 334.373 223.445Z" fill="#FAFAFA"/>
<path d="M336.403 236.569C336.267 236.706 335.04 235.792 333.678 234.511C332.315 233.23 331.265 232.085 331.402 231.949C331.538 231.813 332.764 232.712 334.127 233.994C335.49 235.275 336.54 236.419 336.403 236.569Z" fill="#FAFAFA"/>
<path d="M345.725 231.051C345.548 230.969 345.902 229.688 346.516 228.325C347.129 226.962 347.783 225.763 347.96 225.844C347.911 226.802 347.641 227.735 347.17 228.57C346.543 230.015 345.889 231.132 345.725 231.051Z" fill="#FAFAFA"/>
<path d="M346.203 246.817C346.436 245.677 346.9 244.596 347.566 243.642C348.025 242.583 348.687 241.625 349.515 240.821C349.284 241.957 348.82 243.034 348.152 243.983C347.695 245.047 347.033 246.01 346.203 246.817Z" fill="#FAFAFA"/>
<path d="M337.017 249.231C336.854 249.353 335.927 248.372 334.919 247.036C333.91 245.701 333.242 244.542 333.392 244.42C333.542 244.297 334.496 245.278 335.491 246.614C336.486 247.949 337.167 249.108 337.017 249.231Z" fill="#FAFAFA"/>
<path d="M319.681 255.977C320.009 254.548 320.646 253.208 321.548 252.052C322.26 250.775 323.247 249.671 324.437 248.822C323.8 250.106 323.033 251.32 322.147 252.447C321.447 253.704 320.62 254.887 319.681 255.977Z" fill="#FAFAFA"/>
<path d="M307.224 254.724C306.391 253.805 305.739 252.737 305.303 251.576C304.659 250.512 304.22 249.338 304.008 248.114C305.49 250.093 306.582 252.336 307.224 254.724Z" fill="#FAFAFA"/>
<path d="M291.537 251.07C290.756 252.209 289.788 253.209 288.675 254.028C287.718 255.024 286.598 255.849 285.363 256.467C285.227 256.317 286.508 254.995 288.212 253.496C289.172 252.502 290.297 251.681 291.537 251.07Z" fill="#FAFAFA"/>
<path d="M297.492 268.107C297.329 268.229 296.211 266.962 294.767 265.49C293.322 264.018 292.041 262.873 292.163 262.764C293.371 263.237 294.446 263.994 295.298 264.972C296.276 265.821 297.029 266.898 297.492 268.107Z" fill="#FAFAFA"/>
<path d="M308.478 268.624C308.555 267.376 308.975 266.174 309.69 265.149C310.713 263.377 311.953 262.232 312.089 262.423C311.6 263.515 310.997 264.552 310.29 265.517C309.795 266.612 309.187 267.654 308.478 268.624Z" fill="#FAFAFA"/>
<path d="M323.919 270.424C322.671 269.835 321.532 269.038 320.552 268.066C319.421 267.268 318.431 266.287 317.622 265.163C318.875 265.751 320.018 266.548 321.002 267.521C322.129 268.319 323.115 269.3 323.919 270.424Z" fill="#FAFAFA"/>
<path d="M322.556 229.837C321.488 229.665 320.49 229.192 319.681 228.474C318.236 227.425 317.35 226.266 317.486 226.13C317.623 225.994 318.713 226.893 320.103 227.902C321.493 228.91 322.556 229.66 322.556 229.837Z" fill="#FAFAFA"/>
<path d="M458.654 285.47H80.4678V295.555H100.693L90.2669 487.367L96.0182 487.68L106.472 295.555H438.033L446.919 487.531H452.698L443.798 295.555H458.654V285.47Z" fill="#263238"/>
<path d="M190.766 225.83L211.74 287.105H306.706L305.997 283.957L267.605 282.757L249.915 225.789L190.766 225.83Z" fill="#263238"/>
<path d="M232.851 254.601C233.478 257.122 232.401 259.575 230.452 260.052C228.503 260.529 226.364 258.962 225.778 256.441C225.191 253.919 226.227 251.48 228.176 250.989C230.125 250.498 232.224 252.093 232.851 254.601Z" fill="white"/>
</g>
</svg>
