<svg width="12" height="14" viewBox="0 0 12 14" fill="none" xmlns="http://www.w3.org/2000/svg">
<path d="M6.06771 0C6.66635 -4.68273e-07 7.24209 0.230087 7.67585 0.642672C8.1096 1.05526 8.36819 1.61877 8.39813 2.21667L8.40104 2.33333H11.3177C11.4664 2.3335 11.6094 2.39043 11.7175 2.49249C11.8256 2.59456 11.8907 2.73406 11.8994 2.88248C11.9081 3.0309 11.8598 3.17705 11.7644 3.29107C11.669 3.40508 11.5336 3.47836 11.386 3.49592L11.3177 3.5H10.8225L10.1341 11.9892C10.0897 12.537 9.84074 13.048 9.43671 13.4206C9.03268 13.7932 8.50321 14 7.95362 14H4.18179C3.6322 14 3.10273 13.7932 2.69871 13.4206C2.29468 13.048 2.0457 12.537 2.00129 11.9892L1.31237 3.5H0.817708C0.674831 3.49998 0.536928 3.44753 0.430158 3.35258C0.323388 3.25764 0.255175 3.12681 0.238458 2.98492L0.234375 2.91667C0.234394 2.77379 0.286849 2.63589 0.381792 2.52912C0.476735 2.42235 0.607562 2.35413 0.749458 2.33742L0.817708 2.33333H3.73438C3.73438 1.71449 3.98021 1.121 4.41779 0.683417C4.85538 0.245833 5.44887 0 6.06771 0ZM4.75521 5.39583C4.64949 5.39584 4.54734 5.43412 4.46767 5.50361C4.38799 5.5731 4.33617 5.66909 4.32179 5.77383L4.31771 5.83333V10.5L4.32179 10.5595C4.3362 10.6642 4.38803 10.7602 4.4677 10.8296C4.54738 10.8991 4.64951 10.9374 4.75521 10.9374C4.86091 10.9374 4.96304 10.8991 5.04271 10.8296C5.12239 10.7602 5.17422 10.6642 5.18862 10.5595L5.19271 10.5V5.83333L5.18862 5.77383C5.17425 5.66909 5.12243 5.5731 5.04275 5.50361C4.96307 5.43412 4.86093 5.39584 4.75521 5.39583ZM7.38021 5.39583C7.27449 5.39584 7.17234 5.43412 7.09267 5.50361C7.01299 5.5731 6.96117 5.66909 6.94679 5.77383L6.94271 5.83333V10.5L6.94679 10.5595C6.9612 10.6642 7.01303 10.7602 7.0927 10.8296C7.17238 10.8991 7.27451 10.9374 7.38021 10.9374C7.48591 10.9374 7.58804 10.8991 7.66771 10.8296C7.74739 10.7602 7.79922 10.6642 7.81362 10.5595L7.81771 10.5V5.83333L7.81362 5.77383C7.79925 5.66909 7.74743 5.5731 7.66775 5.50361C7.58807 5.43412 7.48593 5.39584 7.38021 5.39583ZM6.06771 1.16667C5.77337 1.16657 5.48988 1.27774 5.27406 1.47787C5.05823 1.67801 4.92603 1.95233 4.90396 2.24583L4.90104 2.33333H7.23438L7.23146 2.24583C7.20938 1.95233 7.07718 1.67801 6.86136 1.47787C6.64554 1.27774 6.36204 1.16657 6.06771 1.16667Z" fill="#FF3333"/>
</svg>
