<svg width="17" height="14" viewBox="0 0 17 14" fill="none" xmlns="http://www.w3.org/2000/svg">
<path d="M15.5301 14H6.35436C5.96469 14 5.64844 13.6838 5.64844 13.2942C5.64844 12.9045 5.96469 12.5884 6.35436 12.5884H15.5301C15.9198 12.5884 16.2359 12.9045 16.2359 13.2942C16.2359 13.6838 15.9198 14 15.5301 14Z" fill="#4C5BD4"/>
<path d="M13.6022 1.39807L12.6041 0.399939C12.0706 -0.133701 11.141 -0.132925 10.6081 0.399939L9.14844 1.8596L12.1426 4.85374L13.6022 3.39409C13.869 3.12798 14.0158 2.77373 14.0158 2.39608C14.0158 2.01921 13.869 1.66483 13.6022 1.39807Z" fill="#4C5BD4"/>
<path d="M8.14703 2.8584L0.872647 10.1328C0.826119 10.1787 0.79368 10.2372 0.778817 10.3014L0.00943968 13.5658C-0.018735 13.6845 0.0171942 13.8101 0.103399 13.8962C0.1697 13.9633 0.26004 14 0.352448 14C0.37933 14 0.406859 13.9971 0.433612 13.9908L3.69813 13.2214C3.76172 13.2067 3.82027 13.1741 3.86679 13.1276L11.1412 5.85332L8.14703 2.8584Z" fill="#4C5BD4"/>
</svg>
