<svg width="15" height="15" viewBox="0 0 15 15" fill="none" xmlns="http://www.w3.org/2000/svg">
<path d="M12.75 15H2.25C1.65326 15 1.08097 14.7629 0.65901 14.341C0.237053 13.919 0 13.3467 0 12.75V0.75C0 0.551088 0.0790176 0.360322 0.21967 0.21967C0.360322 0.0790176 0.551088 0 0.75 0H11.25C11.4489 0 11.6397 0.0790176 11.7803 0.21967C11.921 0.360322 12 0.551088 12 0.75V9.75H15V12.75C15 13.3467 14.7629 13.919 14.341 14.341C13.919 14.7629 13.3467 15 12.75 15ZM12 11.25V12.75C12 12.9489 12.079 13.1397 12.2197 13.2803C12.3603 13.421 12.5511 13.5 12.75 13.5C12.9489 13.5 13.1397 13.421 13.2803 13.2803C13.421 13.1397 13.5 12.9489 13.5 12.75V11.25H12ZM3 3.75V5.25H9V3.75H3ZM3 6.75V8.25H9V6.75H3ZM3 9.75V11.25H6.75V9.75H3Z" fill="white"/>
</svg>
