<svg width="29" height="29" viewBox="0 0 29 29" fill="none" xmlns="http://www.w3.org/2000/svg">
<path d="M14.5 0C6.5088 0 0 6.5088 0 14.5C0 22.4912 6.5088 29 14.5 29C22.4912 29 29 22.4912 29 14.5C29 6.5088 22.501 0 14.5 0ZM14.5 22.8446C13.6852 22.8446 13.0274 22.1869 13.0274 21.372C13.0274 20.5572 13.6852 19.8995 14.5 19.8995C15.3148 19.8995 15.9726 20.5572 15.9726 21.372C15.9726 22.1869 15.3148 22.8446 14.5 22.8446ZM15.9726 15.2854C15.9726 16.1002 15.3148 16.758 14.5 16.758C13.6852 16.758 13.0274 16.1002 13.0274 15.2854V7.52979C13.0274 6.71496 13.6852 6.05721 14.5 6.05721C15.3148 6.05721 15.9726 6.71496 15.9726 7.52979V15.2854Z" fill="#666666"/>
</svg>
