<svg width="30" height="29" viewBox="0 0 30 29" fill="none" xmlns="http://www.w3.org/2000/svg">
<path d="M29.1982 12.8496L16.2007 1.02082C15.6292 0.500873 14.7691 0.500873 14.1976 1.02082L1.20002 12.8496C0.741685 13.2678 0.594564 13.9065 0.815245 14.4829C1.03593 15.0594 1.5848 15.4324 2.20157 15.4324H4.27824V27.2838C4.27824 27.7529 4.65736 28.1372 5.13267 28.1372H12.2567C12.7264 28.1372 13.1111 27.7585 13.1111 27.2838V20.0893H17.2984V27.2838C17.2984 27.7529 17.6775 28.1372 18.1529 28.1372H25.2712C25.7409 28.1372 26.1257 27.7585 26.1257 27.2838V15.4324H28.2023C28.8191 15.4324 29.3623 15.0594 29.5887 14.4829C29.8037 13.9065 29.6566 13.2678 29.1982 12.8496Z" fill="white"/>
</svg>
