<svg width="30" height="30" viewBox="0 0 30 30" fill="none" xmlns="http://www.w3.org/2000/svg">
<path fill-rule="evenodd" clip-rule="evenodd" d="M15.1966 22.0156C12.5823 22.0156 9.92621 20.462 8.37609 18.4056C2.36021 18.4056 1.06359 25.3651 0.787727 28.0248C0.729895 28.5824 1.17516 29.0414 1.73572 29.0414H28.7302C29.2613 29.0414 29.6948 28.6279 29.6772 28.0971C29.5906 25.4858 28.7287 18.3584 21.8974 18.3584C20.3491 20.4402 17.8109 22.0156 15.1966 22.0156Z" fill="white"/>
<path fill-rule="evenodd" clip-rule="evenodd" d="M21.4257 9.26476C21.4257 12.3248 18.6354 18.1763 15.1908 18.1763C11.7515 18.1763 8.95947 12.323 8.95947 9.26476C8.95947 6.20652 11.7497 3.72363 15.1908 3.72363C18.6354 3.72545 21.4257 6.20834 21.4257 9.26476Z" fill="white"/>
<path fill-rule="evenodd" clip-rule="evenodd" d="M24.2066 6.62389C24.2066 6.05036 23.4089 5.58754 22.419 5.58391V4.40236C22.419 4.22631 22.4861 0.104492 15.2123 0.104492C7.9422 0.104492 8.00928 4.22631 8.00928 4.40236V5.62566C7.99115 5.62566 7.97665 5.62021 7.96033 5.62021C6.97587 5.62021 6.18359 6.07577 6.18359 6.64023V11.6387C6.18359 12.1995 6.97769 12.6569 7.96033 12.6569C8.94298 12.6569 9.7407 12.1995 9.7407 11.6387V6.64023C9.7407 6.56219 9.69175 6.4914 9.66274 6.4188V5.05575C9.66274 4.93052 9.1406 1.81965 15.2123 1.81965C21.2859 1.81965 20.655 4.93052 20.655 5.05575V6.4914C20.6441 6.53678 20.6096 6.57671 20.6096 6.62389V11.7367C20.6096 12.312 21.4128 12.7785 22.4081 12.7785C22.4299 12.7785 22.4462 12.7712 22.468 12.7712V14.6388H20.684V16.3994H24.2248L24.2066 6.62389Z" fill="white"/>
</svg>
