<svg width="36" height="36" viewBox="0 0 36 36" fill="none" xmlns="http://www.w3.org/2000/svg">
<path d="M18 36C27.9411 36 36 27.9411 36 18C36 8.05894 27.9411 0 18 0C8.05894 0 0 8.05894 0 18C0 27.9411 8.05894 36 18 36ZM18 32.4C10.0471 32.4 3.6 25.9529 3.6 18C3.6 10.0471 10.0471 3.6 18 3.6C25.9529 3.6 32.4 10.0471 32.4 18C32.4 25.9529 25.9529 32.4 18 32.4Z" fill="#4C5BD4"/>
<path d="M14.4222 14.6355C14.4222 11.1028 21.8889 10.2197 21.5778 14.0468C21.5778 16.6963 16.6 17.8738 16.6 20.8178V22.8785H19.7111V21.7009C19.7111 19.0514 25 18.1682 25 13.7524C24.3778 7.27574 11 7.27574 11 14.6355H14.4222ZM16.6 24.0561H19.7111V27H16.6V24.0561Z" fill="#4C5BD4"/>
</svg>
