<svg width="22" height="22" viewBox="0 0 22 22" fill="none" xmlns="http://www.w3.org/2000/svg">
<path d="M8.00035 0H2.0001C0.896991 0 0 0.896991 0 2.0001V8.00035C0 9.10341 0.896991 10.0005 2.0001 10.0005H8.00035C9.10341 10.0005 10.0005 9.10346 10.0005 8.00035V2.0001C10.0004 0.896991 9.10341 0 8.00035 0Z" fill="white"/>
<path d="M20.0004 0H14.0001C12.897 0 12 0.896991 12 2.0001V8.00035C12 9.10341 12.897 10.0005 14.0001 10.0005H20.0004C21.1034 10.0005 22.0005 9.10346 22.0005 8.00035V2.0001C22.0004 0.896991 21.1034 0 20.0004 0Z" fill="white"/>
<path d="M8.00035 11.9995H2.0001C0.896991 11.9995 0 12.8965 0 13.9996V19.9999C0 21.1029 0.896991 22 2.0001 22H8.00035C9.10341 22 10.0005 21.103 10.0005 19.9999V13.9996C10.0004 12.8965 9.10341 11.9995 8.00035 11.9995Z" fill="white"/>
<path d="M19.5003 15.9996H18.0002V14.4995C18.0002 14.2231 17.7766 13.9995 17.5002 13.9995H16.5001C16.2238 13.9995 16.0001 14.2231 16.0001 14.4995V15.9996H14.5C14.2237 15.9996 14 16.2232 14 16.4996V17.4996C14 17.776 14.2237 17.9997 14.5 17.9997H16.0001V19.4997C16.0001 19.7761 16.2238 19.9998 16.5001 19.9998H17.5002C17.7766 19.9998 18.0002 19.7761 18.0002 19.4997V17.9997H19.5003C19.7767 17.9997 20.0003 17.776 20.0003 17.4996V16.4996C20.0003 16.2232 19.7767 15.9996 19.5003 15.9996Z" fill="white"/>
</svg>
