<svg width="25" height="25" viewBox="0 0 25 25" fill="none" xmlns="http://www.w3.org/2000/svg">
<path d="M12.4715 0C5.93622 0 0.576309 4.99318 0 11.3636H10.1936V7.95455C10.1936 7.49545 10.4715 7.08068 10.8964 6.90455C11.3223 6.72841 11.8121 6.82614 12.1378 7.15114L16.6936 11.6966C17.139 12.1409 17.139 12.8591 16.6936 13.3034L12.1378 17.8489C11.8121 18.1739 11.3223 18.2716 10.8964 18.0955C10.4715 17.9193 10.1936 17.5045 10.1936 17.0455V13.6364H0C0.576309 20.0068 5.93622 25 12.4715 25C19.3907 25 25 19.4034 25 12.5C25 5.59659 19.3907 0 12.4715 0Z" fill="#666666"/>
</svg>
