<svg width="25" height="25" viewBox="0 0 25 25" fill="none" xmlns="http://www.w3.org/2000/svg">
<path d="M12.5 0.000976562C5.59716 0.000976562 0 5.59704 0 12.5004C0 19.4038 5.59661 24.9999 12.5 24.9999C19.4039 24.9999 25 19.4038 25 12.5004C25 5.59704 19.4039 0.000976562 12.5 0.000976562ZM12.5 3.73846C14.7841 3.73846 16.635 5.5899 16.635 7.87291C16.635 10.1565 14.7841 12.0074 12.5 12.0074C10.217 12.0074 8.36609 10.1565 8.36609 7.87291C8.36609 5.5899 10.217 3.73846 12.5 3.73846ZM12.4973 21.7318C10.2192 21.7318 8.13274 20.9022 6.52343 19.529C6.1314 19.1946 5.90519 18.7043 5.90519 18.1898C5.90519 15.8744 7.77914 14.0213 10.0951 14.0213H14.906C17.2225 14.0213 19.0893 15.8744 19.0893 18.1898C19.0893 18.7049 18.8642 19.1941 18.4716 19.5285C16.8629 20.9022 14.7759 21.7318 12.4973 21.7318Z" fill="#666666"/>
</svg>
