<svg width="43" height="45" viewBox="0 0 43 45" fill="none" xmlns="http://www.w3.org/2000/svg">
<path fill-rule="evenodd" clip-rule="evenodd" d="M21.459 0C15.8123 0 10.6668 1.86516 7.62282 3.38903C7.3478 3.52654 7.09153 3.66155 6.85276 3.79157C6.38022 4.04909 5.97769 4.28911 5.65766 4.50038L9.12045 9.5983L10.7506 10.2471C17.1211 13.4611 25.6643 13.4611 32.0361 10.2471L33.8863 9.28702L37.1615 4.50038C36.483 4.05783 35.7774 3.65826 35.0489 3.30402C32.0211 1.7964 26.9994 0 21.459 0ZM13.4046 5.77048C12.1784 5.54102 10.9673 5.2371 9.778 4.8604C12.6295 3.59405 16.8798 2.25019 21.4577 2.25019C24.6292 2.25019 27.6282 2.89524 30.1084 3.71281C27.202 4.12159 24.1004 4.8154 21.1452 5.66922C18.82 6.34178 16.1023 6.26927 13.4046 5.77048ZM33.3562 12.101L33.0499 12.256C26.0406 15.7913 16.7448 15.7913 9.7355 12.256L9.44548 12.1085C-1.0829 23.6607 -9.12107 45 21.459 45C52.0365 45 43.8021 23.2619 33.3562 12.101ZM20.1589 22.5019C19.4958 22.5019 18.8598 22.7653 18.391 23.2342C17.9221 23.703 17.6587 24.339 17.6587 25.0021C17.6587 25.6652 17.9221 26.3011 18.391 26.77C18.8598 27.2389 19.4958 27.5023 20.1589 27.5023V22.5019ZM22.6591 20.0017V18.7516H20.1589V20.0017C18.8327 20.0017 17.5608 20.5285 16.623 21.4663C15.6853 22.404 15.1585 23.6759 15.1585 25.0021C15.1585 26.3283 15.6853 27.6001 16.623 28.5379C17.5608 29.4757 18.8327 30.0025 20.1589 30.0025V35.0029C19.6418 35.003 19.1374 34.8429 18.7152 34.5444C18.2929 34.246 17.9736 33.824 17.8012 33.3365C17.6908 33.0239 17.4607 32.7679 17.1615 32.6249C16.8624 32.4819 16.5187 32.4636 16.206 32.574C15.8934 32.6844 15.6374 32.9145 15.4944 33.2136C15.3514 33.5127 15.3331 33.8564 15.4435 34.1691C15.7883 35.1441 16.4269 35.9883 17.2714 36.5854C18.1158 37.1825 19.1246 37.5031 20.1589 37.5031V38.7532H22.6591V37.5031C23.9853 37.5031 25.2571 36.9763 26.1949 36.0385C27.1327 35.1008 27.6595 33.8289 27.6595 32.5027C27.6595 31.1765 27.1327 29.9046 26.1949 28.9669C25.2571 28.0291 23.9853 27.5023 22.6591 27.5023V22.5019C23.7467 22.5019 24.673 23.1957 25.018 24.1683C25.0692 24.3274 25.1518 24.4746 25.2609 24.6013C25.37 24.7279 25.5033 24.8314 25.6531 24.9056C25.8029 24.9798 25.966 25.0232 26.1329 25.0333C26.2997 25.0433 26.4669 25.0198 26.6245 24.9641C26.7821 24.9084 26.927 24.8217 27.0505 24.7091C27.174 24.5964 27.2736 24.4602 27.3435 24.3083C27.4135 24.1565 27.4522 23.9922 27.4575 23.8252C27.4628 23.6581 27.4346 23.4917 27.3745 23.3357C27.0296 22.3606 26.391 21.5165 25.5466 20.9194C24.7021 20.3223 23.6933 20.0017 22.6591 20.0017ZM22.6591 30.0025V35.0029C23.3222 35.0029 23.9581 34.7395 24.427 34.2706C24.8959 33.8017 25.1593 33.1658 25.1593 32.5027C25.1593 31.8396 24.8959 31.2037 24.427 30.7348C23.9581 30.2659 23.3222 30.0025 22.6591 30.0025Z" fill="#9FA8ED"/>
</svg>
