<svg width="49" height="45" viewBox="0 0 49 45" fill="none" xmlns="http://www.w3.org/2000/svg">
<path d="M16.468 30.3596L11.9866 14.7352L4.07419 17.59C-1.17959 19.5576 -0.243787 26.476 0.853213 28.7393C3.31796 33.8316 7.832 33.5359 9.78093 32.7514L16.468 30.3596Z" fill="#9FA8ED"/>
<path d="M19.0239 29.5898L14.5076 13.8111C19.7172 11.9594 27.2748 3.83214 30.4024 0L39.085 31.0172C31.5788 28.2704 22.5834 28.9211 19.0239 29.5898Z" fill="#9FA8ED"/>
<path d="M17.2381 32.9086L9.85083 35.5319L15.0324 43.672C16.0127 45.1226 17.2848 45.0994 17.7982 44.9065L23.2599 43.0162C24.9732 42.3217 24.2217 41.1644 23.1199 40.4314C21.6122 39.4284 20.7369 38.3867 20.214 37.6152L17.2381 32.9086Z" fill="#9FA8ED"/>
<path d="M36.949 7.25029C39.3881 8.60054 43.608 13.2068 40.9752 20.83M39.5398 1.73355C43.8344 4.27974 51.1353 12.2346 45.9817 23.6848" stroke="#9FA8ED" stroke-width="2" stroke-linecap="round"/>
</svg>
