<svg width="51" height="60" viewBox="0 0 51 60" fill="none" xmlns="http://www.w3.org/2000/svg">
<path d="M0.00280762 23.3718L23.6832 0.697579C24.1526 0.249813 24.7764 0 25.4251 0C26.0738 0 26.6976 0.249813 27.167 0.697579L50.8501 23.3718L34.9405 55.6588H15.3335L0.00280762 23.3718Z" fill="#797979"/>
<path d="M8.61469 3.96228H36.5091L42.2352 8.9472V46.4193H8.61469V3.96228Z" fill="#F5F5F5"/>
<path d="M36.5065 8.9472H42.2352L36.5065 3.96228V8.9472Z" fill="#E2E2E2"/>
<path d="M27.167 46.0432C26.6982 46.4922 26.0742 46.7429 25.4251 46.7429C24.776 46.7429 24.1519 46.4922 23.6832 46.0432L0.00280762 23.3717V58.9999C0.00280762 59.5522 0.450523 59.9999 1.00281 59.9999H49.8528C50.405 59.9999 50.8528 59.5522 50.8528 58.9999V23.3717L27.167 46.0432Z" fill="#FFAF14"/>
<path d="M50.0838 59.4555C50.322 59.6248 50.2022 60 49.91 60H0.939744C0.64755 60 0.527769 59.6248 0.765915 59.4555L18.7415 46.6762C20.6942 45.292 23.0287 44.5485 25.4223 44.5485C27.8159 44.5485 30.1504 45.292 32.1031 46.6762L50.0838 59.4555Z" fill="#FFA800"/>
<path d="M34.6402 23.8803C34.61 25.4244 34.1099 26.9227 33.2066 28.1755C32.3231 29.3764 30.9995 29.9769 29.236 29.9769C28.6935 29.9905 28.1624 29.8198 27.7294 29.4927C27.2891 29.1444 26.9708 28.6651 26.8206 28.1241C26.4641 28.7073 25.9616 29.1874 25.3628 29.517C24.7417 29.8356 24.0509 29.9937 23.3531 29.9769C22.3577 29.9769 21.5851 29.5089 21.0351 28.5731C20.4851 27.6372 20.2814 26.4074 20.4238 24.8837C20.6041 22.8714 21.1523 21.2566 22.0683 20.0395C22.9844 18.8223 24.0978 18.2147 25.4087 18.2165C26.096 18.192 26.7819 18.2947 27.4319 18.5194C28.0193 18.7649 28.5766 19.0771 29.0927 19.4498L29.044 19.4985H29.1278L28.5165 26.3173C28.4462 27.172 28.5301 27.7616 28.7735 28.0835C28.8843 28.2378 29.0313 28.3626 29.2015 28.447C29.3717 28.5314 29.56 28.5729 29.7499 28.5677C30.2235 28.5717 30.69 28.4521 31.1032 28.2206C31.5163 27.9891 31.8619 27.6537 32.1058 27.2477C32.732 26.238 33.0705 25.0764 33.0849 23.8884C33.2129 20.9239 32.6386 18.6141 31.362 16.9587C30.0853 15.3034 28.1054 14.4748 25.4223 14.473C22.9663 14.473 20.9918 15.3692 19.4988 17.1616C18.0057 18.954 17.1988 21.2909 17.078 24.1724C16.9319 27.0918 17.5297 29.3989 18.8713 31.0939C20.2128 32.7889 22.1332 33.6373 24.6325 33.6391C25.3511 33.637 26.0671 33.5526 26.7665 33.3876C27.4015 33.252 28.0149 33.03 28.5896 32.7276L29.044 33.9772C28.4109 34.3401 27.723 34.5977 27.0073 34.74C26.208 34.9182 25.3918 35.0089 24.573 35.0105C21.5454 35.0105 19.2013 34.0412 17.5405 32.1028C15.8798 30.1644 15.1252 27.5164 15.2766 24.1589C15.4281 20.8698 16.4198 18.1966 18.2519 16.1392C20.0839 14.0817 22.4831 13.0512 25.4493 13.0476C28.4678 13.0476 30.785 14.0195 32.4006 15.9634C34.0163 17.9072 34.7628 20.5462 34.6402 23.8803ZM22.5417 24.8837C22.4515 25.9873 22.5417 26.8267 22.8121 27.4019C22.9068 27.6609 23.0805 27.8835 23.3086 28.0384C23.5367 28.1932 23.8078 28.2724 24.0834 28.2647C24.5656 28.271 25.0435 28.1732 25.4845 27.978C25.9543 27.7473 26.354 27.3953 26.6421 26.9583C26.6366 26.8592 26.6366 26.7599 26.6421 26.6608C26.6421 26.5553 26.6556 26.4417 26.6719 26.3173L27.2345 20.0449C27.0239 19.9525 26.8058 19.8782 26.5826 19.8231C26.3495 19.7682 26.1107 19.741 25.8713 19.7419C25.4106 19.7268 24.9545 19.8377 24.5522 20.0626C24.1499 20.2876 23.8167 20.6182 23.5884 21.0186C23.0493 21.8697 22.7003 23.1581 22.5417 24.8837Z" fill="#FF3333"/>
</svg>
