<svg width="45" height="45" viewBox="0 0 45 45" fill="none" xmlns="http://www.w3.org/2000/svg">
<path d="M24.4479 0.588794C22.5115 -0.196265 20.3456 -0.196265 18.4093 0.588794L13.7164 2.49165L34.2707 10.4845L41.5007 7.69237C41.2044 7.44641 40.8719 7.24764 40.515 7.10308L24.4479 0.588794ZM42.8571 10.6131L23.0357 18.2717V23.2002C24.337 21.8026 25.9125 20.6883 27.6638 19.9269C29.4151 19.1655 31.3046 18.7735 33.2143 18.7752C36.9579 18.7752 40.3543 20.2517 42.8571 22.6538V10.6109V10.6131ZM19.8214 28.8702V18.2717L0 10.6131V31.2638C0.000422183 32.0101 0.223531 32.7393 0.640772 33.3582C1.05801 33.9769 1.65041 34.4572 2.34214 34.7374L18.4093 41.2517C18.87 41.4381 19.3414 41.5795 19.8214 41.6802V36.5438C19.4648 35.295 19.2845 34.0025 19.2857 32.7038C19.2857 31.3731 19.4721 30.0852 19.8214 28.8681V28.8702ZM1.35643 7.69022L21.4286 15.4474L29.8221 12.2031L9.37286 4.25308L2.34214 7.10308C1.97786 7.25094 1.64786 7.45022 1.35643 7.69237V7.69022ZM33.2143 20.9181C30.0885 20.9181 27.0908 22.1598 24.8805 24.37C22.6703 26.5803 21.4286 29.578 21.4286 32.7038C21.4286 35.8296 22.6703 38.8273 24.8805 41.0376C27.0908 43.2478 30.0885 44.4895 33.2143 44.4895C36.34 44.4895 39.3378 43.2478 41.548 41.0376C43.7583 38.8273 45 35.8296 45 32.7038C45 29.578 43.7583 26.5803 41.548 24.37C39.3378 22.1598 36.34 20.9181 33.2143 20.9181ZM25.7186 32.6138L25.7507 32.4295L25.7936 32.2945L25.8686 32.1509L25.9371 32.0481L31.3843 26.5881L31.5343 26.4659C31.7405 26.3248 31.9896 26.2602 32.2385 26.2833C32.4873 26.3065 32.7202 26.4158 32.8969 26.5926C33.0737 26.7693 33.183 27.0022 33.2062 27.251C33.2293 27.4999 33.1647 27.749 33.0236 27.9552L32.9014 28.1052L29.37 31.6345H40.7143L40.9071 31.6517C41.1212 31.6908 41.3183 31.7941 41.4722 31.948C41.6261 32.1019 41.7295 32.299 41.7686 32.5131L41.7857 32.7059L41.7686 32.8988C41.7295 33.1129 41.6261 33.31 41.4722 33.4639C41.3183 33.6177 41.1212 33.7211 40.9071 33.7602L40.7143 33.7752L29.3743 33.7774L32.9014 37.3024L33.0236 37.4524C33.147 37.6313 33.2132 37.8435 33.2132 38.0609C33.2132 38.2783 33.147 38.4906 33.0236 38.6695L32.9014 38.8195L32.7514 38.9417C32.5725 39.0651 32.3603 39.1313 32.1429 39.1313C31.9255 39.1313 31.7132 39.0651 31.5343 38.9417L31.3843 38.8195L26.0014 33.4345L25.905 33.3145L25.815 33.1559L25.7507 32.9781L25.725 32.8495L25.7143 32.7295L25.7186 32.6138Z" fill="#9FA8ED"/>
</svg>
