<svg width="14" height="14" viewBox="0 0 14 14" fill="none" xmlns="http://www.w3.org/2000/svg">
<path d="M8.31481 2.69983L0.958875 10.0563C0.921867 10.0934 0.895146 10.1403 0.882421 10.1906L0.0670863 13.4632C0.0426973 13.5617 0.071646 13.6665 0.14354 13.7384C0.197939 13.7928 0.27206 13.8229 0.347878 13.8229C0.3711 13.8229 0.394853 13.82 0.41797 13.8142L3.69055 12.9988C3.74155 12.986 3.78789 12.9594 3.8249 12.9224L11.1815 5.56649L8.31481 2.69983Z" fill="white"/>
<path d="M13.0024 1.6971L12.1836 0.87827C11.6363 0.331002 10.6825 0.331532 10.1358 0.87827L9.13281 1.88129L11.9994 4.74785L13.0024 3.74482C13.2758 3.47156 13.4263 3.10785 13.4263 2.72102C13.4263 2.33419 13.2758 1.97047 13.0024 1.6971Z" fill="white"/>
</svg>
