<svg width="45" height="45" viewBox="0 0 45 45" fill="none" xmlns="http://www.w3.org/2000/svg">
<path d="M15.8597 44.1543C17.8876 44.1543 19.5315 42.5105 19.5315 40.4826C19.5315 38.4548 17.8876 36.8109 15.8597 36.8109C13.8319 36.8109 12.188 38.4548 12.188 40.4826C12.188 42.5105 13.8319 44.1543 15.8597 44.1543Z" fill="#9FA8ED"/>
<path d="M34.9532 44.1543C36.9811 44.1543 38.625 42.5105 38.625 40.4826C38.625 38.4548 36.9811 36.8109 34.9532 36.8109C32.9254 36.8109 31.2815 38.4548 31.2815 40.4826C31.2815 42.5105 32.9254 44.1543 34.9532 44.1543Z" fill="#9FA8ED"/>
<path d="M44.6473 6.54329C44.5104 6.36556 44.3347 6.22153 44.1336 6.12224C43.9325 6.02295 43.7113 5.97104 43.487 5.9705H9.56017L8.89926 3.87027C8.82666 3.64477 8.70059 3.44017 8.5318 3.27394C8.36301 3.10771 8.15651 2.98477 7.92992 2.91562L1.90828 1.06507C1.72312 1.00817 1.52857 0.9883 1.33574 1.00659C1.1429 1.02488 0.955556 1.08097 0.784398 1.17167C0.438729 1.35483 0.179979 1.66781 0.06507 2.04175C-0.0498389 2.41569 -0.0114939 2.81996 0.171669 3.16563C0.354833 3.5113 0.667811 3.77005 1.04175 3.88496L6.31436 5.50052L13.041 26.7525L10.647 28.7206L10.4561 28.9115C9.86404 29.597 9.52862 30.467 9.50719 31.3725C9.48575 32.2781 9.77964 33.1629 10.3386 33.8757C10.7389 34.3625 11.2476 34.7489 11.8239 35.0039C12.4003 35.2589 13.0283 35.3755 13.6578 35.3444H38.1703C38.5598 35.3444 38.9334 35.1896 39.2088 34.9142C39.4843 34.6388 39.639 34.2652 39.639 33.8757C39.639 33.4862 39.4843 33.1126 39.2088 32.8372C38.9334 32.5617 38.5598 32.407 38.1703 32.407H13.4228C13.2537 32.4012 13.0889 32.3519 12.9444 32.2639C12.7999 32.1758 12.6805 32.052 12.5979 31.9043C12.5152 31.7567 12.472 31.5902 12.4724 31.421C12.4728 31.2518 12.5169 31.0855 12.6004 30.9383L16.1399 28.0009H38.8019C39.1374 28.0107 39.4661 27.9052 39.7333 27.7022C40.0005 27.4991 40.1901 27.2106 40.2705 26.8847L44.9704 7.79168C45.015 7.57273 45.0091 7.34647 44.9531 7.13013C44.8972 6.91379 44.7925 6.71309 44.6473 6.54329Z" fill="#9FA8ED"/>
</svg>
