<svg width="39" height="45" viewBox="0 0 39 45" fill="none" xmlns="http://www.w3.org/2000/svg">
<g clip-path="url(#clip0_3110_2086)">
<path fill-rule="evenodd" clip-rule="evenodd" d="M0 4.5C0 3.30653 0.474106 2.16193 1.31802 1.31802C2.16193 0.474106 3.30653 0 4.5 0L28.2926 0C28.823 0 29.3317 0.210714 29.7068 0.585786L38.4142 9.29321C38.7893 9.66829 39 10.177 39 10.7074V40.5C39 41.6935 38.5259 42.8381 37.682 43.682C36.8381 44.5259 35.6935 45 34.5 45H4.5C3.30653 45 2.16193 44.5259 1.31802 43.682C0.474106 42.8381 0 41.6935 0 40.5V4.5ZM18 12H9V15H18V12ZM30 21H9V24H30V21ZM15.915 32.724C14.703 33.048 13.755 33.975 13.425 34.974L10.575 34.026C11.244 32.025 12.996 30.402 15.135 29.826C17.256 29.256 19.677 29.736 21.771 31.659C22.401 31.476 23.022 31.371 23.637 31.338C25.257 31.251 26.706 31.659 27.951 32.178C28.866 32.559 29.751 33.039 30.501 33.444C30.735 33.576 30.96 33.696 31.167 33.804C32.136 34.314 32.667 34.5 33 34.5V37.5C31.83 37.5 30.678 36.936 29.772 36.462C29.499 36.3179 29.227 36.1719 28.956 36.024C28.2553 35.6276 27.5343 35.2681 26.796 34.947C25.794 34.527 24.807 34.281 23.799 34.335C23.6484 34.3423 23.4983 34.3563 23.349 34.377L23.352 34.419C23.433 35.391 23.031 36.192 22.512 36.768C21.558 37.83 20.001 38.388 18.831 38.598C18.2248 38.7196 17.6031 38.7449 16.989 38.673C16.6407 38.6284 16.3044 38.5163 15.999 38.343C15.7615 38.2063 15.557 38.0191 15.3999 37.7947C15.2429 37.5702 15.137 37.3139 15.09 37.044C15.0162 36.5392 15.1351 36.0251 15.423 35.604C15.6409 35.284 15.9059 34.9988 16.209 34.758C16.779 34.287 17.604 33.777 18.711 33.219L18.792 33.159C18.3666 32.8949 17.8919 32.7201 17.3967 32.6453C16.9016 32.5705 16.3994 32.5973 15.915 32.724Z" fill="#9FA8ED"/>
</g>
<defs>
<clipPath id="clip0_3110_2086">
<rect width="39" height="45" fill="white"/>
</clipPath>
</defs>
</svg>
