<svg width="45" height="36" viewBox="0 0 45 36" fill="none" xmlns="http://www.w3.org/2000/svg">
<path d="M10.6161 7.58294C10.6161 6.74566 10.3199 6.03081 9.72749 5.43839C9.13507 4.84597 8.42022 4.54976 7.58294 4.54976C6.74566 4.54976 6.03081 4.84597 5.43839 5.43839C4.84597 6.03081 4.54976 6.74566 4.54976 7.58294C4.54976 8.42022 4.84597 9.13507 5.43839 9.72749C6.03081 10.3199 6.74566 10.6161 7.58294 10.6161C8.42022 10.6161 9.13507 10.3199 9.72749 9.72749C10.3199 9.13507 10.6161 8.42022 10.6161 7.58294ZM35.9005 21.2322C35.9005 22.0695 35.6082 22.7804 35.0237 23.3649L23.3886 35.0237C22.7725 35.6082 22.0537 35.9005 21.2322 35.9005C20.3949 35.9005 19.684 35.6082 19.0995 35.0237L2.1564 18.0569C1.55608 17.4724 1.0466 16.6746 0.627962 15.6635C0.209321 14.6524 0 13.7283 0 12.891V3.03318C0 2.21169 0.300158 1.50079 0.900474 0.900474C1.50079 0.300158 2.21169 0 3.03318 0H12.891C13.7283 0 14.6524 0.209321 15.6635 0.627962C16.6746 1.0466 17.4803 1.55608 18.0806 2.1564L35.0237 19.0758C35.6082 19.6919 35.9005 20.4107 35.9005 21.2322ZM45 21.2322C45 22.0695 44.7077 22.7804 44.1232 23.3649L32.4882 35.0237C31.872 35.6082 31.1532 35.9005 30.3318 35.9005C29.763 35.9005 29.297 35.7899 28.9337 35.5687C28.5703 35.3476 28.1517 34.9921 27.6777 34.5024L38.8152 23.3649C39.3997 22.7804 39.6919 22.0695 39.6919 21.2322C39.6919 20.4107 39.3997 19.6919 38.8152 19.0758L21.872 2.1564C21.2717 1.55608 20.466 1.0466 19.455 0.627962C18.4439 0.209321 17.5197 0 16.6825 0H21.9905C22.8278 0 23.752 0.209321 24.763 0.627962C25.7741 1.0466 26.5798 1.55608 27.1801 2.1564L44.1232 19.0758C44.7077 19.6919 45 20.4107 45 21.2322Z" fill="#9FA8ED"/>
</svg>
