<svg width="41" height="45" viewBox="0 0 41 45" fill="none" xmlns="http://www.w3.org/2000/svg">
<g clip-path="url(#clip0_3110_3006)">
<path d="M11.659 19.0794C12.0946 21.7442 14.2829 25.1357 17.8772 26.3283C19.3525 26.8128 20.9665 26.8221 22.4419 26.319C25.9768 25.117 28.2343 21.7349 28.6799 19.0794C29.1552 19.0422 29.779 18.4179 30.4523 16.1724C31.3732 13.107 30.3929 12.6505 29.5612 12.725C29.7196 12.3057 29.8384 11.8771 29.9176 11.4672C31.3237 3.5195 27.165 3.2493 27.165 3.2493C27.165 3.2493 26.4718 2.00078 24.6598 1.05973C23.4419 0.379564 21.7488 -0.142206 19.5209 0.0348234C18.7981 0.0627754 18.1148 0.202535 17.4712 0.398199C16.6494 0.659084 15.8969 1.04109 15.2137 1.48832C14.3819 1.98214 13.5898 2.59709 12.8967 3.29588C11.7976 4.35806 10.8173 5.7277 10.3915 7.43277C10.0351 8.70925 10.1143 10.0416 10.4113 11.4765C10.4906 11.8958 10.6094 12.315 10.7678 12.7343C9.93607 12.6598 8.9558 13.1163 9.87666 16.1817C10.5599 18.4179 11.1837 19.0422 11.659 19.0794Z" fill="#9FA8ED"/>
<path d="M36.5021 29.5053C31.4423 28.294 27.3331 25.5734 27.3331 25.5734L24.125 35.1236L23.521 36.9219L23.5111 36.8939L22.9863 38.4219L21.2931 33.903C25.4518 28.4431 20.4515 28.499 20.1742 28.5083C19.897 28.499 14.8966 28.4431 19.0553 33.903L17.3622 38.4219L16.8374 36.8939L16.8275 36.9219L16.2235 35.1236L13.0054 25.5734C13.0054 25.5734 8.89623 28.294 3.83649 29.5053C0.0639534 30.4091 -0.114276 34.5087 0.0342484 36.5305C0.0342484 36.5305 0.252085 39.2791 0.469922 40.4904C0.469922 40.4904 7.83676 44.9907 20.1742 45C32.5117 45 39.8785 40.4904 39.8785 40.4904C40.0964 39.2791 40.3142 36.5305 40.3142 36.5305C40.4528 34.5087 40.2746 30.4091 36.5021 29.5053Z" fill="#9FA8ED"/>
</g>
<defs>
<clipPath id="clip0_3110_3006">
<rect width="41" height="45" fill="white"/>
</clipPath>
</defs>
</svg>
