<svg width="4" height="16" viewBox="0 0 4 16" fill="none" xmlns="http://www.w3.org/2000/svg">
<path d="M3.41445 0.585784C4.19549 1.36683 4.19549 2.63316 3.41445 3.41421C2.6334 4.19525 1.36707 4.19525 0.586027 3.41421C-0.195017 2.63316 -0.195017 1.36683 0.586027 0.585784C1.36704 -0.195261 2.63337 -0.195261 3.41445 0.585784Z" fill="#666666"/>
<path d="M3.41445 6.58578C4.19549 7.36683 4.19549 8.63316 3.41445 9.4142C2.6334 10.1952 1.36707 10.1952 0.586027 9.4142C-0.195017 8.63316 -0.195017 7.36683 0.586027 6.58578C1.36704 5.80474 2.63337 5.80474 3.41445 6.58578Z" fill="#666666"/>
<path d="M3.41445 12.5858C4.19549 13.3668 4.19549 14.6332 3.41445 15.4142C2.6334 16.1953 1.36707 16.1953 0.586027 15.4142C-0.195017 14.6332 -0.195017 13.3668 0.586027 12.5858C1.36704 11.8047 2.63337 11.8047 3.41445 12.5858Z" fill="#666666"/>
</svg>
