<svg width="22" height="22" viewBox="0 0 22 22" fill="none" xmlns="http://www.w3.org/2000/svg">
<path d="M11 22C17.0751 22 22 17.0751 22 11C22 4.92487 17.0751 0 11 0C4.92487 0 0 4.92487 0 11C0 17.0751 4.92487 22 11 22Z" fill="white"/>
<path d="M10.9997 4.22559C7.27964 4.22559 4.26172 7.0341 4.26172 10.5078C4.26172 12.4787 5.24716 14.2401 6.7746 15.398V17.7877L9.06575 16.519C9.68165 16.6914 10.3222 16.7777 10.9997 16.7777C14.7197 16.7777 17.7376 13.9691 17.7376 10.4955C17.7376 7.0341 14.7197 4.22559 10.9997 4.22559ZM11.6772 12.6758L9.95265 10.8404L6.60214 12.6758L10.2976 8.7463L12.059 10.5817L15.3603 8.7463L11.6772 12.6758Z" fill="#4C5BD4"/>
</svg>
