<svg width="45" height="45" viewBox="0 0 45 45" fill="none" xmlns="http://www.w3.org/2000/svg">
<path fill-rule="evenodd" clip-rule="evenodd" d="M22.4945 34.0739C18.4338 34.0739 14.3083 31.6578 11.9006 28.4598C2.09058 28.4598 0.359862 40.389 0.060989 43.9857C0.0145692 44.5443 0.460788 45 1.02133 45H44.0393C44.5704 45 45.0044 44.5926 44.9984 44.0615C44.9584 40.5501 44.0179 28.3864 32.9026 28.3864C30.4977 31.6239 26.5552 34.0739 22.4945 34.0739Z" fill="#9FA8ED"/>
<path fill-rule="evenodd" clip-rule="evenodd" d="M32.1697 14.2459C32.1697 19.0047 27.8358 28.1047 22.4854 28.1047C17.1433 28.1047 12.8066 19.0019 12.8066 14.2459C12.8066 9.48992 17.1405 5.62866 22.4854 5.62866C27.8358 5.63148 32.1697 9.49274 32.1697 14.2459Z" fill="#9FA8ED"/>
<path fill-rule="evenodd" clip-rule="evenodd" d="M36.4901 10.1386C36.4901 9.24669 35.251 8.52693 33.7135 8.52129V6.68381C33.7135 6.41002 33.8177 0 22.5197 0C11.2274 0 11.3316 6.41002 11.3316 6.68381V8.58621C11.3034 8.58621 11.2809 8.57774 11.2556 8.57774C9.72646 8.57774 8.49585 9.2862 8.49585 10.164V17.9373C8.49585 18.8095 9.72927 19.5208 11.2556 19.5208C12.7819 19.5208 14.0209 18.8095 14.0209 17.9373V10.164C14.0209 10.0426 13.9449 9.93257 13.8998 9.81966V7.69993C13.8998 7.50517 13.0888 2.66731 22.5197 2.66731C31.9535 2.66731 30.9735 7.50517 30.9735 7.69993V9.93257C30.9566 10.0031 30.9031 10.0652 30.9031 10.1386V18.0897C30.9031 18.9845 32.1506 19.7099 33.6966 19.7099C33.7304 19.7099 33.7557 19.6986 33.7895 19.6986V22.603H31.0185V25.3409H36.5183L36.4901 10.1386Z" fill="#9FA8ED"/>
</svg>
