<svg width="23" height="22" viewBox="0 0 23 22" fill="none" xmlns="http://www.w3.org/2000/svg">
<path d="M11.5 0C5.43771 0 0.5 4.93771 0.5 11C0.5 17.0623 5.43771 22 11.5 22C17.5623 22 22.5 17.0623 22.5 11C22.5 4.93771 17.5697 0 11.5 0ZM11.5 17.3304C10.8819 17.3304 10.3829 16.8314 10.3829 16.2133C10.3829 15.5951 10.8819 15.0961 11.5 15.0961C12.1181 15.0961 12.6171 15.5951 12.6171 16.2133C12.6171 16.8314 12.1181 17.3304 11.5 17.3304ZM12.6171 11.5958C12.6171 12.2139 12.1181 12.7129 11.5 12.7129C10.8819 12.7129 10.3829 12.2139 10.3829 11.5958V5.71225C10.3829 5.09411 10.8819 4.59513 11.5 4.59513C12.1181 4.59513 12.6171 5.09411 12.6171 5.71225V11.5958Z" fill="white"/>
</svg>
