<svg width="40" height="40" viewBox="0 0 40 40" fill="none" xmlns="http://www.w3.org/2000/svg">
<circle cx="20" cy="20" r="20" fill="#EFEFEF"/>
<path d="M20.0858 5.87744C16.0256 5.87744 12.7109 9.19213 12.7109 13.2461C12.7109 17.3002 16.0256 20.6149 20.0796 20.6149C24.1337 20.6149 27.4483 17.3002 27.4483 13.2461C27.4483 9.19213 24.1398 5.87744 20.0858 5.87744Z" fill="#4C5BD4"/>
<path d="M32.7333 26.5102C32.5423 26.0296 32.2835 25.5737 31.9939 25.1609C30.5152 22.9737 28.2295 21.5258 25.6541 21.1685C25.3337 21.1377 24.9764 21.1993 24.7176 21.3965C23.3683 22.3946 21.7541 22.9121 20.0845 22.9121C18.4148 22.9121 16.8006 22.3884 15.4451 21.3903C15.1864 21.1993 14.8352 21.1007 14.5086 21.1623C11.9333 21.5135 9.61671 22.9675 8.16885 25.1547C7.87928 25.5737 7.62051 26.0543 7.42952 26.504C7.33094 26.695 7.3679 26.923 7.46032 27.114C7.71909 27.5637 8.03947 28.0135 8.32904 28.4017C8.7788 29.0116 9.26553 29.5599 9.80771 30.0775C10.2575 30.5272 10.775 30.9462 11.2864 31.3652C13.8309 33.2628 16.8868 34.2609 20.0413 34.2609C23.1958 34.2609 26.2517 33.2628 28.7963 31.3652C29.3138 30.977 29.8252 30.5272 30.275 30.0775C30.7925 29.5599 31.3039 29.0178 31.7536 28.4017C32.074 27.9827 32.3636 27.5637 32.6223 27.114C32.7949 26.9291 32.8318 26.7012 32.7333 26.5102Z" fill="#4C5BD4"/>
</svg>
