<svg width="42" height="45" viewBox="0 0 42 45" fill="none" xmlns="http://www.w3.org/2000/svg">
<path d="M36.9621 0H4.82115C3.5425 0 2.31622 0.507941 1.41208 1.41208C0.507943 2.31622 2.12575e-06 3.5425 2.12575e-06 4.82115V43.3903C-0.000494897 43.696 0.0861746 43.9954 0.249844 44.2535C0.413513 44.5117 0.647395 44.7177 0.924055 44.8476C1.20071 44.9775 1.50868 45.0258 1.81182 44.9869C2.11497 44.948 2.40072 44.8234 2.63556 44.6278L11.2493 37.4443L18.915 43.776C19.4925 44.2571 20.2204 44.5205 20.972 44.5205C21.7236 44.5205 22.4515 44.2571 23.029 43.776L30.5339 37.4443L39.1477 44.6278C39.4369 44.8673 39.8008 44.9981 40.1762 44.9974C40.409 44.9986 40.6394 44.9493 40.8512 44.8527C41.1302 44.7237 41.3662 44.5173 41.5314 44.2581C41.6966 43.9989 41.7841 43.6977 41.7833 43.3903V4.82115C41.7833 3.5425 41.2754 2.31622 40.3712 1.41208C39.4671 0.507941 38.2408 0 36.9621 0ZM32.141 27.3198H9.6423C9.21608 27.3198 8.80732 27.1505 8.50594 26.8491C8.20456 26.5478 8.03525 26.139 8.03525 25.7128C8.03525 25.2866 8.20456 24.8778 8.50594 24.5764C8.80732 24.2751 9.21608 24.1057 9.6423 24.1057H32.141C32.5672 24.1057 32.976 24.2751 33.2774 24.5764C33.5787 24.8778 33.748 25.2866 33.748 25.7128C33.748 26.139 33.5787 26.5478 33.2774 26.8491C32.976 27.1505 32.5672 27.3198 32.141 27.3198ZM32.141 19.2846H9.6423C9.21608 19.2846 8.80732 19.1153 8.50594 18.8139C8.20456 18.5125 8.03525 18.1038 8.03525 17.6775C8.03525 17.2513 8.20456 16.8426 8.50594 16.5412C8.80732 16.2398 9.21608 16.0705 9.6423 16.0705H32.141C32.5672 16.0705 32.976 16.2398 33.2774 16.5412C33.5787 16.8426 33.748 17.2513 33.748 17.6775C33.748 18.1038 33.5787 18.5125 33.2774 18.8139C32.976 19.1153 32.5672 19.2846 32.141 19.2846ZM32.141 11.2493H9.6423C9.21608 11.2493 8.80732 11.08 8.50594 10.7787C8.20456 10.4773 8.03525 10.0685 8.03525 9.6423C8.03525 9.21608 8.20456 8.80732 8.50594 8.50594C8.80732 8.20456 9.21608 8.03525 9.6423 8.03525H32.141C32.5672 8.03525 32.976 8.20456 33.2774 8.50594C33.5787 8.80732 33.748 9.21608 33.748 9.6423C33.748 10.0685 33.5787 10.4773 33.2774 10.7787C32.976 11.08 32.5672 11.2493 32.141 11.2493Z" fill="#9FA8ED"/>
</svg>
