<svg width="45" height="45" viewBox="0 0 45 45" fill="none" xmlns="http://www.w3.org/2000/svg">
<path d="M39.019 37.7558C36.4077 37.7273 33.8096 37.3806 31.2822 36.7232C31.3148 36.5373 31.3339 36.3493 31.3393 36.1607C31.3347 34.9641 30.7938 33.8326 29.8655 33.0774C31.3742 29.1924 32.1465 25.0605 32.1429 20.8929C32.1417 19.4688 32.0494 18.0462 31.8664 16.6339C33.0546 16.2126 33.9753 15.2568 34.3519 14.0537C38.0994 15.0839 41.6232 16.8004 44.7445 19.1162C45.7723 25.8779 43.665 32.7398 39.019 37.759V37.7558ZM19.8201 44.8345C17.7107 44.5853 15.6477 44.036 13.6937 43.2032C13.6736 42.7588 13.6607 42.2976 13.6607 41.7857C13.6634 38.7832 14.0884 35.796 14.9231 32.9119C15.0388 32.9215 15.1497 32.9464 15.2679 32.9464C16.3212 32.9456 17.3318 32.5296 18.0804 31.7885C19.734 33.1351 21.5096 34.3247 23.3839 35.3419C23.0776 36.7956 23.6095 38.2986 24.7621 39.236C23.3401 41.2896 21.6813 43.1686 19.8201 44.8345ZM6.42858 16.875C6.42858 15.5436 7.50789 14.4643 8.83929 14.4643C10.1707 14.4643 11.25 15.5436 11.25 16.875C11.25 18.2064 10.1707 19.2857 8.83929 19.2857C7.50789 19.2857 6.42858 18.2064 6.42858 16.875ZM7.2434 5.98179C11.3915 2.13349 16.8417 -0.00341628 22.5 4.09971e-06C22.6061 4.09971e-06 22.7105 0.00643267 22.8166 0.00803981C25.2201 2.80727 27.1183 6.00332 28.4263 9.45322C27.7222 9.88559 27.1681 10.5241 26.8393 11.2821C26.4648 11.2685 26.0904 11.25 25.7143 11.25C20.931 11.2419 16.2017 12.261 11.8463 14.2385C10.9224 13.1533 9.48304 12.6538 8.08554 12.9335C7.55154 10.654 7.26914 8.32284 7.2434 5.98179ZM44.272 16.8188C41.2791 14.8329 37.9817 13.3497 34.5102 12.428C34.4865 12.2014 34.4435 11.9772 34.3816 11.7579C36.5779 10.9166 38.8614 10.3236 41.1895 9.99C42.5931 12.077 43.6352 14.3856 44.272 16.8188ZM32.9464 12.8571C32.9464 14.1885 31.8671 15.2679 30.5357 15.2679C29.2043 15.2679 28.125 14.1885 28.125 12.8571C28.125 11.5257 29.2043 10.4464 30.5357 10.4464C31.8671 10.4464 32.9464 11.5257 32.9464 12.8571ZM30.5357 20.8929C30.539 24.7982 29.8268 28.671 28.4344 32.3196C28.0737 32.2078 27.699 32.1483 27.3214 32.1429C26.0105 32.1446 24.7833 32.7871 24.0348 33.8633C22.2479 32.8853 20.5562 31.7425 18.982 30.4497C19.646 28.8534 19.1981 27.0109 17.8754 25.8975C20.2533 21.7344 23.5257 18.1511 27.4564 15.4061C28.1535 16.2513 29.1678 16.7724 30.2609 16.8469C30.4386 18.1883 30.5304 19.5397 30.5357 20.8929ZM12.8571 16.875C12.8515 16.4554 12.7794 16.0393 12.6434 15.6423C16.754 13.7988 21.2093 12.8495 25.7143 12.8571C25.9843 12.8571 26.2511 12.8724 26.5179 12.8804C26.5247 13.2523 26.584 13.6212 26.6938 13.9765C22.4944 16.8757 19.0012 20.6828 16.4732 25.1156C15.6304 24.8239 14.7109 24.8442 13.8817 25.1727C12.7177 23.6601 11.6912 22.0465 10.8145 20.3513C12.0716 19.6449 12.8519 18.317 12.8571 16.875ZM15.2679 26.5179C16.5993 26.5179 17.6786 27.5972 17.6786 28.9286C17.6786 30.26 16.5993 31.3393 15.2679 31.3393C13.9365 31.3393 12.8571 30.26 12.8571 28.9286C12.8571 27.5972 13.9365 26.5179 15.2679 26.5179ZM24.9107 36.1607C24.9107 34.8293 25.99 33.75 27.3214 33.75C28.6528 33.75 29.7321 34.8293 29.7321 36.1607C29.7291 36.4464 29.6746 36.7292 29.5714 36.9956V37.0021C29.1652 38.0936 28.0354 38.7375 26.8892 38.5306C25.743 38.3237 24.9096 37.3254 24.9107 36.1607ZM40.1207 8.53313C37.9015 8.90837 35.7263 9.50852 33.6287 10.3243C32.8735 9.38928 31.7376 8.84389 30.5357 8.83929C30.3341 8.8441 30.1331 8.86452 29.9346 8.90036C28.7433 5.74842 27.0811 2.79524 25.0047 0.141433C30.9603 0.812703 36.4015 3.83343 40.1207 8.53313ZM5.68688 7.56884C5.8031 9.58703 6.10218 11.5905 6.58045 13.5546C5.03203 14.5925 4.41453 16.568 5.09625 18.3029C3.23859 19.7345 1.53592 21.3567 0.0160762 23.1429C0.0104512 22.9291 4.80407e-06 22.7154 4.80407e-06 22.5C-0.00359935 16.9937 2.02087 11.6789 5.68688 7.57045V7.56884ZM0.201701 25.466C1.86747 23.2967 3.80309 21.3486 5.9617 19.669C6.71516 20.4504 7.75379 20.8922 8.83929 20.8929C8.98033 20.8865 9.1209 20.8723 9.26036 20.8503C10.1843 22.6692 11.2714 24.4005 12.5084 26.0229C11.5685 26.9028 11.1119 28.1829 11.2829 29.4591C11.4539 30.7352 12.2314 31.85 13.3698 32.4514C12.4954 35.4857 12.0523 38.6279 12.0536 41.7857C12.0536 42.0091 12.0584 42.2132 12.0624 42.4229C5.595 39.0261 1.17441 32.7061 0.201701 25.466ZM22.0098 44.9871C23.5647 43.4645 24.967 41.7935 26.1964 39.9978C26.5608 40.1119 26.9397 40.1728 27.3214 40.1786C28.721 40.1748 30.0172 39.4409 30.7406 38.2428C32.9308 38.8225 35.174 39.1795 37.436 39.3083C33.3265 42.9774 28.0091 45.0037 22.5 45C22.3393 45 22.1737 44.9912 22.0098 44.9871Z" fill="#9FA8ED"/>
</svg>
