<svg width="22" height="22" viewBox="0 0 22 22" fill="none" xmlns="http://www.w3.org/2000/svg">
<path d="M21.7066 9.32806L19.2499 8.59474C19.08 8.0017 18.8465 7.42881 18.5532 6.88608L19.7559 4.63476C19.801 4.54978 19.8176 4.45251 19.803 4.3574C19.7885 4.26228 19.7437 4.17439 19.6752 4.10676L17.9226 2.34677C17.8549 2.27832 17.7671 2.23351 17.6719 2.21898C17.5768 2.20445 17.4796 2.22097 17.3946 2.2661L15.1579 3.46143C14.6098 3.15391 14.0294 2.90797 13.4273 2.7281L12.6939 0.300777C12.6629 0.211323 12.6043 0.134017 12.5266 0.0799879C12.4488 0.0259583 12.3559 -0.00200877 12.2613 0.000112323H9.78262C9.68739 0.000555675 9.59479 0.0313775 9.51829 0.0880922C9.44179 0.144807 9.38538 0.224455 9.35729 0.315444L8.62396 2.73543C8.01677 2.91435 7.43139 3.16031 6.87863 3.46876L4.67864 2.28077C4.59366 2.23564 4.4964 2.21912 4.40128 2.23365C4.30617 2.24818 4.21827 2.29299 4.15065 2.36143L2.36865 4.09942C2.30021 4.16705 2.2554 4.25495 2.24087 4.35006C2.22634 4.44518 2.24286 4.54244 2.28799 4.62742L3.47598 6.82741C3.16803 7.37784 2.92208 7.96074 2.74265 8.5654L0.315332 9.29873C0.224342 9.32683 0.144695 9.38323 0.0879799 9.45973C0.0312652 9.53623 0.000443352 9.62883 0 9.72406V12.2027C0.000443352 12.2979 0.0312652 12.3905 0.0879799 12.467C0.144695 12.5435 0.224342 12.5999 0.315332 12.628L2.75732 13.3614C2.93871 13.956 3.18461 14.5289 3.49065 15.07L2.28799 17.3727C2.24286 17.4577 2.22634 17.5549 2.24087 17.65C2.2554 17.7452 2.30021 17.8331 2.36865 17.9007L4.12131 19.6533C4.18894 19.7218 4.27684 19.7666 4.37195 19.7811C4.46706 19.7957 4.56433 19.7791 4.64931 19.734L6.9153 18.524C7.45134 18.8133 8.01677 19.0444 8.60196 19.2133L9.33529 21.6847C9.36339 21.7757 9.41979 21.8553 9.49629 21.912C9.57279 21.9687 9.66539 21.9996 9.76062 22H12.2393C12.3345 21.9996 12.4271 21.9687 12.5036 21.912C12.5801 21.8553 12.6365 21.7757 12.6646 21.6847L13.3979 19.206C13.9781 19.0361 14.5386 18.8051 15.0699 18.5167L17.3506 19.734C17.4356 19.7791 17.5328 19.7957 17.6279 19.7811C17.7231 19.7666 17.8109 19.7218 17.8786 19.6533L19.6312 17.9007C19.6997 17.8331 19.7445 17.7452 19.759 17.65C19.7736 17.5549 19.757 17.4577 19.7119 17.3727L18.4946 15.0994C18.786 14.566 19.0195 14.003 19.1912 13.42L21.6626 12.6867C21.7535 12.6586 21.8332 12.6022 21.8899 12.5257C21.9466 12.4492 21.9774 12.3566 21.9779 12.2614V9.76073C21.9822 9.66954 21.9585 9.57921 21.91 9.50187C21.8615 9.42453 21.7905 9.36388 21.7066 9.32806ZM11.0219 15.0334C10.2242 15.0334 9.44443 14.7968 8.78115 14.3536C8.11788 13.9104 7.60092 13.2805 7.29565 12.5435C6.99038 11.8065 6.9105 10.9956 7.06613 10.2132C7.22176 9.43081 7.60589 8.71214 8.16996 8.14807C8.73403 7.584 9.4527 7.19987 10.2351 7.04424C11.0175 6.88862 11.8284 6.96849 12.5654 7.27376C13.3024 7.57903 13.9323 8.09599 14.3755 8.75927C14.8187 9.42254 15.0553 10.2023 15.0553 11.0001C15.0553 12.0698 14.6303 13.0956 13.8739 13.852C13.1175 14.6084 12.0916 15.0334 11.0219 15.0334Z" fill="white"/>
</svg>
