<svg width="25" height="25" viewBox="0 0 25 25" fill="none" xmlns="http://www.w3.org/2000/svg">
<path d="M12.5 0C5.59126 0 0 5.59063 0 12.5C0 19.4086 5.59063 25 12.5 25C19.4087 25 25 19.4094 25 12.5C25 5.59136 19.4094 0 12.5 0ZM13.7836 17.462C13.7836 17.8569 13.2078 18.2517 12.5002 18.2517C11.7598 18.2517 11.2333 17.8569 11.2333 17.462V11.1931C11.2333 10.7324 11.7599 10.4197 12.5002 10.4197C13.2078 10.4197 13.7836 10.7324 13.7836 11.1931V17.462ZM12.5003 8.90605C11.7434 8.90605 11.1511 8.34663 11.1511 7.72134C11.1511 7.09609 11.7435 6.55312 12.5003 6.55312C13.2407 6.55312 13.8331 7.09609 13.8331 7.72134C13.8331 8.34663 13.2407 8.90605 12.5003 8.90605Z" fill="#666666"/>
</svg>
