<svg width="45" height="45" viewBox="0 0 45 45" fill="none" xmlns="http://www.w3.org/2000/svg">
<path d="M39.375 10.6855H4.21875V9.25576L35.1562 6.73937V9.25576H39.375V4.96645C39.375 1.82096 36.8691 -0.386602 33.8091 0.0566267L5.56875 4.15721C2.50594 4.60329 0 7.54004 0 10.6855V39.2809C0 40.7977 0.592632 42.2524 1.64752 43.3249C2.70242 44.3975 4.13316 45 5.625 45H39.375C40.8668 45 42.2976 44.3975 43.3525 43.3249C44.4074 42.2524 45 40.7977 45 39.2809V16.4046C45 14.8878 44.4074 13.4331 43.3525 12.3606C42.2976 11.2881 40.8668 10.6855 39.375 10.6855ZM35.1562 30.7195C34.6021 30.7193 34.0533 30.6081 33.5414 30.3923C33.0294 30.1765 32.5643 29.8603 32.1726 29.4617C31.7808 29.0632 31.4701 28.59 31.2582 28.0694C31.0463 27.5487 30.9373 26.9908 30.9375 26.4273C30.9377 25.8638 31.047 25.3059 31.2593 24.7854C31.4715 24.2649 31.7825 23.792 32.1745 23.3937C32.5666 22.9954 33.0319 22.6795 33.544 22.4641C34.0561 22.2486 34.6049 22.1378 35.1591 22.138C36.2783 22.1384 37.3516 22.5908 38.1427 23.3957C38.9339 24.2007 39.3782 25.2922 39.3778 26.4302C39.3774 27.5681 38.9325 28.6593 38.1408 29.4637C37.3491 30.2681 36.2755 30.7198 35.1562 30.7195Z" fill="#9FA8ED"/>
</svg>
