<svg width="17" height="17" viewBox="0 0 17 17" fill="none" xmlns="http://www.w3.org/2000/svg">
<path d="M3.89583 2.125C2.91833 2.125 2.125 2.91833 2.125 3.89583V13.1042C2.125 14.0817 2.91833 14.875 3.89583 14.875H13.1042C14.0817 14.875 14.875 14.0817 14.875 13.1042V10.9792C14.875 10.6974 14.9869 10.4271 15.1862 10.2279C15.3855 10.0286 15.6557 9.91667 15.9375 9.91667C16.2193 9.91667 16.4895 10.0286 16.6888 10.2279C16.8881 10.4271 17 10.6974 17 10.9792V13.1042C17 14.1374 16.5895 15.1283 15.8589 15.8589C15.1283 16.5895 14.1374 17 13.1042 17H3.89583C2.86259 17 1.87167 16.5895 1.14106 15.8589C0.410453 15.1283 0 14.1374 0 13.1042V3.89583C0 2.86259 0.410453 1.87167 1.14106 1.14106C1.87167 0.410453 2.86259 0 3.89583 0H6.02083C6.30263 5.93833e-09 6.57288 0.111942 6.77213 0.311199C6.97139 0.510456 7.08333 0.780707 7.08333 1.0625C7.08333 1.34429 6.97139 1.61454 6.77213 1.8138C6.57288 2.01306 6.30263 2.125 6.02083 2.125H3.89583ZM8.5 1.0625C8.5 0.780707 8.61194 0.510456 8.8112 0.311199C9.01046 0.111942 9.28071 0 9.5625 0H15.9375C16.2193 0 16.4895 0.111942 16.6888 0.311199C16.8881 0.510456 17 0.780707 17 1.0625V7.4375C17 7.71929 16.8881 7.98954 16.6888 8.1888C16.4895 8.38806 16.2193 8.5 15.9375 8.5C15.6557 8.5 15.3855 8.38806 15.1862 8.1888C14.9869 7.98954 14.875 7.71929 14.875 7.4375V3.62808L10.3133 8.18975C10.2153 8.29118 10.098 8.37207 9.96834 8.42769C9.83868 8.48331 9.69925 8.51256 9.55817 8.51372C9.41709 8.51488 9.2772 8.48793 9.14664 8.43444C9.01609 8.38096 8.8975 8.30201 8.79779 8.2022C8.69807 8.10239 8.61924 7.98373 8.56587 7.85312C8.51251 7.72252 8.48569 7.5826 8.48699 7.44152C8.48828 7.30045 8.51765 7.16104 8.5734 7.03144C8.62914 6.90183 8.71014 6.78463 8.81167 6.68667L13.3733 2.125H9.5625C9.28071 2.125 9.01046 2.01306 8.8112 1.8138C8.61194 1.61454 8.5 1.34429 8.5 1.0625Z" fill="#666666"/>
</svg>
