<svg width="45" height="45" viewBox="0 0 45 45" fill="none" xmlns="http://www.w3.org/2000/svg">
<path d="M45 22.5C45 10.0935 34.9065 0 22.5 0C10.0935 0 0 10.0935 0 22.5C0 34.9065 10.0935 45 22.5 45C34.9065 45 45 34.9065 45 22.5ZM26.0078 34.8895H24.8351V38.726H20.1649V34.8895H13.8653V30.2193H26.0078C27.5473 30.2193 28.7997 28.9669 28.7997 27.4274C28.7997 25.888 27.5473 24.6356 26.0078 24.6356H20.3729C16.3683 24.6356 13.1103 21.3776 13.1103 17.373C13.1103 13.438 16.2564 10.2264 20.1649 10.1156V6.27385H24.8351V10.1103H29.8866V14.7806H20.3729C18.9435 14.7806 17.7806 15.9434 17.7806 17.373C17.7806 18.8024 18.9435 19.9653 20.3729 19.9653H26.0078C30.1225 19.9653 33.47 23.3128 33.47 27.4274C33.4698 31.5421 30.1223 34.8895 26.0078 34.8895Z" fill="#9FA8ED"/>
</svg>
