<svg width="19" height="22" viewBox="0 0 19 22" fill="none" xmlns="http://www.w3.org/2000/svg">
<path d="M17.7668 15.5019C16.3787 14.3287 15.5836 12.6182 15.5836 10.8045V8.24735C15.5836 5.01976 13.1855 2.35086 10.0825 1.9039V0.915418C10.0825 0.408285 9.6699 0 9.16707 0C8.66424 0 8.25165 0.403987 8.25165 0.91112V1.8996C5.14439 2.35086 2.75055 5.01976 2.75055 8.24735V10.8045C2.75055 12.6182 1.95547 14.3329 0.563003 15.5105C0.206291 15.8157 0 16.2583 0 16.7268C0 17.6121 0.717722 18.3298 1.60306 18.3298H16.7311C17.6164 18.3298 18.3341 17.6121 18.3341 16.7268C18.3384 16.2583 18.1321 15.8157 17.7668 15.5019Z" fill="white"/>
<path d="M9.16786 21.9996C10.8268 21.9996 12.2193 20.8177 12.5373 19.249H5.80273C6.12077 20.8177 7.50894 21.9996 9.16786 21.9996Z" fill="white"/>
</svg>
