<svg width="80" height="92" viewBox="0 0 80 92" fill="none" xmlns="http://www.w3.org/2000/svg">
<path d="M50.0003 49.5182C48.1565 49.5182 46.6722 51.2325 46.6722 53.3218V68.5718C46.6722 70.679 45.1721 72.3754 43.344 72.3754H33.3439V15.2322C33.3439 11.9822 31.5314 9.07148 28.797 7.98219L27.8127 7.60719H43.344C45.1878 7.60719 46.6722 9.32149 46.6722 11.4108V22.8394C46.6722 24.9466 48.1565 26.643 50.0003 26.643C51.8441 26.643 53.3284 24.9287 53.3284 22.8394V11.4286C53.3284 5.12503 48.844 0 43.3284 0H7.50004C7.37504 0 7.26567 0.071429 7.14067 0.0892863C6.98442 0.071429 6.82817 0 6.65629 0C2.98439 0 0 3.41074 0 7.62505V76.1969C0 79.4469 1.81251 82.3576 4.5469 83.4469L24.5939 91.072C25.2814 91.3041 25.9533 91.4291 26.6564 91.4291C30.3283 91.4291 33.3283 88.0184 33.3283 83.8041V80.0005H43.3284C48.844 80.0005 53.3284 74.8755 53.3284 68.5718V53.3396C53.3284 51.2325 51.8441 49.5182 50.0003 49.5182Z" fill="#4C5BD4"/>
<path d="M79.0158 35.3896L65.6876 20.1574C64.7345 19.0681 63.297 18.7466 62.0626 19.3359C60.8126 19.9252 60.0001 21.3181 60.0001 22.8538V34.2825H46.6719C44.8281 34.2825 43.3438 35.9968 43.3438 38.0861C43.3438 40.1754 44.8438 41.8897 46.6719 41.8897H60.0001V53.3183C60.0001 54.854 60.8126 56.2469 62.0626 56.8362C63.3126 57.4255 64.7501 57.104 65.6876 56.0147L79.0158 40.7825C80.3283 39.3003 80.3283 36.8896 79.0158 35.3896Z" fill="#4C5BD4"/>
</svg>
