<svg width="25" height="20" viewBox="0 0 25 20" fill="none" xmlns="http://www.w3.org/2000/svg">
<path d="M23.3507 0H1.64934C0.739943 0 0 0.74806 0 1.66744V18.3326C0 19.252 0.739943 20 1.64934 20H23.3507C24.2601 20 25 19.252 25 18.3326V1.66744C25 0.74806 24.2602 0 23.3507 0ZM1.64934 1.42923H23.3507C23.4784 1.42923 23.5863 1.53833 23.5863 1.66744V12.7653L19.8062 7.86077C19.5257 7.49689 19.1151 7.27879 18.6797 7.26259C18.2444 7.24611 17.819 7.43324 17.5127 7.7754L12.6082 13.2553C12.4901 13.3871 12.228 13.4235 12.079 13.3288L8.04635 10.7614C7.35532 10.3212 6.34394 10.3666 5.6941 10.8666L1.41372 14.16V1.66744C1.41372 1.53833 1.52164 1.42923 1.64934 1.42923ZM23.3507 18.5708H1.64934C1.52164 18.5708 1.41372 18.4617 1.41372 18.3326V15.956L6.55035 12.0039C6.72876 11.8667 7.10358 11.8499 7.29312 11.9707L11.3258 14.5381C12.0547 15.0023 13.0784 14.8599 13.6565 14.2142L18.5611 8.73432C18.5905 8.70145 18.6115 8.69144 18.6278 8.69078C18.6401 8.69125 18.6641 8.70421 18.691 8.73918L23.5863 15.0905V18.3325C23.5863 18.4617 23.4784 18.5708 23.3507 18.5708Z" fill="#474747"/>
<path d="M10.4491 9.6758C11.8298 9.6758 12.9529 8.54033 12.9529 7.14454C12.9529 5.74876 11.8297 4.61328 10.4491 4.61328C9.06847 4.61328 7.94531 5.74885 7.94531 7.14454C7.94531 8.54023 9.06847 9.6758 10.4491 9.6758ZM10.4491 6.04242C11.0502 6.04242 11.5392 6.53674 11.5392 7.14445C11.5392 7.75215 11.0502 8.24648 10.4491 8.24648C9.848 8.24648 9.35904 7.75215 9.35904 7.14445C9.35904 6.53683 9.848 6.04242 10.4491 6.04242Z" fill="#474747"/>
</svg>
