<svg width="112" height="89" viewBox="0 0 112 89" fill="none" xmlns="http://www.w3.org/2000/svg">
<path d="M108.131 14.1666C105.909 11.8392 102.841 10.4639 99.3503 10.4639H81.7889V10.2524C81.7889 7.60757 80.731 5.06857 78.9326 3.3759C77.1341 1.57745 74.7009 0.519531 72.0561 0.519531H40.3186C37.5681 0.519531 35.1349 1.57745 33.3364 3.3759C31.5379 5.17436 30.48 7.60757 30.48 10.2524V10.4639H13.0244C9.5333 10.4639 6.46534 11.8392 4.24372 14.1666C2.0221 16.3883 0.541016 19.562 0.541016 22.9473V75.6316C0.541016 79.1227 1.91631 82.1906 4.24372 84.4123C6.46534 86.6339 9.63909 88.115 13.0244 88.115H99.3503C102.841 88.115 105.909 86.7397 108.131 84.4123C110.353 82.1906 111.834 79.0169 111.834 75.6316V22.9473C111.834 19.4562 110.458 16.3883 108.131 14.1666ZM106.333 75.6316H106.227C106.227 77.5358 105.486 79.2285 104.217 80.498C102.947 81.7675 101.255 82.508 99.3503 82.508H13.0244C11.1202 82.508 9.42751 81.7675 8.15801 80.498C6.88851 79.2285 6.14797 77.5358 6.14797 75.6316V22.9473C6.14797 21.0431 6.88851 19.3504 8.15801 18.0809C9.42751 16.8114 11.1202 16.0709 13.0244 16.0709H33.4422C35.0291 16.0709 36.2986 14.8014 36.2986 13.2145V10.1466C36.2986 8.98286 36.7217 7.92494 37.4623 7.1844C38.2028 6.44386 39.2607 6.02069 40.4244 6.02069H72.0561C73.2198 6.02069 74.2777 6.44386 75.0183 7.1844C75.7588 7.92494 76.182 8.98286 76.182 10.1466V13.2145C76.182 14.8014 77.4515 16.0709 79.0384 16.0709H99.4561C101.36 16.0709 103.053 16.8114 104.323 18.0809C105.592 19.3504 106.333 21.0431 106.333 22.9473V75.6316Z" fill="#666666"/>
<path d="M56.1878 23.2656C48.994 23.2656 42.4349 26.2278 37.7801 30.8826C33.0195 35.6432 30.1631 42.0965 30.1631 49.2904C30.1631 56.4842 33.1253 63.0433 37.7801 67.6981C42.5407 72.4587 48.994 75.3151 56.1878 75.3151C63.3816 75.3151 69.9407 72.3529 74.5956 67.6981C79.3562 62.9375 82.2125 56.4842 82.2125 49.2904C82.2125 42.0965 79.2504 35.5375 74.5956 30.8826C69.9407 26.2278 63.3816 23.2656 56.1878 23.2656ZM70.5755 63.7838C66.8728 67.3807 61.7948 69.7081 56.1878 69.7081C50.5809 69.7081 45.5029 67.3807 41.8002 63.7838C38.0975 60.0811 35.8758 55.0031 35.8758 49.3962C35.8758 43.7892 38.2032 38.7112 41.8002 35.0085C45.5029 31.3058 50.5809 29.0842 56.1878 29.0842C61.7948 29.0842 66.8728 31.4116 70.5755 35.0085C74.2782 38.7112 76.4998 43.7892 76.4998 49.3962C76.6056 55.0031 74.2782 60.0811 70.5755 63.7838Z" fill="#666666"/>
<path d="M93.8517 33.5277C96.7147 33.5277 99.0355 31.2069 99.0355 28.3439C99.0355 25.481 96.7147 23.1602 93.8517 23.1602C90.9888 23.1602 88.668 25.481 88.668 28.3439C88.668 31.2069 90.9888 33.5277 93.8517 33.5277Z" fill="#666666"/>
</svg>
