<svg xmlns="http://www.w3.org/2000/svg" width="49" height="49" viewBox="0 0 49 49" fill="none">
<circle cx="24.5" cy="24.5" r="24.5" fill="#4C5BD4"/>
<path d="M26.7103 29.5977H22.2702L21.6412 10.7559H27.3393L26.7103 29.5977ZM24.4903 32.5482C25.3906 32.5482 26.1121 32.8158 26.6548 33.3511C27.2098 33.8864 27.4873 34.5712 27.4873 35.4053C27.4873 36.2269 27.2098 36.9054 26.6548 37.4407C26.1121 37.976 25.3906 38.2437 24.4903 38.2437C23.6023 38.2437 22.8807 37.976 22.3257 37.4407C21.7831 36.9054 21.5117 36.2269 21.5117 35.4053C21.5117 34.5836 21.7831 33.9051 22.3257 33.3698C22.8807 32.822 23.6023 32.5482 24.4903 32.5482Z" fill="white"/>
</svg>