<svg width="20" height="16" viewBox="0 0 20 16" fill="none" xmlns="http://www.w3.org/2000/svg">
<path d="M17.9751 0.320312H2.39253C1.43161 0.320312 0.661133 1.09079 0.661133 2.05171V4.64882H2.39253V2.05171H17.9751V14.1715H11.9152V15.9029H17.9751C18.4343 15.9029 18.8747 15.7205 19.1994 15.3958C19.5241 15.0711 19.7065 14.6307 19.7065 14.1715V2.05171C19.7065 1.59252 19.5241 1.15213 19.1994 0.827428C18.8747 0.502727 18.4343 0.320313 17.9751 0.320312ZM0.661133 6.38022V8.11162C1.6843 8.11162 2.69745 8.31315 3.64274 8.70469C4.58802 9.09624 5.44693 9.67015 6.17042 10.3936C6.89391 11.1171 7.46781 11.976 7.85936 12.9213C8.25091 13.8666 8.45244 14.8798 8.45244 15.9029H10.1838C10.1838 10.6395 5.91594 6.38022 0.661133 6.38022ZM16.2437 3.78311H4.12393V5.19421C7.55211 6.3023 10.2618 9.01195 11.3698 12.4401H16.2437V3.78311ZM0.661133 9.84302V11.5744C1.22956 11.5744 1.79242 11.6864 2.31758 11.9039C2.84274 12.1214 3.31991 12.4403 3.72185 12.8422C4.12378 13.2441 4.44262 13.7213 4.66015 14.2465C4.87768 14.7716 4.98964 15.3345 4.98964 15.9029H6.72104C6.72104 14.2957 6.08258 12.7544 4.94613 11.6179C3.80968 10.4815 2.26832 9.84302 0.661133 9.84302ZM0.661133 13.3058V15.9029H3.25823C3.25823 15.2141 2.98461 14.5535 2.49756 14.0665C2.01051 13.5794 1.34993 13.3058 0.661133 13.3058Z" fill="white"/>
</svg>
