<svg width="30" height="30" viewBox="0 0 30 30" fill="none" xmlns="http://www.w3.org/2000/svg">
<path d="M25.8352 25.0894C24.154 25.0711 22.4813 24.8482 20.8542 24.4255C20.8751 24.3059 20.8874 24.185 20.8909 24.0638C20.8879 23.2943 20.5397 22.5667 19.9421 22.0811C20.9134 19.583 21.4106 16.926 21.4082 14.2461C21.4075 13.3304 21.348 12.4157 21.2303 11.5076C21.9952 11.2366 22.588 10.622 22.8304 9.84837C25.2431 10.5108 27.5118 11.6146 29.5213 13.1037C30.183 17.4517 28.8263 21.864 25.8352 25.0915V25.0894ZM13.4747 29.6412C12.1167 29.4809 10.7885 29.1277 9.53047 28.5923C9.51753 28.3065 9.50925 28.0099 9.50925 27.6808C9.51101 25.7501 9.78461 23.8292 10.322 21.9747C10.3965 21.9809 10.4679 21.9969 10.5439 21.9969C11.2221 21.9964 11.8727 21.7288 12.3547 21.2523C13.4193 22.1182 14.5624 22.8831 15.7692 23.5372C15.5719 24.472 15.9144 25.4384 16.6564 26.0412C15.7409 27.3617 14.673 28.57 13.4747 29.6412ZM4.85313 11.6626C4.85313 10.8064 5.54801 10.1124 6.40517 10.1124C7.26234 10.1124 7.95721 10.8064 7.95721 11.6626C7.95721 12.5187 7.26234 13.2127 6.40517 13.2127C5.54801 13.2127 4.85313 12.5187 4.85313 11.6626ZM5.37772 4.65796C8.04832 2.18341 11.5572 0.809327 15.2001 0.811526C15.2684 0.811526 15.3356 0.81566 15.4039 0.816693C16.9513 2.61667 18.1734 4.6718 19.0155 6.89017C18.5622 7.1682 18.2055 7.57878 17.9937 8.06622C17.7527 8.05744 17.5116 8.04555 17.2695 8.04555C14.1899 8.04032 11.1451 8.69565 8.34108 9.96722C7.74627 9.26941 6.81963 8.94825 5.9199 9.12807C5.57611 7.66231 5.39429 6.16331 5.37772 4.65796ZM29.2171 11.6264C27.2902 10.3494 25.1673 9.39572 22.9323 8.80306C22.9171 8.65732 22.8894 8.51315 22.8496 8.37212C24.2635 7.83117 25.7337 7.44987 27.2325 7.23534C28.1362 8.57735 28.8071 10.0618 29.2171 11.6264ZM21.9256 9.07898C21.9256 9.93511 21.2307 10.6291 20.3735 10.6291C19.5164 10.6291 18.8215 9.93511 18.8215 9.07898C18.8215 8.22286 19.5164 7.52884 20.3735 7.52884C21.2307 7.52884 21.9256 8.22286 21.9256 9.07898ZM20.3735 14.2461C20.3757 16.7573 19.9171 19.2477 19.0207 21.5938C18.7885 21.522 18.5472 21.4837 18.3042 21.4802C17.4602 21.4813 16.6701 21.8944 16.1882 22.5865C15.0378 21.9576 13.9487 21.2227 12.9351 20.3915C13.3626 19.365 13.0743 18.1802 12.2227 17.4643C13.7536 14.7873 15.8604 12.4831 18.3911 10.718C18.8399 11.2615 19.4929 11.5966 20.1966 11.6445C20.311 12.507 20.3701 13.376 20.3735 14.2461ZM8.99191 11.6626C8.98827 11.3927 8.94182 11.1252 8.85429 10.8699C11.5007 9.68452 14.3691 9.07407 17.2695 9.07898C17.4433 9.07898 17.615 9.0888 17.7868 9.09397C17.7912 9.33305 17.8294 9.57032 17.9001 9.79877C15.1964 11.663 12.9475 14.1111 11.32 16.9615C10.7773 16.7739 10.1854 16.787 9.65152 16.9982C8.90214 16.0256 8.24127 14.988 7.67681 13.8979C8.48619 13.4436 8.98852 12.5898 8.99191 11.6626ZM10.5439 17.8632C11.4011 17.8632 12.096 18.5572 12.096 19.4133C12.096 20.2694 11.4011 20.9635 10.5439 20.9635C9.68678 20.9635 8.99191 20.2694 8.99191 19.4133C8.99191 18.5572 9.68678 17.8632 10.5439 17.8632ZM16.7521 24.0638C16.7521 23.2076 17.447 22.5136 18.3042 22.5136C19.1613 22.5136 19.8562 23.2076 19.8562 24.0638C19.8542 24.2475 19.8192 24.4293 19.7527 24.6006V24.6048C19.4912 25.3067 18.7638 25.7207 18.0259 25.5876C17.288 25.4546 16.7514 24.8127 16.7521 24.0638ZM26.5445 6.29853C25.1157 6.53982 23.7153 6.92573 22.3648 7.45029C21.8786 6.84906 21.1473 6.49836 20.3735 6.4954C20.2437 6.4985 20.1143 6.51162 19.9866 6.53467C19.2196 4.5079 18.1494 2.60893 16.8126 0.902468C20.6469 1.33411 24.15 3.27652 26.5445 6.29853ZM4.37562 5.67847C4.45045 6.97622 4.643 8.2645 4.95091 9.52749C3.95403 10.1948 3.55647 11.4652 3.99537 12.5808C2.79939 13.5013 1.70319 14.5444 0.724705 15.693C0.721084 15.5555 0.714359 15.4181 0.714359 15.2796C0.712038 11.7389 2.01541 8.32137 4.37562 5.67951V5.67847ZM0.844213 17.1868C1.91665 15.7919 3.16282 14.5392 4.55255 13.4592C5.03764 13.9617 5.70632 14.2457 6.40517 14.2461C6.49597 14.242 6.58648 14.2329 6.67626 14.2188C7.27108 15.3884 7.97099 16.5017 8.76738 17.5449C8.16224 18.1107 7.86832 18.9338 7.97842 19.7544C8.08851 20.575 8.58903 21.2918 9.32197 21.6786C8.75901 23.6297 8.47374 25.6502 8.47456 27.6808C8.47456 27.8244 8.47766 27.9557 8.48025 28.0905C4.31647 25.9063 1.47045 21.8424 0.844213 17.1868ZM14.8845 29.7394C15.8856 28.7603 16.7883 27.6857 17.5799 26.5311C17.8144 26.6045 18.0584 26.6436 18.3042 26.6473C19.2052 26.6449 20.0397 26.173 20.5055 25.4026C21.9155 25.7753 23.3597 26.0049 24.816 26.0877C22.1703 28.4471 18.7469 29.75 15.2001 29.7476C15.0966 29.7476 14.99 29.7419 14.8845 29.7394Z" fill="white"/>
</svg>
