<svg width="30" height="30" viewBox="0 0 30 30" fill="none" xmlns="http://www.w3.org/2000/svg">
<path d="M14.9778 29.0015C22.9683 29.0015 29.4459 22.524 29.4459 14.5335C29.4459 6.543 22.9683 0.0654297 14.9778 0.0654297C6.98733 0.0654297 0.509766 6.543 0.509766 14.5335C0.509766 22.524 6.98733 29.0015 14.9778 29.0015Z" fill="#666666"/>
<path d="M14.978 5.62207C10.0851 5.62207 6.11572 9.31604 6.11572 13.8849C6.11572 16.4772 7.41185 18.794 9.42086 20.3169V23.4601L12.4344 21.7913C13.2444 22.0181 14.0869 22.1315 14.978 22.1315C19.8709 22.1315 23.8403 18.4376 23.8403 13.8687C23.8403 9.31604 19.8709 5.62207 14.978 5.62207ZM15.8691 16.7364L13.6009 14.3223L9.19403 16.7364L14.0545 11.5681L16.3714 13.9821L20.7134 11.5681L15.8691 16.7364Z" fill="white"/>
</svg>
