<svg width="26" height="26" viewBox="0 0 26 26" fill="none" xmlns="http://www.w3.org/2000/svg">
<path d="M25.3398 20.9321L11.5781 25.7665L5.05781 7.33291L7.04843 4.69229C7.26171 4.75322 7.48515 4.81416 7.70859 4.88525C9.07968 5.33213 10.207 5.93135 10.9586 6.5915C10.6133 7.18057 10.5219 7.90166 10.7656 8.59229C11.2023 9.83135 12.5633 10.4915 13.8023 10.0548C15.0414 9.61807 15.7016 8.25713 15.2648 7.01807C14.8281 5.779 13.4672 5.11885 12.2281 5.55557C12.1976 5.56572 12.1773 5.57588 12.1469 5.58604C11.0906 4.59072 9.56718 3.83916 7.98281 3.3415L10.3289 0.213379L18.8297 2.33604L25.3398 20.9321ZM7.94218 3.38213C6.17499 2.72197 2.38671 2.4376 0.294525 2.62041L0.304681 4.14385C2.10234 3.98135 5.41327 4.20479 7.01796 4.67197L7.94218 3.38213Z" fill="white"/>
</svg>
