<svg width="18" height="26" viewBox="0 0 18 26" fill="none" xmlns="http://www.w3.org/2000/svg">
<path fill-rule="evenodd" clip-rule="evenodd" d="M0.644897 6.03699V24.4639C0.644897 25.3153 1.47048 25.9994 2.49593 25.9994H14.9174C15.9429 25.9994 16.7685 25.3145 16.7685 24.4639V6.03699H0.644897ZM4.63699 9.87662H4.8653C5.2275 9.87662 5.51888 10.2876 5.51888 10.7978V21.2398C5.51888 21.7502 5.2275 22.1611 4.8653 22.1611H4.63699C4.27499 22.1611 3.98341 21.7502 3.98341 21.2398V10.7978C3.98341 10.2876 4.27499 9.87662 4.63699 9.87662ZM8.59252 9.87662H8.82083C9.18283 9.87662 9.47441 10.2876 9.47441 10.7978V21.2398C9.47441 21.7502 9.18283 22.1611 8.82083 22.1611H8.59291C8.23091 22.1611 7.93933 21.7502 7.93933 21.2398V10.7978C7.93933 10.2876 8.23091 9.87662 8.59291 9.87662H8.59252ZM12.5481 9.87662H12.7764C13.1384 9.87662 13.4299 10.2876 13.4299 10.7978V21.2398C13.4299 21.7502 13.1384 22.1611 12.7764 22.1611H12.5481C12.1859 22.1611 11.8945 21.7502 11.8945 21.2398V10.7978C11.8945 10.2876 12.1859 9.87662 12.5481 9.87662Z" fill="white"/>
<path fill-rule="evenodd" clip-rule="evenodd" d="M6.45182 0.00038675C5.67209 0.00038675 5.03941 0.759026 5.03941 1.69489V2.49378H1.67709C0.7509 2.49378 0 2.98367 0 3.58811V4.98117H17.4133V3.58811C17.4133 2.98367 16.6624 2.49378 15.7362 2.49378H12.3735V1.69451C12.3735 0.758639 11.7412 0 10.9611 0L6.45182 0.00038675ZM6.99802 1.29168H10.4135C10.7123 1.29168 10.9553 1.5819 10.9553 1.941V2.49378H6.45879V1.94062C6.45879 1.58287 6.69987 1.29245 6.99802 1.29129V1.29168Z" fill="white"/>
</svg>
