<svg width="26" height="26" viewBox="0 0 26 26" fill="none" xmlns="http://www.w3.org/2000/svg">
<path d="M14.1254 0.340192C13.0067 -0.113397 11.7552 -0.113397 10.6365 0.340192L7.92505 1.43962L19.8009 6.05772L23.9782 4.44448C23.807 4.30237 23.6149 4.18753 23.4087 4.104L14.1254 0.340192ZM24.7619 6.132L13.3095 10.557V13.4046C14.0614 12.597 14.9717 11.9532 15.9835 11.5133C16.9954 11.0734 18.0871 10.8469 19.1905 10.8479C21.3534 10.8479 23.3158 11.701 24.7619 13.0889V6.13076V6.132ZM11.4524 16.6806V10.557L0 6.132V18.0635C0.000243928 18.4947 0.129151 18.9161 0.370224 19.2736C0.611297 19.6311 0.953569 19.9086 1.35324 20.0705L10.6365 23.8343C10.9027 23.942 11.175 24.0237 11.4524 24.0819V21.1142C11.2463 20.3927 11.1421 19.6459 11.1429 18.8955C11.1429 18.1267 11.2506 17.3826 11.4524 16.6793V16.6806ZM0.783714 4.44324L12.381 8.92514L17.2306 7.05067L5.41543 2.45734L1.35324 4.104C1.14276 4.18943 0.952095 4.30457 0.783714 4.44448V4.44324ZM19.1905 12.086C17.3845 12.086 15.6524 12.8034 14.3754 14.0805C13.0984 15.3575 12.381 17.0895 12.381 18.8955C12.381 20.7015 13.0984 22.4336 14.3754 23.7106C15.6524 24.9876 17.3845 25.705 19.1905 25.705C20.9965 25.705 22.7285 24.9876 24.0055 23.7106C25.2826 22.4336 26 20.7015 26 18.8955C26 17.0895 25.2826 15.3575 24.0055 14.0805C22.7285 12.8034 20.9965 12.086 19.1905 12.086ZM14.8596 18.8435L14.8782 18.737L14.903 18.659L14.9463 18.5761L14.9859 18.5167L18.1331 15.362L18.2198 15.2914C18.339 15.2099 18.4829 15.1726 18.6267 15.1859C18.7704 15.1993 18.905 15.2625 19.0071 15.3646C19.1092 15.4667 19.1724 15.6013 19.1858 15.745C19.1991 15.8888 19.1618 16.0327 19.0803 16.1519L19.0097 16.2386L16.9693 18.2777H23.5238L23.6352 18.2876C23.7589 18.3102 23.8728 18.3699 23.9617 18.4589C24.0506 18.5478 24.1104 18.6616 24.133 18.7853L24.1429 18.8968L24.133 19.0082C24.1104 19.1319 24.0506 19.2458 23.9617 19.3347C23.8728 19.4236 23.7589 19.4833 23.6352 19.5059L23.5238 19.5146L16.9718 19.5158L19.0097 21.5525L19.0803 21.6391C19.1516 21.7425 19.1898 21.8652 19.1898 21.9908C19.1898 22.1164 19.1516 22.239 19.0803 22.3424L19.0097 22.4291L18.923 22.4996C18.8197 22.571 18.697 22.6092 18.5714 22.6092C18.4458 22.6092 18.3232 22.571 18.2198 22.4996L18.1331 22.4291L15.023 19.3177L14.9673 19.2484L14.9153 19.1568L14.8782 19.054L14.8633 18.9797L14.8571 18.9104L14.8596 18.8435Z" fill="white"/>
</svg>
