<svg width="25" height="26" viewBox="0 0 25 26" fill="none" xmlns="http://www.w3.org/2000/svg">
<path d="M15.3761 0.336914C14.4226 0.124016 13.4496 0.0111006 12.4728 0C11.4718 0.0108333 10.4979 0.124583 9.54345 0.336914C9.33992 0.38244 9.15573 0.490464 9.01664 0.645865C8.87756 0.801267 8.79055 0.996268 8.76779 1.20357L8.54137 3.23698C8.50891 3.52378 8.40977 3.79901 8.25187 4.04063C8.09398 4.28226 7.88171 4.48356 7.63207 4.62844C7.38243 4.77332 7.10234 4.85775 6.81421 4.87498C6.52609 4.8922 6.23793 4.84174 5.97281 4.72763L4.10949 3.90755C3.92036 3.82429 3.71002 3.80187 3.50759 3.84341C3.30516 3.88494 3.12064 3.98837 2.97958 4.13939C1.63198 5.58136 0.628618 7.30992 0.0448502 9.19526C-0.0166522 9.39375 -0.0148613 9.60645 0.0499743 9.80387C0.11481 10.0013 0.239476 10.1736 0.406681 10.297L2.06092 11.5157C2.2936 11.687 2.48276 11.9105 2.61313 12.1683C2.7435 12.4262 2.81143 12.711 2.81143 12.9999C2.81143 13.2888 2.7435 13.5737 2.61313 13.8315C2.48276 14.0893 2.2936 14.3128 2.06092 14.4841L0.406681 15.706C0.239692 15.8293 0.115164 16.0015 0.0503385 16.1987C-0.0144875 16.3959 -0.0164055 16.6084 0.0448502 16.8067C0.627412 18.6937 1.63004 20.4241 2.97741 21.868C3.11835 22.0192 3.3028 22.1228 3.50524 22.1646C3.70768 22.2063 3.91808 22.184 4.10732 22.1009L5.97931 21.2787C6.24288 21.1636 6.52983 21.112 6.81699 21.1282C7.10415 21.1444 7.38348 21.2278 7.63246 21.3718C8.13729 21.6643 8.4742 22.1789 8.54029 22.7596L8.76562 24.793C8.78825 24.9975 8.87342 25.1901 9.00953 25.3444C9.14563 25.4987 9.32603 25.6073 9.52611 25.6553C11.4538 26.1149 13.4625 26.1149 15.3902 25.6553C15.5902 25.6073 15.7706 25.4987 15.9067 25.3444C16.0428 25.1901 16.128 24.9975 16.1506 24.793L16.376 22.7563C16.4065 22.4693 16.5044 22.1936 16.6616 21.9516C16.8188 21.7095 17.0309 21.508 17.2807 21.3634C17.5304 21.2188 17.8108 21.1351 18.099 21.1193C18.3872 21.1034 18.675 21.1558 18.9391 21.2722L20.81 22.0944C20.9993 22.1776 21.2097 22.1998 21.4121 22.1581C21.6145 22.1163 21.799 22.0127 21.9399 21.8615C23.2866 20.4192 24.2892 18.6907 24.8725 16.8056C24.934 16.6071 24.9322 16.3944 24.8674 16.197C24.8025 15.9996 24.6779 15.8273 24.5107 15.7039L22.8586 14.4841C22.6259 14.3129 22.4366 14.0894 22.3061 13.8317C22.1757 13.5739 22.1076 13.2891 22.1075 13.0002C22.1074 12.7113 22.1753 12.4264 22.3055 12.1685C22.4358 11.9107 22.6249 11.6871 22.8575 11.5157L24.5096 10.2948C24.6764 10.1714 24.8007 9.99917 24.8653 9.80199C24.9299 9.6048 24.9317 9.3924 24.8703 9.19418C24.2869 7.30891 23.284 5.58033 21.9367 4.1383C21.7956 3.98729 21.6111 3.88386 21.4087 3.84232C21.2062 3.80079 20.9959 3.82321 20.8068 3.90647L18.9435 4.72655C18.7116 4.82976 18.4606 4.88292 18.2068 4.88255C17.753 4.88171 17.3154 4.71345 16.978 4.40999C16.6406 4.10654 16.427 3.68924 16.3781 3.23806L16.1506 1.20249C16.128 0.995612 16.0412 0.800986 15.9026 0.645801C15.7639 0.490616 15.5802 0.382625 15.3772 0.336914H15.3761ZM12.4587 17.3332C11.3094 17.3332 10.2072 16.8767 9.39457 16.064C8.58191 15.2514 8.12537 14.1492 8.12537 12.9999C8.12537 11.8506 8.58191 10.7484 9.39457 9.9358C10.2072 9.12314 11.3094 8.6666 12.4587 8.6666C13.6079 8.6666 14.7101 9.12314 15.5228 9.9358C16.3354 10.7484 16.792 11.8506 16.792 12.9999C16.792 14.1492 16.3354 15.2514 15.5228 16.064C14.7101 16.8767 13.6079 17.3332 12.4587 17.3332Z" fill="white"/>
</svg>
