<svg width="26" height="21" viewBox="0 0 26 21" fill="none" xmlns="http://www.w3.org/2000/svg">
<path d="M6.13375 4.38125C6.13375 3.89749 5.96261 3.48447 5.62033 3.14218C5.27804 2.79989 4.86502 2.62875 4.38125 2.62875C3.89749 2.62875 3.48447 2.79989 3.14218 3.14218C2.79989 3.48447 2.62875 3.89749 2.62875 4.38125C2.62875 4.86502 2.79989 5.27804 3.14218 5.62033C3.48447 5.96261 3.89749 6.13375 4.38125 6.13375C4.86502 6.13375 5.27804 5.96261 5.62033 5.62033C5.96261 5.27804 6.13375 4.86502 6.13375 4.38125ZM20.7425 12.2675C20.7425 12.7513 20.5736 13.162 20.2359 13.4997L13.5134 20.2359C13.1575 20.5736 12.7421 20.7425 12.2675 20.7425C11.7837 20.7425 11.373 20.5736 11.0353 20.2359L1.24592 10.4329C0.89907 10.0951 0.604704 9.63419 0.362823 9.05003C0.120941 8.46586 0 7.93189 0 7.44813V1.7525C0 1.27787 0.173425 0.867123 0.520274 0.520274C0.867123 0.173425 1.27787 0 1.7525 0H7.44813C7.93189 0 8.46586 0.120941 9.05003 0.362823C9.63419 0.604704 10.0997 0.89907 10.4466 1.24592L20.2359 11.0216C20.5736 11.3776 20.7425 11.7929 20.7425 12.2675ZM26 12.2675C26 12.7513 25.8311 13.162 25.4934 13.4997L18.7709 20.2359C18.415 20.5736 17.9996 20.7425 17.525 20.7425C17.1964 20.7425 16.9272 20.6786 16.7172 20.5508C16.5073 20.423 16.2654 20.2177 15.9916 19.9347L22.4265 13.4997C22.7643 13.162 22.9331 12.7513 22.9331 12.2675C22.9331 11.7929 22.7643 11.3776 22.4265 11.0216L12.6372 1.24592C12.2903 0.89907 11.8248 0.604704 11.2407 0.362823C10.6565 0.120941 10.1225 0 9.63876 0H12.7056C13.1894 0 13.7234 0.120941 14.3075 0.362823C14.8917 0.604704 15.3572 0.89907 15.7041 1.24592L25.4934 11.0216C25.8311 11.3776 26 11.7929 26 12.2675Z" fill="white"/>
</svg>
