<svg width="18" height="16" viewBox="0 0 18 16" fill="none" xmlns="http://www.w3.org/2000/svg">
<path d="M13.3333 1.33331C13.5101 1.33331 13.6797 1.40355 13.8047 1.52858C13.9298 1.6536 14 1.82317 14 1.99998V4.50465L12.6667 5.83798V2.66665H3.33333V13.3333H12.6667V11.4946L14 10.1613V14C14 14.1768 13.9298 14.3464 13.8047 14.4714C13.6797 14.5964 13.5101 14.6666 13.3333 14.6666H2.66667C2.48986 14.6666 2.32029 14.5964 2.19526 14.4714C2.07024 14.3464 2 14.1768 2 14V1.99998C2 1.82317 2.07024 1.6536 2.19526 1.52858C2.32029 1.40355 2.48986 1.33331 2.66667 1.33331H13.3333ZM14.5187 5.87198L15.4613 6.81465L10.276 12L9.332 11.9986L9.33333 11.0573L14.5187 5.87198ZM8.66667 7.99998V9.33331H5.33333V7.99998H8.66667ZM10.6667 5.33331V6.66665H5.33333V5.33331H10.6667Z" fill="white"/>
</svg>
