<svg width="25" height="30" viewBox="0 0 25 30" fill="none" xmlns="http://www.w3.org/2000/svg">
<path d="M24.0429 20.4548C22.2171 18.9116 21.1713 16.6618 21.1713 14.2764V10.913C21.1713 6.6678 18.0171 3.15747 13.9358 2.56958V1.26946C13.9358 0.602438 13.3932 0.0654297 12.7318 0.0654297C12.0704 0.0654297 11.5278 0.596785 11.5278 1.26381V2.56393C7.44086 3.15747 4.2923 6.6678 4.2923 10.913V14.2764C4.2923 16.6618 3.24655 18.9172 1.41507 20.4661C0.945891 20.8674 0.674561 21.4497 0.674561 22.0658C0.674561 23.2303 1.61856 24.1743 2.78302 24.1743H22.6806C23.845 24.1743 24.789 23.2303 24.789 22.0658C24.7947 21.4497 24.5234 20.8674 24.0429 20.4548Z" fill="#666666"/>
<path d="M12.732 29.0015C14.9139 29.0015 16.7454 27.447 17.1637 25.3838H8.30591C8.72421 27.447 10.55 29.0015 12.732 29.0015Z" fill="#666666"/>
</svg>
