<svg width="20" height="20" viewBox="0 0 20 20" fill="none" xmlns="http://www.w3.org/2000/svg">
<path d="M6.42857 20H2.14286C0.959821 20 0 19.0402 0 17.8571V2.14286C0 0.959821 0.959821 0 2.14286 0H6.42857C7.61161 0 8.57143 0.959821 8.57143 2.14286V17.8571C8.57143 19.0402 7.61161 20 6.42857 20ZM20 17.8571V2.14286C20 0.959821 19.0402 0 17.8571 0H13.5714C12.3884 0 11.4286 0.959821 11.4286 2.14286V17.8571C11.4286 19.0402 12.3884 20 13.5714 20H17.8571C19.0402 20 20 19.0402 20 17.8571Z" fill="#474747"/>
</svg>
