<svg width="36" height="36" viewBox="0 0 36 36" fill="none" xmlns="http://www.w3.org/2000/svg">
<path d="M18 36C27.9411 36 36 27.9411 36 18C36 8.05887 27.9411 0 18 0C8.05887 0 0 8.05887 0 18C0 27.9411 8.05887 36 18 36Z" fill="url(#paint0_linear_74_2740)"/>
<path fill-rule="evenodd" clip-rule="evenodd" d="M20.8062 22.486C20.5065 22.6763 20.1313 22.7036 19.8072 22.5589C19.1646 22.2025 17.9928 21.352 16.3674 19.7266C14.742 18.1012 13.8159 16.8511 13.4568 16.2166C13.312 15.8924 13.3394 15.5173 13.5297 15.2176L14.4639 13.5814C14.7987 13.0009 14.8743 12.6337 14.5098 12.0694L12.1095 8.39466C11.4264 7.31466 11.0781 7.36326 10.4895 7.63326C7.42768 9.02646 6.23158 10.9975 10.5759 17.8582C11.7477 19.7077 15.3279 23.6227 18.3816 25.6045C24.921 29.8516 27.0729 28.5745 28.35 25.6045C28.62 25.0051 28.7388 24.6568 27.7101 23.9845L23.9949 21.622C23.4306 21.2602 23.1552 21.1657 22.572 21.5032L20.8062 22.486Z" fill="white"/>
<defs>
<linearGradient id="paint0_linear_74_2740" x1="18" y1="0" x2="18" y2="36" gradientUnits="userSpaceOnUse">
<stop stop-color="#86FC6F"/>
<stop offset="1" stop-color="#0CD419"/>
</linearGradient>
</defs>
</svg>
