<svg width="10" height="10" viewBox="0 0 10 10" fill="none" xmlns="http://www.w3.org/2000/svg">
<path d="M4.898 0.00699997L5 0C5.18124 7.6429e-06 5.35634 0.0656426 5.49293 0.184767C5.62952 0.303891 5.71835 0.468446 5.743 0.648L5.75 0.75V4.25H9.25C9.43124 4.25001 9.60634 4.31564 9.74293 4.43477C9.87952 4.55389 9.96835 4.71845 9.993 4.898L10 5C9.99999 5.18124 9.93436 5.35634 9.81523 5.49293C9.69611 5.62952 9.53155 5.71835 9.352 5.743L9.25 5.75H5.75V9.25C5.74999 9.43124 5.68436 9.60634 5.56523 9.74293C5.44611 9.87952 5.28155 9.96835 5.102 9.993L5 10C4.81876 9.99999 4.64366 9.93436 4.50707 9.81523C4.37048 9.69611 4.28165 9.53155 4.257 9.352L4.25 9.25V5.75H0.75C0.568762 5.74999 0.393658 5.68436 0.257069 5.56523C0.120481 5.44611 0.0316483 5.28155 0.00699997 5.102L0 5C7.6429e-06 4.81876 0.0656426 4.64366 0.184767 4.50707C0.303891 4.37048 0.468446 4.28165 0.648 4.257L0.75 4.25H4.25V0.75C4.25001 0.568762 4.31564 0.393658 4.43477 0.257069C4.55389 0.120481 4.71845 0.0316483 4.898 0.00699997L5 0L4.898 0.00699997Z" fill="white"/>
</svg>
