<svg width="30" height="30" viewBox="0 0 30 30" fill="none" xmlns="http://www.w3.org/2000/svg">
<path d="M29.6858 14.8655C29.6858 6.88782 23.1875 0.397461 15.2001 0.397461C7.21264 0.397461 0.714355 6.88782 0.714355 14.8655C0.714355 22.8432 7.21264 29.3336 15.2001 29.3336C23.1875 29.3336 29.6858 22.8432 29.6858 14.8655ZM17.4584 22.8323H16.7034V25.2992H13.6967V22.8323H9.64099V19.8292H17.4584C18.4496 19.8292 19.2559 19.0239 19.2559 18.034C19.2559 17.044 18.4496 16.2387 17.4584 16.2387H13.8306C11.2524 16.2387 9.1549 14.1438 9.1549 11.5687C9.1549 9.03843 11.1803 6.97331 13.6967 6.90204V4.4317H16.7034V6.89863H19.9556V9.90172H13.8306C12.9103 9.90172 12.1617 10.6495 12.1617 11.5687C12.1617 12.4879 12.9103 13.2356 13.8306 13.2356H17.4584C20.1075 13.2356 22.2626 15.3881 22.2626 18.034C22.2625 20.6798 20.1074 22.8323 17.4584 22.8323Z" fill="white"/>
</svg>
