<svg width="20" height="22" viewBox="0 0 20 22" fill="none" xmlns="http://www.w3.org/2000/svg">
<path d="M15.4688 14.2656C14.4311 14.2656 13.4876 14.6766 12.7923 15.3441L8.6564 12.7818C8.89238 12.2349 9.02344 11.6325 9.02344 11C9.02344 10.3675 8.89238 9.76512 8.65636 9.21826L12.7923 6.6559C13.4876 7.32342 14.4311 7.73438 15.4688 7.73438C17.6011 7.73438 19.3359 5.99955 19.3359 3.86719C19.3359 1.73482 17.6011 0 15.4688 0C13.3364 0 11.6016 1.73482 11.6016 3.86719C11.6016 4.49672 11.7529 5.09158 12.0209 5.61739L7.98175 8.1198C7.15348 7.12362 5.90545 6.48828 4.51172 6.48828C2.02396 6.48828 0 8.51224 0 11C0 13.4878 2.02396 15.5117 4.51172 15.5117C5.90545 15.5117 7.15348 14.8764 7.98175 13.8802L12.0209 16.3826C11.7529 16.9084 11.6016 17.5033 11.6016 18.1328C11.6016 20.2652 13.3364 22 15.4688 22C17.6011 22 19.3359 20.2652 19.3359 18.1328C19.3359 16.0004 17.6011 14.2656 15.4688 14.2656Z" fill="white"/>
</svg>
