<svg width="22" height="22" viewBox="0 0 22 22" fill="none" xmlns="http://www.w3.org/2000/svg">
<path d="M8.81429 0.970215C10.3701 0.970152 11.895 1.40494 13.2169 2.22551C14.5388 3.04608 15.605 4.21977 16.2952 5.61413C16.9854 7.00849 17.2722 8.56801 17.1232 10.1167C16.9742 11.6654 16.3953 13.1416 15.4518 14.3788L20.7304 19.6596C20.93 19.8599 21.0459 20.1286 21.0545 20.4113C21.0631 20.6939 20.9639 20.9692 20.7769 21.1813C20.5899 21.3934 20.3291 21.5263 20.0476 21.5531C19.7662 21.5799 19.485 21.4986 19.2613 21.3257L19.1567 21.2333L13.8759 15.9547C12.8219 16.7583 11.5918 17.2994 10.2872 17.5332C8.98259 17.767 7.64107 17.6868 6.37364 17.2992C5.10621 16.9116 3.94929 16.2277 2.99864 15.3042C2.04798 14.3807 1.3309 13.2441 0.906748 11.9884C0.482594 10.7327 0.363554 9.3941 0.559478 8.08328C0.755403 6.77246 1.26066 5.52714 2.03344 4.45037C2.80622 3.37359 3.8243 2.49632 5.00345 1.89115C6.1826 1.28597 7.48891 0.970285 8.81429 0.970215ZM8.81429 3.19607C7.19087 3.19607 5.63395 3.84097 4.48602 4.9889C3.33809 6.13683 2.69319 7.69375 2.69319 9.31717C2.69319 10.9406 3.33809 12.4975 4.48602 13.6454C5.63395 14.7934 7.19087 15.4383 8.81429 15.4383C10.4377 15.4383 11.9946 14.7934 13.1426 13.6454C14.2905 12.4975 14.9354 10.9406 14.9354 9.31717C14.9354 7.69375 14.2905 6.13683 13.1426 4.9889C11.9946 3.84097 10.4377 3.19607 8.81429 3.19607Z" fill="#666666"/>
</svg>
