<svg width="29" height="29" viewBox="0 0 29 29" fill="none" xmlns="http://www.w3.org/2000/svg">
<path d="M28.6413 12.2961L25.3998 11.3294C25.1757 10.5477 24.8675 9.79252 24.4806 9.0771L26.0675 6.10945C26.127 5.99743 26.1488 5.86922 26.1296 5.74384C26.1105 5.61846 26.0513 5.5026 25.961 5.41345L23.6484 3.09347C23.5592 3.00325 23.4432 2.94418 23.3177 2.92502C23.1922 2.90587 23.0639 2.92765 22.9518 2.98713L20.0005 4.56279C19.2774 4.15743 18.5115 3.83324 17.717 3.59613L16.7494 0.396479C16.7084 0.278562 16.6311 0.176659 16.5285 0.105439C16.4259 0.0342177 16.3034 -0.00264792 16.1785 0.000148062H12.9079C12.7823 0.000732481 12.6601 0.0413612 12.5592 0.116122C12.4582 0.190882 12.3838 0.295872 12.3467 0.415813L11.3791 3.6058C10.578 3.84164 9.80555 4.16586 9.0762 4.57246L6.17337 3.00647C6.06124 2.94698 5.9329 2.9252 5.8074 2.94435C5.68189 2.96351 5.56592 3.02258 5.47669 3.1128L3.12539 5.40379C3.03508 5.49293 2.97595 5.6088 2.95678 5.73417C2.9376 5.85955 2.95941 5.98777 3.01895 6.09978L4.58648 8.99977C4.18014 9.72534 3.85562 10.4937 3.61887 11.2908L0.416073 12.2574C0.296015 12.2945 0.190921 12.3688 0.116088 12.4696C0.0412537 12.5705 0.000584993 12.6926 0 12.8181V16.0854C0.000584993 16.2109 0.0412537 16.333 0.116088 16.4338C0.190921 16.5347 0.296015 16.609 0.416073 16.6461L3.63822 17.6127C3.87756 18.3965 4.20203 19.1518 4.60583 19.865L3.01895 22.9004C2.95941 23.0124 2.9376 23.1406 2.95678 23.266C2.97595 23.3914 3.03508 23.5072 3.12539 23.5964L5.43798 25.9067C5.52722 25.9969 5.64319 26.056 5.76869 26.0751C5.89419 26.0943 6.02253 26.0725 6.13466 26.013L9.12458 24.418C9.83187 24.7993 10.578 25.1039 11.3501 25.3267L12.3177 28.5843C12.3548 28.7043 12.4292 28.8093 12.5301 28.884C12.6311 28.9588 12.7533 28.9994 12.8789 29H16.1494C16.2751 28.9994 16.3973 28.9588 16.4982 28.884C16.5992 28.8093 16.6736 28.7043 16.7107 28.5843L17.6783 25.317C18.4438 25.0931 19.1834 24.7885 19.8844 24.4084L22.8937 26.013C23.0058 26.0725 23.1342 26.0943 23.2597 26.0751C23.3852 26.056 23.5012 25.9969 23.5904 25.9067L25.903 23.5964C25.9933 23.5072 26.0524 23.3914 26.0716 23.266C26.0908 23.1406 26.069 23.0124 26.0094 22.9004L24.4032 19.9037C24.7877 19.2007 25.0958 18.4586 25.3224 17.6901L28.5833 16.7234C28.7033 16.6864 28.8084 16.612 28.8833 16.5112C28.9581 16.4103 28.9988 16.2883 28.9993 16.1627V12.8664C29.005 12.7462 28.9738 12.6271 28.9098 12.5252C28.8458 12.4232 28.7521 12.3433 28.6413 12.2961ZM14.5432 19.8167C13.4906 19.8167 12.4617 19.5049 11.5865 18.9207C10.7114 18.3365 10.0292 17.5062 9.62645 16.5347C9.22365 15.5632 9.11826 14.4942 9.3236 13.4629C9.52895 12.4315 10.0358 11.4842 10.7801 10.7406C11.5244 9.9971 12.4726 9.49074 13.505 9.28559C14.5373 9.08045 15.6074 9.18574 16.5798 9.58814C17.5522 9.99054 18.3834 10.672 18.9682 11.5463C19.553 12.4206 19.8651 13.4485 19.8651 14.5001C19.8651 15.9101 19.3044 17.2624 18.3063 18.2595C17.3083 19.2566 15.9547 19.8167 14.5432 19.8167Z" fill="#666666"/>
</svg>
