<svg width="12" height="10" viewBox="0 0 12 10" fill="none" xmlns="http://www.w3.org/2000/svg">
<path d="M11.0925 9.99997H4.53841C4.26008 9.99997 4.03418 9.77416 4.03418 9.49583C4.03418 9.2175 4.26008 8.9917 4.53841 8.9917H11.0925C11.3708 8.9917 11.5967 9.2175 11.5967 9.49583C11.5967 9.77416 11.3708 9.99997 11.0925 9.99997Z" fill="white"/>
<path d="M9.71546 0.998621L9.00251 0.28567C8.62143 -0.0955002 7.95741 -0.0949463 7.57679 0.28567L6.53418 1.32828L8.67285 3.46695L9.71546 2.42434C9.906 2.23426 10.0109 1.98123 10.0109 1.71148C10.0109 1.44229 9.906 1.18916 9.71546 0.998621Z" fill="white"/>
<path d="M5.81928 2.04175L0.623317 7.23772C0.590083 7.27049 0.566912 7.31231 0.556296 7.35819L0.0067426 9.68989C-0.0133821 9.77463 0.0122815 9.86437 0.0738559 9.92585C0.121214 9.97376 0.185742 9.99998 0.251747 9.99998C0.270949 9.99998 0.290612 9.99795 0.309721 9.99342L2.64151 9.44387C2.68693 9.43335 2.72875 9.41008 2.76199 9.37685L7.95795 4.18097L5.81928 2.04175Z" fill="white"/>
</svg>
