<svg width="112" height="112" viewBox="0 0 112 112" fill="none" xmlns="http://www.w3.org/2000/svg">
<path d="M56 7C28.9406 7 7 28.9406 7 56C7 83.0594 28.9406 105 56 105C83.0594 105 105 83.0594 105 56C105 28.9406 83.0594 7 56 7ZM77.1641 39.9984L54.1297 71.9359C53.8077 72.3853 53.3833 72.7514 52.8916 73.004C52.3999 73.2566 51.8551 73.3884 51.3023 73.3884C50.7496 73.3884 50.2047 73.2566 49.7131 73.004C49.2214 72.7514 48.7969 72.3853 48.475 71.9359L34.8359 53.0359C34.4203 52.4562 34.8359 51.6469 35.5469 51.6469H40.6766C41.7922 51.6469 42.8531 52.1828 43.5094 53.1016L51.2969 63.9078L68.4906 40.0641C69.1469 39.1562 70.1969 38.6094 71.3234 38.6094H76.4531C77.1641 38.6094 77.5797 39.4188 77.1641 39.9984Z" fill="#34B632"/>
</svg>
