<svg width="26" height="23" viewBox="0 0 26 23" fill="none" xmlns="http://www.w3.org/2000/svg">
<path d="M14.5234 0H17.5703V5.33203H14.5234V0Z" fill="white"/>
<path d="M25.2383 0H19.0938V6.09375C19.0938 6.51442 18.7527 6.85547 18.332 6.85547H13.7617C13.341 6.85547 13 6.51442 13 6.09375V0H6.90625C6.48558 0 6.14453 0.341047 6.14453 0.761719V9.94271C6.39534 9.906 6.6498 9.88696 6.90625 9.88696C8.31015 9.88696 9.65697 10.451 10.6432 11.4257H13.7617C15.4418 11.4257 16.8086 12.7926 16.8086 14.4726C16.8086 16.1527 15.4418 17.5195 13.7617 17.5195H19.0938C20.5109 17.5195 21.7051 18.492 22.0442 19.8046H25.2383C25.659 19.8046 26 19.4636 26 19.0429V0.761719C26 0.341047 25.659 0 25.2383 0Z" fill="white"/>
<path d="M19.0938 19.0427H12.2383C10.5555 19.0427 9.19141 17.6785 9.19141 15.9958H13.7617C14.6031 15.9958 15.2852 15.3138 15.2852 14.4724C15.2852 13.631 14.6031 12.9489 13.7617 12.9489H9.95312C9.2395 11.9813 8.1086 11.4102 6.90625 11.4102C5.7039 11.4102 4.573 11.9813 3.85938 12.9489H3.09766V12.4411C3.09766 12.0204 2.75661 11.6794 2.33594 11.6794H0.761719C0.341047 11.6794 0 12.0204 0 12.4411V22.0896C0 22.5102 0.341047 22.8513 0.761719 22.8513H2.33594C2.75661 22.8513 3.09766 22.5102 3.09766 22.0896V20.5661H3.85938L8.63281 22.0896H19.0938C19.9351 22.0896 20.6172 21.4075 20.6172 20.5661C20.6172 19.7247 19.9351 19.0427 19.0938 19.0427Z" fill="white"/>
</svg>
