<svg width="25" height="23" viewBox="0 0 25 23" fill="none" xmlns="http://www.w3.org/2000/svg">
<path d="M12.7604 11.459C12.3292 11.459 11.9792 11.109 11.9792 10.6777V9.89648H4.6875V10.6777C4.6875 11.109 4.3375 11.459 3.90625 11.459C3.475 11.459 3.125 11.109 3.125 10.6777V9.11523C3.125 8.68398 3.475 8.33398 3.90625 8.33398H12.7604C13.1917 8.33398 13.5417 8.68398 13.5417 9.11523V10.6777C13.5417 11.109 13.1917 11.459 12.7604 11.459Z" fill="#474747"/>
<path d="M8.33594 18.4896C7.90469 18.4896 7.55469 18.1396 7.55469 17.7083V9.375C7.55469 8.94375 7.90469 8.59375 8.33594 8.59375C8.76719 8.59375 9.11719 8.94375 9.11719 9.375V17.7083C9.11719 18.1396 8.76719 18.4896 8.33594 18.4896Z" fill="#474747"/>
<path d="M9.63541 18.75H7.03125C6.6 18.75 6.25 18.4 6.25 17.9688C6.25 17.5375 6.6 17.1875 7.03125 17.1875H9.63541C10.0667 17.1875 10.4167 17.5375 10.4167 17.9688C10.4167 18.4 10.0667 18.75 9.63541 18.75Z" fill="#474747"/>
<path d="M21.0938 9.89648H16.4062C15.975 9.89648 15.625 9.54648 15.625 9.11523C15.625 8.68398 15.975 8.33398 16.4062 8.33398H21.0938C21.525 8.33398 21.875 8.68398 21.875 9.11523C21.875 9.54648 21.525 9.89648 21.0938 9.89648Z" fill="#474747"/>
<path d="M21.0938 14.0625H16.4062C15.975 14.0625 15.625 13.7125 15.625 13.2812C15.625 12.85 15.975 12.5 16.4062 12.5H21.0938C21.525 12.5 21.875 12.85 21.875 13.2812C21.875 13.7125 21.525 14.0625 21.0938 14.0625Z" fill="#474747"/>
<path d="M21.0938 18.2285H16.4062C15.975 18.2285 15.625 17.8785 15.625 17.4473C15.625 17.016 15.975 16.666 16.4062 16.666H21.0938C21.525 16.666 21.875 17.016 21.875 17.4473C21.875 17.8785 21.525 18.2285 21.0938 18.2285Z" fill="#474747"/>
<path d="M22.1354 22.9167H2.86458C1.28437 22.9167 0 21.6323 0 20.0521V2.86458C0 1.28438 1.28437 0 2.86458 0H22.1354C23.7156 0 25 1.28438 25 2.86458V20.0521C25 21.6323 23.7156 22.9167 22.1354 22.9167ZM2.86458 1.5625C2.14687 1.5625 1.5625 2.14688 1.5625 2.86458V20.0521C1.5625 20.7698 2.14687 21.3542 2.86458 21.3542H22.1354C22.8531 21.3542 23.4375 20.7698 23.4375 20.0521V2.86458C23.4375 2.14688 22.8531 1.5625 22.1354 1.5625H2.86458Z" fill="#474747"/>
<path d="M24.2188 5.20898H0.78125C0.35 5.20898 0 4.85898 0 4.42773C0 3.99648 0.35 3.64648 0.78125 3.64648H24.2188C24.65 3.64648 25 3.99648 25 4.42773C25 4.85898 24.65 5.20898 24.2188 5.20898Z" fill="#474747"/>
</svg>
