<svg width="29" height="28" viewBox="0 0 29 28" fill="none" xmlns="http://www.w3.org/2000/svg">
<path d="M14.6069 0.00390625C6.93635 0.00390625 0.695312 6.24495 0.695312 13.9155C0.695312 21.586 6.93635 27.8271 14.6069 27.8271C22.2775 27.8271 28.5185 21.586 28.5185 13.9155C28.5185 6.24495 22.2775 0.00390625 14.6069 0.00390625ZM22.3821 10.2546L13.4912 19.0757C12.9682 19.5987 12.1314 19.6335 11.5736 19.1106L6.86662 14.822C6.30876 14.299 6.2739 13.4274 6.76202 12.8695C7.28501 12.3117 8.15667 12.2768 8.71453 12.7998L12.4452 16.2167L20.3947 8.26718C20.9525 7.70932 21.8242 7.70932 22.3821 8.26718C22.9399 8.82504 22.9399 9.69669 22.3821 10.2546Z" fill="#474747"/>
</svg>
