<svg width="57" height="56" viewBox="0 0 57 56" fill="none" xmlns="http://www.w3.org/2000/svg">
<circle cx="28.517" cy="27.9687" r="27.8232" fill="white"/>
<path d="M28.6341 8.32031C22.9858 8.32031 18.3745 12.9316 18.3745 18.5714C18.3745 24.2111 22.9858 28.8224 28.6256 28.8224C34.2653 28.8224 38.8766 24.2111 38.8766 18.5714C38.8766 12.9316 34.2739 8.32031 28.6341 8.32031Z" fill="#4C5BD4"/>
<path d="M46.231 37.0247C45.9653 36.3562 45.6053 35.7219 45.2025 35.1477C43.1454 32.1049 39.9656 30.0907 36.3828 29.5936C35.9371 29.5507 35.44 29.6364 35.08 29.9107C33.203 31.2992 30.9573 32.0192 28.6346 32.0192C26.3118 32.0192 24.0662 31.2907 22.1805 29.9021C21.8205 29.6364 21.332 29.4993 20.8777 29.585C17.295 30.0736 14.0723 32.0963 12.058 35.1391C11.6552 35.7219 11.2952 36.3905 11.0295 37.0162C10.8924 37.2819 10.9438 37.599 11.0724 37.8647C11.4324 38.4904 11.8781 39.1161 12.2809 39.6561C12.9066 40.5046 13.5837 41.2674 14.338 41.9874C14.9637 42.6131 15.6836 43.1959 16.395 43.7788C19.9349 46.4187 24.1862 47.8072 28.5746 47.8072C32.963 47.8072 37.2142 46.4187 40.7541 43.7788C41.4741 43.2388 42.1855 42.6131 42.8112 41.9874C43.5311 41.2674 44.2425 40.5132 44.8682 39.6561C45.3139 39.0732 45.7168 38.4904 46.0768 37.8647C46.3167 37.6076 46.3682 37.2904 46.231 37.0247Z" fill="#4C5BD4"/>
</svg>
