<svg width="90" height="18" viewBox="0 0 90 18" fill="none" xmlns="http://www.w3.org/2000/svg">
<path d="M19.1348 0C19.1348 0 18.2462 0.0632153 18.2451 0.879461L18.2415 3.61763C18.2415 3.61763 18.9367 2.68762 19.9149 2.68762H21.0795C21.0795 2.68762 22.032 2.63084 22.032 1.83893V0.860706C22.032 0.860706 22.0319 -1.49068e-06 21.0587 0H19.1348ZM44.0983 0.630364C43.0399 0.630364 43.04 1.58456 43.04 1.58456V3.75347H40.6976V5.21084C40.6976 5.21084 40.6975 6.14774 41.7559 6.14774H43.04V13.4176C43.1094 15.8006 45.625 17.1834 47.7764 17.1834H50.6393C51.42 17.1834 51.5416 16.1067 51.5416 16.1067V14.7188C50.1189 14.9964 48.9563 14.7015 48.9563 14.7015C46.7528 14.0595 46.8222 12.3939 46.8222 12.3939V6.14774H54.2829V13.4176C54.3523 15.8006 56.8681 17.1834 59.0195 17.1834H61.8821C62.6629 17.1834 62.7844 16.1067 62.7844 16.1067V14.7188C61.3617 14.9964 60.1994 14.7015 60.1994 14.7015C57.9959 14.0595 58.0653 12.3939 58.0653 12.3939V6.14774H61.6931C62.7528 6.14774 62.7323 5.2885 62.7323 5.2885V3.75347H58.0653V1.68888C58.0653 0.689956 57.163 0.630364 57.163 0.630364H55.3411C54.2827 0.630364 54.2829 1.58456 54.2829 1.58456V3.75347H46.8222V1.68888C46.8222 0.689956 45.9202 0.630364 45.9202 0.630364H44.0983ZM82.5567 0.630364C81.4983 0.630364 81.4984 1.58456 81.4984 1.58456V13.4176C81.5678 15.8006 84.0834 17.1834 86.2348 17.1834H89.0977C89.8784 17.1834 90 16.1067 90 16.1067V14.7188C88.5773 14.9964 87.4147 14.7015 87.4147 14.7015C85.2112 14.0595 85.2806 12.3939 85.2806 12.3939V1.68888C85.2806 0.689956 84.3786 0.630364 84.3786 0.630364H82.5567ZM31.3653 3.65852C30.7416 3.66002 28.121 3.73802 26.1113 4.89287C24.7919 5.6511 23.949 6.91913 23.9117 9.5721C23.9117 9.5721 23.92 13.5043 24.4752 14.4412C24.4752 14.4412 25.1266 15.7781 26.5829 16.5849C27.2122 16.9337 28.4775 17.1834 29.4199 17.1834H38.6676C38.6676 17.1834 39.57 17.0958 39.57 15.9853V14.7709H30.3741C30.3741 14.7709 27.9106 14.7014 27.8585 11.9081C27.8558 11.7616 27.8554 11.644 27.8536 11.5089H38.2685C38.2685 11.5089 40.0904 11.3702 40.0904 9.01061C40.0904 9.01061 40.3853 6.58139 38.4941 5.07193C36.603 3.56246 33.568 3.70484 31.5027 3.65969C31.5027 3.65969 31.4544 3.65834 31.3653 3.65849L31.3653 3.65852ZM70.8895 3.65852C70.2658 3.65987 67.6452 3.73802 65.6356 4.89287C64.3161 5.6511 63.4732 6.91913 63.4359 9.5721C63.4359 9.5721 63.4442 13.5043 63.9994 14.4412C63.9994 14.4412 64.6509 15.7781 66.1071 16.5849C66.7365 16.9337 68.0018 17.1834 68.9442 17.1834H78.1919C78.1919 17.1834 79.0942 17.0958 79.0942 15.9853V14.7709H69.8984C69.8984 14.7709 67.4348 14.7014 67.3828 11.9081C67.3801 11.7616 67.3793 11.644 67.3775 11.5089H77.7927C77.7927 11.5089 79.6147 11.3702 79.6147 9.01061C79.6147 9.01061 79.9096 6.58139 78.0184 5.07193C76.1272 3.56246 73.0922 3.70484 71.0269 3.65969C71.0269 3.65969 70.9786 3.65834 70.8895 3.65849L70.8895 3.65852ZM0 3.80065L6.45457 16.2582C6.45457 16.2582 6.79886 17.3126 8.71374 17.3126H9.40213C9.40213 17.3126 10.8222 17.377 11.5107 16.1506C12.1992 14.9243 17.9655 3.80065 17.9655 3.80065H15.0177C15.0177 3.80065 13.899 3.97285 13.189 5.4359C12.479 6.89896 9.20871 13.8484 9.20871 13.8484C9.20871 13.8484 8.95046 14.2357 8.75682 13.8484C8.56318 13.4611 4.49666 4.98401 4.49666 4.98401C4.49666 4.98401 3.76515 3.80065 2.94756 3.80065H0ZM19.1703 3.80065C19.1703 3.80065 18.2451 3.8008 18.2451 4.85507V16.2799C18.2451 16.2799 18.3096 17.1834 19.2348 17.1834H21.3002C21.3002 17.1834 22.032 17.1405 22.032 16.0217V4.72583C22.032 4.72583 21.8811 3.80065 21.1496 3.80065H19.1703ZM31.9871 6.03989C33.0683 6.04033 34.6706 6.19779 35.5272 7.03277C35.5272 7.03277 36.1693 7.55312 36.1693 8.35123C36.1693 9.16669 35.6488 9.16681 35.4927 9.16681H29.6802C29.6802 9.16681 28.7362 9.08507 27.8518 9.92612C27.8699 8.77667 27.928 8.42068 27.928 8.42068C27.928 8.42068 27.9104 6.40788 30.8773 6.09557C30.8773 6.09557 31.3384 6.03959 31.9871 6.03989ZM71.5114 6.03989C72.5925 6.04033 74.1948 6.19779 75.0515 7.03277C75.0515 7.03277 75.6936 7.55312 75.6936 8.35123C75.6936 9.16669 75.173 9.16681 75.0169 9.16681H69.2044C69.2044 9.16681 68.2604 9.08507 67.376 9.92612C67.3942 8.77667 67.4522 8.42068 67.4522 8.42068C67.4522 8.42068 67.4347 6.40788 70.4016 6.09557C70.4016 6.09557 70.8627 6.03959 71.5114 6.03989Z" fill="#EF0032"/>
</svg>
