<svg width="25" height="20" viewBox="0 0 25 20" fill="none" xmlns="http://www.w3.org/2000/svg">
<path d="M16.0245 9.32488L10.5015 6.13297C10.1839 5.94944 9.80852 5.95629 9.49724 6.1511C9.18577 6.34611 9 6.6906 9 7.07297V13.402C9 13.7825 9.18463 14.1264 9.494 14.3217C9.65555 14.4236 9.83465 14.4748 10.0141 14.4748C10.1785 14.4748 10.3433 14.4318 10.495 14.3456L16.0182 11.2087C16.3461 11.0224 16.5507 10.6624 16.5523 10.2689C16.5536 9.87546 16.3514 9.51384 16.0245 9.32488ZM10.465 12.6058V7.87558L14.5929 10.2613L10.465 12.6058Z" fill="#474747"/>
<path d="M24.8159 4.72038L24.8148 4.70829C24.7936 4.49575 24.5829 2.60526 23.7127 1.6437C22.707 0.512712 21.5668 0.375317 21.0184 0.30944C20.973 0.304001 20.9315 0.298965 20.8943 0.293727L20.8506 0.288892C17.5456 0.0350538 12.5543 0.000402917 12.5043 0.000201459L12.4999 0L12.4955 0.000201459C12.4455 0.000402917 7.45424 0.0350538 4.11946 0.288892L4.0754 0.293727C4.03992 0.298763 4.00082 0.303397 3.95829 0.308635C3.41623 0.374713 2.28823 0.512309 1.27963 1.68419C0.450894 2.63548 0.211333 4.48548 0.186728 4.69338L0.183867 4.72038C0.176428 4.80882 0 6.91426 0 9.02796V11.0039C0 13.1176 0.176428 15.223 0.183867 15.3117L0.185202 15.325C0.206374 15.5341 0.416943 17.3899 1.28306 18.3519C2.22872 19.445 3.42443 19.5896 4.06758 19.6674C4.16924 19.6797 4.25679 19.6902 4.31649 19.7012L4.37428 19.7097C6.28257 19.9015 12.2657 19.996 12.5194 19.9998L12.527 20L12.5346 19.9998C12.5846 19.9996 17.5757 19.9649 20.8807 19.7111L20.9244 19.7063C20.9662 19.7004 21.0131 19.6952 21.0646 19.6896C21.6036 19.6291 22.7255 19.5036 23.7202 18.3476C24.5489 17.3961 24.7887 15.5462 24.8131 15.3385L24.8159 15.3115C24.8234 15.2228 25 13.1176 25 11.0039V9.02796C24.9998 6.91426 24.8234 4.80902 24.8159 4.72038ZM23.5348 11.0039C23.5348 12.9602 23.373 14.975 23.3578 15.16C23.2956 15.6694 23.0429 16.8399 22.6391 17.3035C22.0165 18.0269 21.377 18.0986 20.9101 18.1508C20.8536 18.1571 20.8014 18.1631 20.7541 18.1693C17.5574 18.4135 12.7545 18.451 12.5333 18.4524C12.2851 18.4486 6.38957 18.3533 4.53945 18.1718C4.44466 18.1554 4.34224 18.143 4.23428 18.1301C3.68669 18.0638 2.9371 17.9731 2.36071 17.3035L2.34717 17.2882C1.95044 16.8516 1.70497 15.7571 1.6426 15.166C1.63096 15.0262 1.46502 12.9876 1.46502 11.0039V9.02796C1.46502 7.07381 1.62638 5.06124 1.64202 4.87248C1.71622 4.27233 1.97371 3.17277 2.36071 2.72835C3.00233 1.98296 3.67887 1.90036 4.12633 1.84576C4.16905 1.84053 4.20891 1.83569 4.24573 1.83065C7.48896 1.58528 12.3263 1.54881 12.4999 1.5474C12.6735 1.54861 17.5091 1.58528 20.7236 1.83065C20.763 1.83589 20.8062 1.84113 20.8525 1.84677C21.3127 1.90217 22.0083 1.98598 22.6467 2.70519L22.6526 2.71183C23.0494 3.14839 23.2948 4.26206 23.3572 4.86502C23.3683 4.99698 23.5348 7.03997 23.5348 9.02796V11.0039Z" fill="#474747"/>
</svg>
